<?xml version="1.0" encoding="UTF-8" standalone="no"?><!DOCTYPE svg PUBLIC "-//W3C//DTD SVG 1.1//EN" "http://www.w3.org/Graphics/SVG/1.1/DTD/svg11.dtd"><svg width="100%" height="100%" viewBox="0 0 2780 2780" version="1.1" xmlns="http://www.w3.org/2000/svg" xmlns:xlink="http://www.w3.org/1999/xlink" xml:space="preserve" xmlns:serif="http://www.serif.com/" style="fill-rule:evenodd;clip-rule:evenodd;"><g><path d="M2361.11,347.221l-0,0.012c-0,38.355 31.091,69.446 69.441,69.446l0,69.438c-38.35,0.012 -69.425,31.1 -69.425,69.446c0,38.345 31.075,69.433 69.425,69.445l0,69.442c-38.35,0.012 -69.425,31.1 -69.425,69.446c0,38.346 31.075,69.433 69.425,69.446l0,69.441c-38.35,0.013 -69.425,31.1 -69.425,69.446c0,38.346 31.075,69.433 69.425,69.446l0,69.442c-38.35,0.012 -69.425,31.1 -69.425,69.446c0,38.345 31.075,69.433 69.425,69.445l0,69.442c-38.35,0.013 -69.425,31.1 -69.425,69.446c0,38.346 31.075,69.433 69.425,69.446l0,69.441c-38.35,0.013 -69.425,31.1 -69.425,69.446c0,38.346 31.075,69.434 69.425,69.446l0,69.442c-38.35,0.012 -69.425,31.1 -69.425,69.446c0,38.345 31.075,69.433 69.425,69.445l0,69.442c-38.35,0.013 -69.425,31.1 -69.425,69.446c0,38.346 31.075,69.433 69.425,69.437l0,69.446c-38.35,0.017 -69.425,31.109 -69.425,69.442c0,38.354 31.075,69.446 69.425,69.446l0,69.446c-2.083,-0 -4.166,0.104 -6.196,0.275c-1.562,0.141 -3.108,0.329 -4.637,0.575c-33.213,5.208 -58.608,33.92 -58.608,68.591l-69.446,0c-0.017,-38.35 -31.092,-69.425 -69.446,-69.425c-38.35,0 -69.442,31.075 -69.442,69.425l-69.446,0c-0.016,-38.35 -31.091,-69.425 -69.446,-69.425c-38.35,0 -69.441,31.075 -69.441,69.425l-69.446,0c-0.017,-38.35 -31.092,-69.425 -69.446,-69.425c-38.35,0 -69.442,31.075 -69.45,69.425l-69.446,0c-0.004,-38.35 -31.091,-69.425 -69.441,-69.425c-38.35,0 -69.438,31.075 -69.446,69.425l-69.446,0c-0.004,-38.35 -31.092,-69.425 -69.442,-69.425c-38.35,0 -69.437,31.075 -69.446,69.425l-69.445,0c-0.005,-38.35 -31.092,-69.425 -69.442,-69.425c-38.35,0 -69.438,31.075 -69.446,69.425l-69.446,0c-0.004,-38.35 -31.091,-69.425 -69.441,-69.425c-38.35,0 -69.438,31.075 -69.446,69.425l-69.446,0c-0.004,-38.35 -31.092,-69.425 -69.442,-69.425c-38.35,0 -69.437,31.075 -69.446,69.425l-69.445,0c-0.005,-38.35 -31.092,-69.425 -69.442,-69.425c-38.35,0 -69.438,31.075 -69.446,69.425l-69.412,0c-0.005,-38.35 -31.096,-69.441 -69.446,-69.441l-0.025,-0l-0,-69.446l0.025,-0c38.354,-0 69.446,-31.075 69.446,-69.446c-0,-38.35 -31.092,-69.442 -69.446,-69.442l-0.025,0l-0,-69.446l0.025,0c38.354,0 69.446,-31.083 69.446,-69.437c-0,-38.354 -31.092,-69.446 -69.446,-69.446l-0.025,0l-0,-69.442l0.025,0c38.354,0 69.446,-31.091 69.446,-69.445c-0,-38.355 -31.092,-69.446 -69.446,-69.446l-0.025,-0l-0,-69.442l0.025,0c38.354,0 69.446,-31.092 69.446,-69.446c-0,-38.354 -31.092,-69.446 -69.446,-69.446l-0.025,0l-0,-69.441l0.025,-0c38.354,-0 69.446,-31.092 69.446,-69.446c-0,-38.354 -31.092,-69.446 -69.446,-69.446l-0.025,-0l-0,-69.442l0.025,0c38.354,0 69.446,-31.091 69.446,-69.446c-0,-38.354 -31.092,-69.445 -69.446,-69.445l-0.025,-0l-0,-69.442l0.025,-0c38.354,-0 69.446,-31.092 69.446,-69.446c-0,-38.354 -31.092,-69.446 -69.446,-69.446l-0.025,0l-0,-69.441l0.025,-0c38.354,-0 69.446,-31.092 69.446,-69.446c-0,-38.354 -31.092,-69.446 -69.446,-69.446l-0.025,-0l-0,-69.442l0.025,0c38.354,0 69.446,-31.091 69.446,-69.446c-0,-38.354 -31.092,-69.441 -69.446,-69.441l-0.025,-0l-0,-69.442c1.316,-0.004 2.625,-0.037 3.916,-0.112c36.546,-2.017 65.559,-32.288 65.559,-69.338l-0,-0.008l69.408,-0l0,0.012c0,38.354 31.092,69.446 69.446,69.446c38.354,0 69.442,-31.092 69.442,-69.446l-0,-0.012l69.445,-0l0,0.012c0,38.354 31.092,69.446 69.446,69.446c38.354,0 69.442,-31.092 69.442,-69.446l-0,-0.012l69.446,-0l-0,0.012c-0,38.354 31.091,69.446 69.446,69.446c38.354,0 69.441,-31.092 69.441,-69.446l0,-0.012l69.446,-0l0,0.012c0,38.354 31.092,69.446 69.446,69.446c38.354,0 69.442,-31.092 69.442,-69.446l-0,-0.012l69.445,-0l0,0.012c0,38.354 31.092,69.446 69.446,69.446c38.354,0 69.442,-31.092 69.442,-69.446l-0,-0.012l69.446,-0l-0,0.012c-0,38.354 31.091,69.446 69.446,69.446c38.354,0 69.441,-31.092 69.441,-69.446l0,-0.012l69.446,-0l0,0.012c0,38.354 31.1,69.446 69.45,69.446c38.354,0 69.446,-31.092 69.446,-69.446l0,-0.012l69.446,-0l-0,0.012c-0,38.354 31.091,69.446 69.442,69.446c38.354,0 69.445,-31.092 69.445,-69.446l0,-0.012l69.446,-0l0,0.012c0,38.354 31.092,69.446 69.442,69.446c38.354,0 69.446,-31.092 69.446,-69.446l-0,-0.012l69.446,-0Z" style="fill:#f3f4f6;"/><path d="M2361.11,347.221l17.358,-0l-0,-17.358l-17.358,-0l-0,17.358Zm69.441,69.458l17.363,0l-0,-17.362l-17.363,-0l0,17.362Zm0,69.438l0,17.362l17.363,-0.004l-0,-17.358l-17.363,-0Zm0,138.891l17.363,0l-0,-17.358l-17.363,-0.004l0,17.362Zm0,69.442l0,17.363l17.363,-0.005l-0,-17.358l-17.363,0Zm0,138.892l17.363,-0l-0,-17.359l-17.363,-0.004l0,17.363Zm0,69.441l0,17.363l17.363,-0.004l-0,-17.359l-17.363,0Zm0,138.892l17.363,0l-0,-17.358l-17.363,-0.005l0,17.363Zm0,69.442l0,17.362l17.363,-0.004l-0,-17.358l-17.363,-0Zm0,138.891l17.363,0l-0,-17.358l-17.363,-0.004l0,17.362Zm0,69.442l0,17.362l17.363,-0.004l-0,-17.358l-17.363,-0Zm0,138.892l17.363,-0l-0,-17.359l-17.363,-0.004l0,17.363Zm0,69.441l0,17.363l17.363,-0.004l-0,-17.359l-17.363,0Zm0,138.892l17.363,-0l-0,-17.358l-17.363,-0.005l0,17.363Zm0,69.442l0,17.362l17.363,-0.004l-0,-17.358l-17.363,-0Zm0,138.891l17.363,0l-0,-17.358l-17.363,-0.004l0,17.362Zm0,69.442l0,17.362l17.363,-0.004l-0,-17.358l-17.363,-0Zm0,138.883l17.363,0l-0,-17.35l-17.363,-0.004l0,17.354Zm0,69.446l0,17.358l17.363,0l-0,-17.358l-17.363,0Zm0,138.888l17.363,-0l-0,-17.342l-17.363,-0.021l0,17.363Zm0,69.445l0,17.359l17.363,-0l-0,-17.359l-17.363,0Zm-6.196,0.275l1.525,17.292l-1.525,-17.292Zm-4.637,0.575l2.675,17.155l0.017,-0l-2.692,-17.155Zm-58.608,68.592l-0,17.363l17.341,-0l0.017,-17.363l-17.358,0Zm-69.446,0l-17.363,0l0,17.363l17.363,-0l-0,-17.363Zm-138.888,0l0,17.363l17.342,-0l0.017,-17.363l-17.359,0Zm-69.446,0l-17.362,0l-0,17.363l17.362,-0l0,-17.363Zm-138.887,0l-0,17.363l17.358,-0l0,-17.363l-17.358,0Zm-69.446,0l-17.362,0l-0,17.363l17.362,-0l0,-17.363Zm-138.896,0l0,17.363l17.35,-0l0.017,-17.363l-17.367,0Zm-69.446,0l-17.358,0l0,17.363l17.358,-0l0,-17.363Zm-138.887,0l-0,17.363l17.358,-0l0.004,-17.363l-17.362,0Zm-69.446,0l-17.358,0l-0,17.363l17.358,-0l0,-17.363Zm-138.887,0l-0,17.363l17.358,-0l0.004,-17.363l-17.362,0Zm-69.446,0l-17.359,0l0,17.363l17.359,-0l-0,-17.363Zm-138.888,0l0,17.363l17.359,-0l0.004,-17.363l-17.363,0Zm-69.446,0l-17.358,0l0,17.363l17.358,-0l0,-17.363Zm-138.887,0l-0,17.363l17.358,-0l0.004,-17.363l-17.362,0Zm-69.446,0l-17.358,0l-0,17.363l17.358,-0l0,-17.363Zm-138.887,0l-0,17.363l17.358,-0l0.004,-17.363l-17.362,0Zm-69.446,0l-17.359,0l0,17.363l17.359,-0l-0,-17.363Zm-138.888,0l0,17.363l17.359,-0l0.004,-17.363l-17.363,0Zm-69.412,0l-17.363,0l0.004,17.363l17.359,-0l-0,-17.363Zm-69.471,-69.442l-17.358,0.017l-0,17.342l17.358,-0l-0,-17.359Zm-0,-69.445l-0,-17.363l-17.358,0l-0,17.363l17.358,-0Zm-0,-138.888l-17.358,0l-0,17.358l17.358,0l-0,-17.358Zm-0,-69.446l-0,-17.354l-17.358,0l-0,17.354l17.358,0Zm-0,-138.883l-17.358,-0l-0,17.362l17.358,0l-0,-17.362Zm-0,-69.442l-0,-17.362l-17.358,-0l-0,17.362l17.358,0Zm-0,-138.891l-17.358,-0l-0,17.362l17.358,0l-0,-17.362Zm-0,-69.442l-0,-17.363l-17.358,0l-0,17.363l17.358,-0Zm-0,-138.892l-17.358,0l-0,17.363l17.358,-0l-0,-17.363Zm-0,-69.441l-0,-17.363l-17.358,0l-0,17.363l17.358,-0Zm-0,-138.892l-17.358,-0l-0,17.362l17.358,0l-0,-17.362Zm-0,-69.442l-0,-17.362l-17.358,-0l-0,17.362l17.358,0Zm-0,-138.891l-17.358,-0l-0,17.362l17.358,0l-0,-17.362Zm-0,-69.442l-0,-17.363l-17.358,0l-0,17.363l17.358,-0Zm-0,-138.892l-17.358,0l-0,17.363l17.358,-0l-0,-17.363Zm-0,-69.441l-0,-17.363l-17.358,0l-0,17.363l17.358,-0Zm-0,-138.892l-17.358,-0l-0,17.362l17.358,0l-0,-17.362Zm-0,-69.442l-0,-17.362l-17.358,-0l-0,17.362l17.358,0Zm-0,-138.887l-17.358,-0l-0,17.358l17.358,0l-0,-17.358Zm-0,-69.442l-0,-17.362l-17.358,-0l-0,17.362l17.358,0Zm3.917,-0.112l-0.955,-17.334l-0.008,0l0.963,17.334Zm65.558,-69.346l-0,-17.359l-17.363,0l0,17.359l17.363,-0Zm69.408,-0l17.363,-0l-0,-17.359l-17.363,0l0,17.359Zm138.888,-0l-0,-17.359l-17.359,0l0,17.359l17.359,-0Zm69.446,-0l17.362,-0l0,-17.359l-17.362,0l-0,17.359Zm138.887,-0l0,-17.359l-17.358,0l-0,17.359l17.358,-0Zm69.446,-0l17.362,-0l0,-17.359l-17.362,0l-0,17.359Zm138.887,-0l0,-17.359l-17.358,0l0,17.359l17.358,-0Zm69.446,-0l17.363,-0l-0,-17.359l-17.363,0l0,17.359Zm69.446,69.458l0,-17.362l0,17.362Zm69.442,-69.458l-0,-17.359l-17.359,0l0,17.359l17.359,-0Zm69.446,-0l17.362,-0l0,-17.359l-17.362,0l-0,17.359Zm138.887,-0l0,-17.359l-17.358,0l-0,17.359l17.358,-0Zm69.446,-0l17.362,-0l0,-17.359l-17.362,0l-0,17.359Zm69.446,69.458l-0,17.358l-0,-17.358Zm69.441,-69.458l0,-17.359l-17.358,0l0,17.359l17.358,-0Zm69.446,-0l17.367,-0l-0,-17.359l-17.367,0l0,17.359Zm138.896,-0l0,-17.359l-17.362,0l-0,17.359l17.362,-0Zm69.446,-0l17.358,-0l0,-17.359l-17.358,0l-0,17.359Zm138.887,-0l0,-17.359l-17.362,0l-0,17.359l17.362,-0Zm69.446,-0l17.359,-0l-0,-17.359l-17.359,0l0,17.359Zm138.888,-0l-0,-17.359l-17.363,0l0,17.359l17.363,-0Zm52.083,-0l0,0.012l34.721,0l-0,-0.012l-34.721,-0Zm0,0.012c0,47.942 38.854,86.804 86.804,86.804l0,-34.72c-28.766,-0 -52.083,-23.321 -52.083,-52.084l-34.721,0Zm86.804,86.804l0,-34.72l0,34.72Zm-17.358,-17.358l-0,69.438l34.721,-0l-0,-69.438l-34.721,0Zm-34.704,138.883c-0,-28.758 23.312,-52.075 52.062,-52.083l0,-34.721c-47.933,0.013 -86.787,38.871 -86.787,86.804l34.725,0Zm52.066,52.084c-28.75,-0.009 -52.062,-23.325 -52.062,-52.084l-34.725,0c-0,47.934 38.854,86.792 86.787,86.805l0,-34.721Zm-17.358,17.362l0,69.442l34.721,-0l-0,-69.442l-34.721,0Zm17.358,52.084c-47.933,0.012 -86.787,38.87 -86.787,86.804l34.721,-0c-0,-28.759 23.316,-52.075 52.066,-52.084l0,-34.72Zm-86.787,86.804c-0,47.933 38.854,86.791 86.787,86.804l0,-34.721c-28.75,-0.008 -52.062,-23.325 -52.062,-52.083l-34.725,-0Zm69.429,69.446l0,69.441l34.721,0l-0,-69.441l-34.721,-0Zm17.358,52.083c-47.933,0.012 -86.787,38.871 -86.787,86.804l34.721,0c-0,-28.758 23.316,-52.075 52.066,-52.083l0,-34.721Zm-86.787,86.804c-0,47.933 38.854,86.792 86.787,86.804l0,-34.721c-28.75,-0.008 -52.066,-23.325 -52.066,-52.083l-34.721,0Zm69.429,69.446l0,69.442l34.721,-0l-0,-69.442l-34.721,-0Zm-34.708,138.887c-0,-28.758 23.316,-52.075 52.066,-52.083l0,-34.721c-47.933,0.013 -86.787,38.871 -86.787,86.804l34.721,0Zm52.066,52.084c-28.75,-0.009 -52.066,-23.325 -52.066,-52.084l-34.721,0c-0,47.934 38.854,86.792 86.787,86.805l0,-34.721Zm-17.358,17.362l0,69.442l34.721,-0l-0,-69.442l-34.721,0Zm17.358,52.084c-47.933,0.012 -86.787,38.87 -86.787,86.804l34.721,-0c-0,-28.759 23.316,-52.075 52.066,-52.084l0,-34.72Zm-86.787,86.804c-0,47.933 38.854,86.791 86.787,86.804l0,-34.721c-28.75,-0.008 -52.066,-23.325 -52.066,-52.083l-34.721,-0Zm69.429,69.446l0,69.441l34.721,0l-0,-69.441l-34.721,-0Zm-34.708,138.887c-0,-28.758 23.316,-52.075 52.066,-52.083l0,-34.721c-47.933,0.012 -86.787,38.871 -86.787,86.804l34.721,0Zm52.066,52.083c-28.75,-0.008 -52.066,-23.325 -52.066,-52.083l-34.721,0c-0,47.933 38.854,86.792 86.787,86.804l0,-34.721Zm-17.358,17.363l0,69.442l34.721,-0l-0,-69.442l-34.721,-0Zm-34.708,138.887c-0,-28.758 23.316,-52.075 52.066,-52.083l0,-34.721c-47.933,0.013 -86.787,38.871 -86.787,86.804l34.721,0Zm52.066,52.084c-28.75,-0.009 -52.062,-23.325 -52.062,-52.084l-34.725,0c-0,47.934 38.854,86.792 86.787,86.805l0,-34.721Zm-17.358,17.362l0,69.442l34.721,-0l-0,-69.442l-34.721,0Zm-34.704,138.888c-0,-28.759 23.312,-52.075 52.062,-52.084l0,-34.72c-47.933,0.012 -86.787,38.87 -86.787,86.804l34.725,-0Zm52.067,52.083c-28.75,-0.008 -52.063,-23.325 -52.063,-52.083l-34.725,-0c0,47.933 38.854,86.8 86.788,86.8l-0,-34.717Zm-17.359,17.354l0,69.446l34.721,0l0,-69.446l-34.721,0Zm17.359,52.084c-47.934,0.016 -86.788,38.887 -86.788,86.804l34.721,-0c-0,-28.75 23.317,-52.063 52.067,-52.084l-0,-34.72Zm-86.788,86.804c0,47.937 38.854,86.808 86.788,86.808l-0,-34.725c-28.75,0 -52.063,-23.312 -52.063,-52.083l-34.725,-0Zm69.429,69.446l0,69.445l34.721,0l0,-69.445l-34.721,-0Zm0,69.445l34.721,0l-34.721,0Zm17.359,-17.362c-2.605,-0 -5.192,0.121 -7.742,0.346l3.071,34.583c1.546,-0.137 3.091,-0.208 4.671,-0.208l-0,-34.721Zm-7.742,0.346c-1.946,0.175 -3.871,0.416 -5.8,0.712l5.4,34.309c1.146,-0.175 2.308,-0.334 3.471,-0.438l-3.071,-34.583Zm-5.783,0.712c-41.525,6.513 -73.28,42.396 -73.28,85.746l34.721,0c0,-25.971 19.046,-47.533 43.925,-51.437l-5.366,-34.309Zm-55.917,68.388l-69.446,-0l0,34.721l69.446,-0l-0,-34.721Zm-138.892,-34.704c28.75,-0 52.067,23.295 52.084,52.062l34.725,0c-0.021,-47.933 -38.875,-86.787 -86.809,-86.787l0,34.725Zm-52.083,52.066c-0,-28.766 23.317,-52.062 52.083,-52.062l0,-34.725c-47.95,-0 -86.804,38.854 -86.804,86.787l34.721,0Zm-17.358,-17.358l-69.446,-0l-0,34.721l69.446,-0l-0,-34.721Zm-52.084,17.358c-0.021,-47.933 -38.875,-86.787 -86.808,-86.787l-0,34.721c28.75,-0 52.067,23.3 52.083,52.066l34.725,0Zm-86.808,-86.787c-47.95,-0 -86.804,38.854 -86.804,86.787l34.721,0c-0,-28.766 23.316,-52.062 52.083,-52.062l-0,-34.725Zm-69.442,69.429l-69.446,-0l0,34.721l69.446,-0l0,-34.721Zm-52.083,17.358c-0.021,-47.933 -38.875,-86.787 -86.808,-86.787l-0,34.721c28.75,-0 52.066,23.3 52.083,52.066l34.725,0Zm-86.808,-86.787c-47.95,-0 -86.805,38.854 -86.813,86.787l34.729,0c0,-28.766 23.317,-52.066 52.084,-52.066l-0,-34.721Zm-69.45,69.429l-69.446,-0l-0,34.721l69.446,-0l-0,-34.721Zm-138.888,-34.708c28.763,-0 52.079,23.3 52.083,52.066l34.721,0c-0.008,-47.933 -38.866,-86.787 -86.804,-86.787l0,34.721Zm-52.083,52.066c0.004,-28.766 23.321,-52.066 52.083,-52.066l0,-34.721c-47.937,-0 -86.8,38.854 -86.808,86.787l34.725,0Zm-17.363,-17.358l-69.446,-0l0,34.721l69.446,-0l0,-34.721Zm-52.083,17.358c-0.008,-47.933 -38.867,-86.787 -86.804,-86.787l-0,34.721c28.762,-0 52.079,23.3 52.083,52.066l34.721,0Zm-86.804,-86.787c-47.938,-0 -86.8,38.854 -86.809,86.787l34.725,0c0.005,-28.766 23.321,-52.066 52.084,-52.066l-0,-34.721Zm-69.446,69.429l-69.446,-0l0,34.721l69.446,-0l-0,-34.721Zm-138.888,-34.708c28.763,-0 52.08,23.3 52.084,52.066l34.721,0c-0.009,-47.933 -38.867,-86.787 -86.805,-86.787l0,34.721Zm-52.083,52.066c0.004,-28.766 23.321,-52.066 52.083,-52.066l0,-34.721c-47.937,-0 -86.8,38.854 -86.808,86.787l34.725,0Zm-17.362,-17.358l-69.446,-0l-0,34.721l69.446,-0l-0,-34.721Zm-138.888,-34.708c28.763,-0 52.079,23.3 52.083,52.066l34.721,0c-0.008,-47.933 -38.866,-86.787 -86.804,-86.787l0,34.721Zm-52.083,52.066c0.004,-28.766 23.321,-52.062 52.083,-52.062l0,-34.725c-47.937,-0 -86.8,38.854 -86.808,86.787l34.725,0Zm-17.363,-17.358l-69.446,-0l0,34.721l69.446,-0l0,-34.721Zm-138.887,-34.704c28.762,-0 52.079,23.296 52.083,52.062l34.721,0c-0.008,-47.933 -38.867,-86.787 -86.804,-86.787l-0,34.725Zm-52.084,52.066c0.005,-28.766 23.321,-52.062 52.084,-52.062l-0,-34.725c-47.938,0 -86.8,38.854 -86.809,86.787l34.725,0.001Zm-17.362,-17.359l-69.446,0l0,34.721l69.446,-0l-0,-34.721Zm-52.083,17.358c-0.009,-47.933 -38.867,-86.787 -86.805,-86.787l0,34.721c28.763,-0 52.08,23.3 52.084,52.066l34.721,0Zm-86.805,-86.787c-47.937,-0 -86.8,38.854 -86.808,86.787l34.725,0c0.004,-28.766 23.321,-52.062 52.083,-52.062l0,-34.725Zm-69.445,69.429l-69.413,0l0,34.721l69.413,-0l-0,-34.721Zm-52.055,17.358c-0.004,-47.933 -38.862,-86.804 -86.804,-86.804l0,34.721c28.763,0 52.084,23.317 52.084,52.083l34.72,0Zm-86.804,-86.804l-0.025,0l0,34.721l0.025,0l0,-34.721Zm17.338,17.363l-34.721,-0l-0,0.017l34.721,-0.017Zm-0,-0l-0,-69.446l-34.721,0l-0,69.446l34.721,-0Zm-17.363,-52.084l0.025,0l0,-34.724l-0.025,-0l0,34.724Zm0.025,0c47.942,0 86.804,-38.854 86.804,-86.808l-34.72,0c-0,28.767 -23.317,52.084 -52.084,52.084l0,34.724Zm86.804,-86.808c0,-47.933 -38.862,-86.804 -86.804,-86.804l0,34.721c28.767,-0 52.084,23.333 52.084,52.083l34.72,0Zm-86.804,-86.804l-0.025,0l0,34.721l0.025,-0l0,-34.721Zm17.338,17.363l-0,-69.446l-34.721,-0l-0,69.446l34.721,-0Zm-17.338,-86.8l-0.025,-0l0,34.716l0.025,0l0,-34.716Zm52.084,-52.084c-0,28.767 -23.317,52.084 -52.084,52.084l0,34.716c47.942,0 86.804,-38.858 86.804,-86.8l-34.72,0Zm-52.084,-52.083c28.767,-0 52.084,23.321 52.084,52.083l34.72,0c0,-47.941 -38.862,-86.804 -86.804,-86.804l0,34.721Zm-0.025,-0l0.025,-0l0,-34.721l-0.025,0l0,34.721Zm17.363,-17.363l-0,-69.441l-34.721,-0l-0,69.441l34.721,0Zm-17.338,-86.804l-0.025,0l0,34.721l0.025,0l0,-34.721Zm52.084,-52.083c-0,28.767 -23.317,52.083 -52.084,52.083l0,34.721c47.942,0 86.804,-38.862 86.804,-86.804l-34.72,-0Zm-52.084,-52.083c28.767,-0 52.084,23.32 52.084,52.083l34.72,-0c0,-47.942 -38.862,-86.804 -86.804,-86.804l0,34.721Zm-0.025,-0l0.025,-0l0,-34.721l-0.025,-0l0,34.721Zm17.363,-17.363l-0,-69.442l-34.721,0l-0,69.442l34.721,0Zm-17.338,-86.804l-0.025,-0l0,34.721l0.025,-0l0,-34.721Zm52.084,-52.083c-0,28.766 -23.317,52.083 -52.084,52.083l0,34.721c47.942,-0 86.804,-38.863 86.804,-86.804l-34.72,-0Zm-52.084,-52.084c28.767,0 52.084,23.321 52.084,52.084l34.72,-0c0,-47.942 -38.862,-86.805 -86.804,-86.805l0,34.721Zm-0.025,0l0.025,0l0,-34.721l-0.025,0l0,34.721Zm17.363,-17.362l-0,-69.442l-34.721,0l-0,69.442l34.721,-0Zm-17.363,-52.084l0.025,0l0,-34.72l-0.025,-0l0,34.72Zm0.025,0c47.942,0 86.804,-38.862 86.804,-86.804l-34.72,0c-0,28.767 -23.317,52.084 -52.084,52.084l0,34.72Zm86.804,-86.804c0,-47.941 -38.862,-86.804 -86.804,-86.804l0,34.721c28.767,-0 52.084,23.321 52.084,52.083l34.72,0Zm-86.804,-86.804l-0.025,0l0,34.721l0.025,-0l0,-34.721Zm17.338,17.358l-0,-69.441l-34.721,-0l-0,69.441l34.721,0Zm-17.338,-86.804l-0.025,0l0,34.721l0.025,0l0,-34.721Zm52.084,-52.083c-0,28.767 -23.317,52.083 -52.084,52.083l0,34.721c47.942,0 86.804,-38.862 86.804,-86.804l-34.72,-0Zm-52.084,-52.083c28.767,-0 52.084,23.32 52.084,52.083l34.72,-0c0,-47.942 -38.862,-86.804 -86.804,-86.804l0,34.721Zm-0.025,-0l0.025,-0l0,-34.721l-0.025,-0l0,34.721Zm17.363,-17.363l-0,-69.442l-34.721,0l-0,69.442l34.721,0Zm-17.363,-52.083l0.025,-0l0,-34.721l-0.025,-0l0,34.721Zm0.025,-0c47.942,-0 86.804,-38.863 86.804,-86.804l-34.72,-0c-0,28.766 -23.317,52.083 -52.084,52.083l0,34.721Zm86.804,-86.804c0,-47.942 -38.862,-86.805 -86.804,-86.805l0,34.721c28.767,0 52.084,23.321 52.084,52.084l34.72,-0Zm-86.804,-86.805l-0.025,0l0,34.721l0.025,0l0,-34.721Zm17.338,17.359l-0,-69.442l-34.721,0l-0,69.442l34.721,-0Zm-17.363,-52.084l0.025,0l0,-34.72l-0.025,-0l0,34.72Zm0.025,0c47.942,0 86.804,-38.862 86.804,-86.804l-34.72,0c-0,28.767 -23.317,52.084 -52.084,52.084l0,34.72Zm86.804,-86.804c0,-47.941 -38.862,-86.804 -86.804,-86.804l0,34.721c28.767,-0 52.084,23.321 52.084,52.083l34.72,0Zm-86.804,-86.804l-0.025,0l0,34.721l0.025,-0l0,-34.721Zm17.338,17.358l-0,-69.441l-34.721,-0l-0,69.441l34.721,0Zm-17.338,-86.804l-0.025,0l0,34.721l0.025,0l0,-34.721Zm52.084,-52.083c-0,28.767 -23.317,52.083 -52.084,52.083l0,34.721c47.942,0 86.804,-38.862 86.804,-86.804l-34.72,-0Zm-52.084,-52.083c28.767,-0 52.084,23.32 52.084,52.083l34.72,-0c0,-47.942 -38.862,-86.804 -86.804,-86.804l0,34.721Zm-0.025,-0l0.025,-0l0,-34.721l-0.025,-0l0,34.721Zm17.363,-17.363l-0,-69.442l-34.721,0l-0,69.442l34.721,0Zm-17.359,-52.079c1.634,-0 3.263,-0.046 4.88,-0.133l-1.93,-34.671c-0.979,0.054 -1.962,0.083 -2.954,0.083l0.004,34.721Zm4.871,-0.133c45.696,-2.525 81.959,-40.359 81.959,-86.675l-34.721,-0c-0,27.783 -21.759,50.491 -49.15,52.004l1.912,34.671Zm81.959,-86.675l-0,-0.009l-34.721,0l-0,0.009l34.721,-0Zm-17.359,17.354l69.409,-0l-0,-34.721l-69.409,-0l0,34.721Zm52.046,-17.363l0,0.013l34.725,-0l0,-0.013l-34.725,0Zm0,0.013c0,47.941 38.867,86.804 86.808,86.804l0,-34.721c-28.766,0 -52.083,-23.321 -52.083,-52.083l-34.725,-0Zm86.808,86.804c47.942,-0 86.805,-38.863 86.805,-86.804l-34.721,-0c-0,28.762 -23.321,52.083 -52.084,52.083l0,34.721Zm86.805,-86.804l-0,-0.013l-34.721,0l-0,0.013l34.721,-0Zm-17.363,17.35l69.446,-0l-0,-34.721l-69.446,-0l0,34.721Zm86.808,-17.35l0,-0.013l-34.725,0l0,0.013l34.725,-0Zm52.084,52.083c-28.767,0 -52.084,-23.321 -52.084,-52.083l-34.725,-0c0,47.941 38.867,86.804 86.809,86.804l-0,-34.721Zm52.083,-52.083c0,28.762 -23.321,52.083 -52.083,52.083l-0,34.721c47.941,-0 86.804,-38.863 86.804,-86.804l-34.721,-0Zm0,-0.013l0,0.013l34.721,-0l-0,-0.013l-34.721,0Zm17.358,17.363l69.446,-0l0,-34.721l-69.446,-0l0,34.721Zm86.809,-17.35l-0,-0.013l-34.725,0l-0,0.013l34.725,-0Zm52.083,52.083c-28.767,0 -52.083,-23.321 -52.083,-52.083l-34.725,-0c-0,47.941 38.866,86.804 86.808,86.804l0,-34.721Zm52.083,-52.083c0,28.762 -23.32,52.083 -52.083,52.083l0,34.721c47.942,-0 86.804,-38.863 86.804,-86.804l-34.721,-0Zm0,-0.013l0,0.013l34.721,-0l0,-0.013l-34.721,0Zm17.359,17.363l69.446,-0l-0,-34.721l-69.446,-0l-0,34.721Zm86.808,-17.35l0,-0.013l-34.725,0l0,0.013l34.725,-0Zm52.083,52.083c-28.766,0 -52.083,-23.321 -52.083,-52.083l-34.725,-0c0,47.941 38.867,86.804 86.808,86.804l0,-34.721Zm52.084,-52.083c-0,28.762 -23.321,52.083 -52.084,52.083l0,34.721c47.942,-0 86.805,-38.863 86.805,-86.804l-34.721,-0Zm-0,-0.013l-0,0.013l34.721,-0l-0,-0.013l-34.721,0Zm17.358,17.363l69.446,-0l-0,-34.721l-69.446,-0l0,34.721Zm52.083,-17.363l0,0.013l34.725,-0l0,-0.013l-34.725,0Zm0,0.013c0,47.941 38.867,86.804 86.809,86.804l-0,-34.721c-28.767,0 -52.084,-23.321 -52.084,-52.083l-34.725,-0Zm86.809,86.804c47.941,-0 86.804,-38.863 86.804,-86.804l-34.721,-0c0,28.762 -23.321,52.083 -52.083,52.083l-0,34.721Zm86.804,-86.804l-0,-0.013l-34.721,0l0,0.013l34.721,-0Zm-17.363,17.35l69.446,-0l0,-34.721l-69.446,-0l0,34.721Zm86.809,-17.35l-0,-0.013l-34.725,0l-0,0.013l34.725,-0Zm52.083,52.083c-28.767,0 -52.083,-23.321 -52.083,-52.083l-34.725,-0c-0,47.941 38.866,86.804 86.808,86.804l0,-34.721Zm52.083,-52.083c0,28.762 -23.32,52.083 -52.083,52.083l0,34.721c47.942,-0 86.804,-38.863 86.804,-86.804l-34.721,-0Zm0,-0.013l0,0.013l34.721,-0l0,-0.013l-34.721,0Zm17.359,17.363l69.446,-0l-0,-34.721l-69.446,-0l-0,34.721Zm52.083,-17.363l0,0.013l34.729,-0l0,-0.013l-34.729,0Zm0,0.013c0,47.941 38.863,86.804 86.813,86.804l-0,-34.721c-28.767,0 -52.084,-23.321 -52.084,-52.083l-34.729,-0Zm86.813,86.804c47.933,-0 86.808,-38.863 86.808,-86.804l-34.725,-0c-0,28.762 -23.333,52.083 -52.083,52.083l-0,34.721Zm86.808,-86.804l-0,-0.013l-34.725,0l-0,0.013l34.725,-0Zm-17.363,17.35l69.446,-0l0,-34.721l-69.446,-0l0,34.721Zm52.084,-17.363l-0,0.013l34.721,-0l-0,-0.013l-34.721,0Zm-0,0.013c-0,47.941 38.854,86.804 86.804,86.804l-0,-34.721c-28.767,0 -52.083,-23.321 -52.083,-52.083l-34.721,-0Zm86.804,86.804c47.933,-0 86.808,-38.863 86.808,-86.804l-34.725,-0c0,28.762 -23.316,52.083 -52.083,52.083l-0,34.721Zm86.808,-86.804l0,-0.013l-34.725,0l0,0.013l34.725,-0Zm-17.362,17.35l69.446,-0l-0,-34.721l-69.446,-0l-0,34.721Zm86.804,-17.35l-0,-0.013l-34.721,0l0,0.013l34.721,-0Zm52.083,52.083c-28.766,0 -52.083,-23.321 -52.083,-52.083l-34.721,-0c0,47.941 38.854,86.804 86.804,86.804l0,-34.721Zm52.084,-52.083c-0,28.762 -23.334,52.083 -52.084,52.083l0,34.721c47.934,-0 86.809,-38.863 86.809,-86.804l-34.725,-0Zm-0,-0.013l-0,0.013l34.725,-0l-0,-0.013l-34.725,0Zm17.362,17.363l69.446,-0l-0,-34.721l-69.446,-0l0,34.721Z" style="fill:#e2e0e7;fill-rule:nonzero;"/></g><path d="M564.238,625c-0,-33.558 27.204,-60.762 60.762,-60.762l1527.78,-0c33.558,-0 60.763,27.204 60.763,60.762l-0,1527.78c-0,33.558 -27.205,60.763 -60.763,60.763l-1527.78,-0c-33.558,-0 -60.763,-27.205 -60.763,-60.763l0,-1527.78Z" style="fill:#fff;fill-rule:nonzero;stroke:#e2e0e7;stroke-width:17.38px;"/><path d="M2083.33,766.946c0,-40.014 -32.486,-72.5 -72.5,-72.5l-1243.89,-0c-40.014,-0 -72.5,32.486 -72.5,72.5l-0,1243.89c-0,40.014 32.486,72.5 72.5,72.5l1243.89,0c40.014,0 72.5,-32.486 72.5,-72.5l0,-1243.89Z" style="fill:url(#_Linear1);"/><text x="1242.08px" y="1909.83px" style="font-family:'MiriamLibre-Regular', 'Miriam Libre';font-size:166.667px;fill:#fff;">ENS</text><g><path d="M1205.4,1336.98c5.489,11.688 19.088,34.832 19.088,34.832l156.264,-258.378l-152.686,106.405c-9.068,5.963 -16.46,14.315 -21.711,23.857c-14.076,29.346 -14.314,63.461 -0.955,93.284Z" style="fill:#fff;fill-rule:nonzero;"/><path d="M1143.37,1421.91c3.578,50.102 28.39,96.147 68.234,126.445l168.669,117.619c-0,-0 -105.447,-152.212 -194.675,-303.469c-9.068,-15.983 -15.032,-33.402 -17.894,-51.531c-1.191,-8.112 -1.191,-16.464 0,-24.812c-2.385,4.292 -6.918,13.121 -6.918,13.121c-9.065,18.371 -15.267,38.172 -18.133,58.45c-1.429,21.233 -1.429,42.944 0.717,64.177Z" style="fill:#fff;fill-rule:nonzero;"/><path d="M1573.76,1442.43c-5.486,-11.688 -19.084,-34.831 -19.084,-34.831l-156.268,258.378l152.451,-106.405c9.064,-5.964 16.46,-14.315 21.711,-23.857c14.314,-29.585 14.55,-63.7 1.19,-93.285Z" style="fill:#fff;fill-rule:nonzero;"/><path d="M1635.79,1357.26c-3.579,-50.101 -28.391,-96.146 -68.234,-126.444l-168.672,-117.619c-0,-0 105.45,152.212 194.678,303.468c9.065,15.983 15.031,33.399 17.893,51.531c1.191,8.113 1.191,16.461 0,24.812c2.385,-4.295 6.919,-13.12 6.919,-13.12c9.065,-18.371 15.267,-38.175 18.132,-58.453c1.43,-21.234 1.43,-42.706 -0.716,-64.175Z" style="fill:#fff;fill-rule:nonzero;"/></g><defs><linearGradient id="_Linear1" x1="0" y1="0" x2="1" y2="0" gradientUnits="userSpaceOnUse" gradientTransform="matrix(8.5748e-14,1400.37,-1400.37,8.5748e-14,1388.53,687.267)"><stop offset="0" style="stop-color:#513eff;stop-opacity:1"/><stop offset="0.18" style="stop-color:#5157ff;stop-opacity:1"/><stop offset="0.57" style="stop-color:#5298ff;stop-opacity:1"/><stop offset="1" style="stop-color:#52e5ff;stop-opacity:1"/></linearGradient></defs></svg>