<?xml version="1.0" encoding="UTF-8" standalone="no"?><!DOCTYPE svg PUBLIC "-//W3C//DTD SVG 1.1//EN" "http://www.w3.org/Graphics/SVG/1.1/DTD/svg11.dtd"><svg width="100%" height="100%" viewBox="0 0 11584 11584" version="1.1" xmlns="http://www.w3.org/2000/svg" xmlns:xlink="http://www.w3.org/1999/xlink" xml:space="preserve" xmlns:serif="http://www.serif.com/" style="fill-rule:evenodd;clip-rule:evenodd;"><g><path d="M9837.96,1446.75l-0,0.05c-0,159.813 129.546,289.358 289.338,289.358l-0,289.325c-159.792,0.05 -289.271,129.584 -289.271,289.359c-0,159.771 129.479,289.304 289.271,289.354l-0,289.342c-159.792,0.05 -289.271,129.583 -289.271,289.358c-0,159.775 129.479,289.304 289.271,289.358l-0,289.338c-159.792,0.054 -289.271,129.583 -289.271,289.358c-0,159.775 129.479,289.304 289.271,289.359l-0,289.341c-159.792,0.05 -289.271,129.583 -289.271,289.358c-0,159.771 129.479,289.305 289.271,289.355l-0,289.341c-159.792,0.054 -289.271,129.584 -289.271,289.359c-0,159.775 129.479,289.304 289.271,289.358l-0,289.337c-159.792,0.055 -289.271,129.584 -289.271,289.359c-0,159.775 129.479,289.308 289.271,289.358l-0,289.342c-159.792,0.05 -289.271,129.583 -289.271,289.358c-0,159.771 129.479,289.304 289.271,289.354l-0,289.342c-159.792,0.054 -289.271,129.583 -289.271,289.358c-0,159.775 129.479,289.304 289.271,289.321l-0,289.358c-159.792,0.071 -289.271,129.621 -289.271,289.342c-0,159.808 129.479,289.358 289.271,289.358l-0,289.359c-8.679,0 -17.359,0.433 -25.817,1.146c-6.508,0.587 -12.95,1.37 -19.321,2.395c-138.387,21.7 -244.2,141.334 -244.2,285.796l-289.358,0c-0.071,-159.791 -129.55,-289.271 -289.358,-289.271c-159.792,0 -289.342,129.48 -289.342,289.271l-289.358,0c-0.067,-159.791 -129.546,-289.271 -289.359,-289.271c-159.791,0 -289.337,129.48 -289.337,289.271l-289.358,0c-0.071,-159.791 -129.55,-289.271 -289.359,-289.271c-159.791,0 -289.341,129.48 -289.375,289.271l-289.358,0c-0.017,-159.791 -129.546,-289.271 -289.338,-289.271c-159.791,0 -289.325,129.48 -289.358,289.271l-289.358,0c-0.017,-159.791 -129.55,-289.271 -289.342,-289.271c-159.792,0 -289.321,129.48 -289.358,289.271l-289.354,0c-0.021,-159.791 -129.55,-289.271 -289.342,-289.271c-159.792,0 -289.325,129.48 -289.358,289.271l-289.359,0c-0.016,-159.791 -129.546,-289.271 -289.337,-289.271c-159.792,0 -289.325,129.48 -289.359,289.271l-289.358,0c-0.017,-159.791 -129.55,-289.271 -289.342,-289.271c-159.791,0 -289.32,129.48 -289.358,289.271l-289.354,0c-0.021,-159.791 -129.55,-289.271 -289.342,-289.271c-159.791,0 -289.325,129.48 -289.358,289.271l-289.217,0c-0.021,-159.791 -129.566,-289.337 -289.358,-289.337l-0.104,0l-0,-289.359l0.104,0c159.808,0 289.358,-129.479 289.358,-289.358c-0,-159.792 -129.55,-289.342 -289.358,-289.342l-0.104,0l-0,-289.358l0.104,0c159.808,0 289.358,-129.512 289.358,-289.321c-0,-159.808 -129.55,-289.358 -289.358,-289.358l-0.104,0l-0,-289.342l0.104,0c159.808,0 289.358,-129.546 289.358,-289.354c-0,-159.812 -129.55,-289.358 -289.358,-289.358l-0.104,0l-0,-289.342l0.104,0c159.808,0 289.358,-129.55 289.358,-289.358c-0,-159.809 -129.55,-289.359 -289.358,-289.359l-0.104,0l-0,-289.337l0.104,0c159.808,0 289.358,-129.55 289.358,-289.358c-0,-159.809 -129.55,-289.359 -289.358,-289.359l-0.104,0l-0,-289.341l0.104,0c159.808,0 289.358,-129.546 289.358,-289.359c-0,-159.808 -129.55,-289.354 -289.358,-289.354l-0.104,0l-0,-289.341l0.104,0c159.808,0 289.358,-129.55 289.358,-289.359c-0,-159.808 -129.55,-289.358 -289.358,-289.358l-0.104,0l-0,-289.338l0.104,0c159.808,0 289.358,-129.55 289.358,-289.358c-0,-159.808 -129.55,-289.358 -289.358,-289.358l-0.104,0l-0,-289.342l0.104,0c159.808,0 289.358,-129.546 289.358,-289.358c-0,-159.809 -129.55,-289.338 -289.358,-289.338l-0.104,0l-0,-289.341c5.483,-0.017 10.937,-0.155 16.316,-0.467c152.275,-8.404 273.163,-134.533 273.163,-288.908l-0,-0.034l289.2,0l-0,0.05c-0,159.809 129.55,289.359 289.358,289.359c159.809,0 289.342,-129.55 289.342,-289.359l-0,-0.05l289.354,0l-0,0.05c-0,159.809 129.55,289.359 289.358,289.359c159.809,0 289.342,-129.55 289.342,-289.359l-0,-0.05l289.358,0l-0,0.05c-0,159.809 129.546,289.359 289.359,289.359c159.808,0 289.337,-129.55 289.337,-289.359l-0,-0.05l289.359,0l-0,0.05c-0,159.809 129.55,289.359 289.358,289.359c159.808,0 289.342,-129.55 289.342,-289.359l-0,-0.05l289.354,0l-0,0.05c-0,159.809 129.55,289.359 289.358,289.359c159.808,0 289.342,-129.55 289.342,-289.359l-0,-0.05l289.358,0l-0,0.05c-0,159.809 129.546,289.359 289.358,289.359c159.809,0 289.338,-129.55 289.338,-289.359l-0,-0.05l289.358,0l-0,0.05c-0,159.809 129.583,289.359 289.375,289.359c159.809,0 289.359,-129.55 289.359,-289.359l-0.001,-0.05l289.359,0l-0,0.05c-0,159.809 129.546,289.359 289.341,289.359c159.809,0 289.355,-129.55 289.355,-289.359l-0,-0.05l289.358,0l-0,0.05c-0,159.809 129.55,289.359 289.342,289.359c159.808,0 289.358,-129.55 289.358,-289.359l-0,-0.05l289.358,0Z" style="fill:#f3f4f6;"/><path d="M9837.96,1446.75l72.325,0l-0,-72.325l-72.325,0l-0,72.325Zm289.338,289.408l72.346,0l-0,-72.341l-72.346,0l-0,72.341Zm-0,289.325l-0,72.342l72.346,-0.017l-0,-72.325l-72.346,0Zm-0,578.713l72.346,0l-0,-72.325l-72.346,-0.017l-0,72.342Zm-0,289.342l-0,72.345l72.346,-0.02l-0,-72.325l-72.346,-0Zm-0,578.716l72.346,-0l-0,-72.329l-72.346,-0.017l-0,72.346Zm-0,289.338l-0,72.346l72.346,-0.017l-0,-72.329l-72.346,-0Zm-0,578.716l72.346,-0l-0,-72.325l-72.346,-0.02l-0,72.345Zm-0,289.342l-0,72.342l72.346,-0.017l-0,-72.325l-72.346,-0Zm-0,578.713l72.346,-0l-0,-72.325l-72.346,-0.017l-0,72.342Zm-0,289.341l-0,72.342l72.346,-0.017l-0,-72.325l-72.346,-0Zm-0,578.717l72.346,-0l-0,-72.329l-72.346,-0.017l-0,72.346Zm-0,289.337l-0,72.346l72.346,-0.016l-0,-72.329l-72.346,0l-0,-0.001Zm-0,578.716l72.346,0l-0,-72.325l-72.346,-0.021l-0,72.346Zm-0,289.342l-0,72.342l72.346,-0.017l-0,-72.325l-72.346,0Zm-0,578.712l72.346,0l-0,-72.325l-72.346,-0.016l-0,72.341Zm-0,289.342l-0,72.342l72.346,-0.017l-0,-72.325l-72.346,-0Zm-0,578.679l72.346,-0l-0,-72.292l-72.346,-0.016l-0,72.308Zm-0,289.358l-0,72.325l72.346,-0l-0,-72.325l-72.346,-0Zm-0,578.7l72.346,-0l-0,-72.258l-72.346,-0.087l-0,72.345Zm-0,289.355l-0,72.329l72.346,-0l-0,-72.329l-72.346,-0Zm-25.817,1.145l6.354,72.05l-6.354,-72.05Zm-19.321,2.396l11.146,71.479l0.071,-0l-11.217,-71.479Zm-244.2,285.8l-0,72.346l72.254,-0l0.071,-72.346l-72.325,-0Zm-289.358,-0l-72.346,-0l-0,72.346l72.346,-0l-0,-72.346Zm-578.7,-0l-0,72.346l72.258,-0l0.071,-72.346l-72.329,-0Zm-289.358,-0l-72.342,-0l-0,72.346l72.342,-0l-0,-72.346Zm-578.696,-0l-0,72.346l72.325,-0l-0,-72.346l-72.325,-0Zm-289.358,-0l-72.342,-0l-0,72.346l72.342,-0l-0,-72.346Zm-578.734,-0l-0,72.346l72.292,-0l0.071,-72.346l-72.363,-0Zm-289.358,-0l-72.325,-0l-0,72.346l72.325,-0l-0,-72.346Zm-578.696,-0l-0,72.346l72.325,-0l0.017,-72.346l-72.342,-0Zm-289.358,-0l-72.325,-0l-0,72.346l72.325,-0l-0,-72.346Zm-578.696,-0l-0,72.346l72.325,-0l0.017,-72.346l-72.342,-0Zm-289.358,-0l-72.33,-0l-0,72.346l72.33,-0l-0,-72.346Zm-578.7,-0l-0,72.346l72.329,-0l0.016,-72.346l-72.345,-0Zm-289.359,-0l-72.325,-0l-0,72.346l72.325,-0l-0,-72.346Zm-578.696,-0l-0,72.346l72.325,-0l0.017,-72.346l-72.342,-0Zm-289.358,-0l-72.325,-0l-0,72.346l72.325,-0l-0,-72.346Zm-578.696,-0l-0,72.346l72.325,-0l0.017,-72.346l-72.342,-0Zm-289.358,-0l-72.329,-0l0,72.346l72.329,-0l0,-72.346Zm-578.7,-0l0,72.346l72.329,-0l0.017,-72.346l-72.346,-0Zm-289.217,-0l-72.346,-0l0.017,72.346l72.329,-0l0,-72.346Zm-289.462,-289.341l-72.325,0.07l0,72.259l72.325,-0l0,-72.329Zm0,-289.355l0,-72.345l-72.325,-0l0,72.345l72.325,-0Zm0,-578.7l-72.325,-0l0,72.325l72.325,-0l0,-72.325Zm0,-289.358l0,-72.308l-72.325,-0l0,72.308l72.325,-0Zm0,-578.679l-72.325,-0l0,72.342l72.325,-0l0,-72.342Zm0,-289.342l0,-72.341l-72.325,-0l0,72.341l72.325,-0Zm0,-578.712l-72.325,-0l0,72.341l72.325,-0l0,-72.341Zm0,-289.342l0,-72.346l-72.325,-0l0,72.346l72.325,-0Zm0,-578.717l-72.325,-0l0,72.346l72.325,-0l0,-72.346Zm0,-289.337l0,-72.346l-72.325,-0l0,72.346l72.325,-0Zm0,-578.717l-72.325,-0l0,72.342l72.325,-0l0,-72.342Zm0,-289.341l0,-72.342l-72.325,-0l0,72.342l72.325,-0Zm0,-578.713l-72.325,-0l0,72.342l72.325,-0l0,-72.342Zm0,-289.342l0,-72.345l-72.325,-0l0,72.345l72.325,-0Zm0,-578.716l-72.325,-0l0,72.346l72.325,-0l0,-72.346Zm0,-289.338l0,-72.346l-72.325,-0l0,72.346l72.325,-0Zm0,-578.716l-72.325,-0l0,72.341l72.325,-0l0,-72.341Zm0,-289.342l0,-72.342l-72.325,-0l0,72.342l72.325,-0Zm0,-578.696l-72.325,-0l0,72.325l72.325,-0l0,-72.325Zm0,-289.342l0,-72.341l-72.325,-0l0,72.341l72.325,-0Zm16.321,-0.466l-3.98,-72.225l-0.033,-0l4.013,72.225Zm273.158,-288.942l0,-72.329l-72.346,-0l0,72.329l72.346,-0Zm289.2,-0l72.346,-0l0,-72.329l-72.346,-0l0,72.329Zm578.7,-0l0,-72.329l-72.329,-0l0,72.329l72.329,-0Zm289.358,-0l72.342,-0l0,-72.329l-72.342,-0l0,72.329Zm578.696,-0l0,-72.329l-72.325,-0l0,72.329l72.325,-0Zm289.358,-0l72.342,-0l0,-72.329l-72.342,-0l0,72.329Zm578.696,-0l0,-72.329l-72.325,-0l0,72.329l72.325,-0Zm289.359,-0l72.345,-0l0,-72.329l-72.345,-0l0,72.329Zm289.358,289.408l0,-72.341l0,72.341Zm289.342,-289.408l0,-72.329l-72.33,-0l0,72.329l72.33,-0Zm289.358,-0l72.342,-0l0,-72.329l-72.342,-0l0,72.329Zm578.696,-0l0,-72.329l-72.325,-0l0,72.329l72.325,-0Zm289.358,-0l72.342,-0l0,-72.329l-72.342,-0l0,72.329Zm289.358,289.408l0,72.325l0,-72.325Zm289.338,-289.408l0,-72.329l-72.325,-0l0,72.329l72.325,-0Zm289.358,-0l72.363,-0l0,-72.329l-72.363,-0l0,72.329Zm578.734,-0l0,-72.329l-72.342,-0l0,72.329l72.342,-0Zm289.358,-0l72.325,-0l0,-72.329l-72.325,-0l0,72.329Zm578.696,-0l0,-72.329l-72.342,-0l0,72.329l72.342,-0Zm289.358,-0l72.329,-0l0,-72.329l-72.329,-0l0,72.329Zm578.7,-0l0,-72.329l-72.346,-0l0,72.329l72.346,-0Zm217.013,-0l-0.001,0.05l144.671,-0l0,-0.05l-144.671,-0l0.001,-0Zm0.001,0.05c-0.001,199.758 161.891,361.683 361.683,361.683l0,-144.666c-119.858,-0 -217.013,-97.171 -217.013,-217.017l-144.67,-0Zm361.683,361.683l0,-144.666l0,144.666Zm-72.325,-72.325l0,289.325l144.671,-0l0,-289.325l-144.671,-0Zm-144.6,578.68c0,-119.825 97.133,-216.98 216.925,-217.013l0,-144.671c-199.721,0.054 -361.613,161.963 -361.613,361.684l144.688,-0Zm216.942,217.016c-119.792,-0.037 -216.925,-97.187 -216.925,-217.016l-144.688,-0c0,199.725 161.892,361.633 361.612,361.687l0.001,-144.671Zm-72.326,72.342l0,289.342l144.671,-0l0,-289.342l-144.671,-0Zm72.325,217.017c-199.72,0.05 -361.612,161.958 -361.612,361.683l144.671,-0c0,-119.829 97.15,-216.979 216.941,-217.017l-0,-144.666Zm-361.612,361.683c-0,199.721 161.892,361.629 361.612,361.683l-0,-144.671c-119.791,-0.033 -216.925,-97.187 -216.925,-217.012l-144.687,-0Zm289.287,289.358l-0,289.338l144.671,-0l-0,-289.338l-144.671,-0Zm72.325,217.013c-199.72,0.05 -361.612,161.962 -361.612,361.683l144.671,-0c-0,-119.825 97.15,-216.979 216.941,-217.012l-0,-144.671Zm-361.612,361.683c-0,199.721 161.892,361.633 361.612,361.683l-0,-144.67c-119.791,-0.034 -216.941,-97.188 -216.941,-217.013l-144.671,-0Zm289.287,289.358l-0,289.342l144.671,-0l-0,-289.342l-144.671,-0Zm-144.616,578.696c-0,-119.825 97.15,-216.979 216.941,-217.012l-0,-144.671c-199.72,0.054 -361.612,161.962 -361.612,361.683l144.671,-0Zm216.941,217.017c-119.791,-0.038 -216.941,-97.188 -216.941,-217.017l-144.671,-0c-0,199.725 161.892,361.634 361.612,361.688l-0,-144.671Zm-72.325,72.342l-0,289.341l144.671,-0l-0,-289.341l-144.671,-0Zm72.325,217.016c-199.72,0.05 -361.612,161.959 -361.612,361.684l144.671,-0c-0,-119.83 97.15,-216.98 216.941,-217.017l-0,-144.667Zm-361.612,361.684c-0,199.72 161.892,361.629 361.612,361.683l-0,-144.671c-119.791,-0.033 -216.941,-97.187 -216.941,-217.012l-144.671,-0Zm289.287,289.358l-0,289.337l144.671,-0l-0,-289.337l-144.671,-0Zm-144.616,578.696c-0,-119.825 97.15,-216.979 216.941,-217.013l-0,-144.671c-199.72,0.05 -361.612,161.963 -361.612,361.684l144.671,-0Zm216.941,217.012c-119.791,-0.033 -216.941,-97.187 -216.941,-217.012l-144.671,-0c-0,199.721 161.892,361.633 361.612,361.683l-0,-144.671Zm-72.325,72.346l-0,289.342l144.671,-0l-0,-289.342l-144.671,-0Zm-144.616,578.696c-0,-119.825 97.15,-216.979 216.941,-217.013l-0,-144.67c-199.72,0.054 -361.612,161.962 -361.612,361.683l144.671,-0Zm216.941,217.017c-119.791,-0.038 -216.925,-97.188 -216.925,-217.017l-144.687,-0c-0,199.725 161.892,361.633 361.612,361.687l-0,-144.67Zm-72.325,72.341l-0,289.342l144.671,-0l-0,-289.342l-144.671,-0Zm-144.6,578.7c-0,-119.829 97.134,-216.979 216.925,-217.016l-0,-144.667c-199.72,0.05 -361.612,161.958 -361.612,361.683l144.687,-0Zm216.946,217.013c-119.791,-0.034 -216.929,-97.188 -216.929,-217.013l-144.687,-0c-0,199.721 161.891,361.667 361.616,361.667l-0,-144.654Zm-72.329,72.308l-0,289.358l144.671,-0l-0,-289.358l-144.671,-0Zm72.329,217.017c-199.725,0.066 -361.616,162.029 -361.616,361.683l144.67,0c-0,-119.792 97.155,-216.929 216.946,-217.017l-0,-144.666Zm-361.616,361.683c-0,199.738 161.891,361.7 361.616,361.7l-0,-144.687c-119.791,0 -216.929,-97.134 -216.929,-217.013l-144.687,0Zm289.287,289.358l-0,289.355l144.671,0l-0,-289.355l-144.671,0Zm-0,289.355l144.671,0l-144.671,0Zm72.329,-72.342c-10.854,0 -21.633,0.504 -32.258,1.442l12.796,144.095c6.441,-0.57 12.879,-0.866 19.462,-0.866l-0,-144.671Zm-32.258,1.442c-8.108,0.729 -16.129,1.733 -24.167,2.966l22.5,142.954c4.775,-0.729 9.617,-1.391 14.463,-1.825l-12.796,-144.095Zm-24.096,2.966c-173.021,27.138 -305.333,176.65 -305.333,357.275l144.671,0c-0,-108.212 79.358,-198.054 183.02,-214.321l-22.358,-142.954Zm-232.987,284.95l-289.359,0l-0,144.671l289.359,0l-0,-144.671Zm-578.717,-144.6c119.792,0 216.946,97.063 217.017,216.925l144.687,0c-0.087,-199.721 -161.979,-361.612 -361.704,-361.612l-0,144.687Zm-217.013,216.942c-0,-119.858 97.155,-216.925 217.013,-216.925l-0,-144.688c-199.792,0 -361.683,161.892 -361.683,361.613l144.67,0Zm-72.325,-72.325l-289.358,0l-0,144.671l289.358,0l-0,-144.671Zm-217.016,72.325c-0.088,-199.721 -161.979,-361.613 -361.7,-361.613l-0,144.671c119.791,0 216.946,97.084 217.012,216.942l144.688,0Zm-361.7,-361.613c-199.792,0 -361.684,161.892 -361.684,361.613l144.671,0c-0,-119.858 97.15,-216.925 217.013,-216.925l-0,-144.688Zm-289.342,289.288l-289.358,0l-0,144.671l289.358,0l-0,-144.671Zm-217.012,72.325c-0.088,-199.721 -161.98,-361.613 -361.7,-361.613l-0,144.671c119.791,0 216.941,97.084 217.012,216.942l144.688,0Zm-361.7,-361.613c-199.792,0 -361.688,161.892 -361.721,361.613l144.704,0c-0,-119.858 97.154,-216.942 217.017,-216.942l-0,-144.671Zm-289.375,289.288l-289.359,0l-0,144.671l289.359,0l-0,-144.671Zm-578.7,-144.617c119.845,0 216.995,97.084 217.012,216.942l144.671,0c-0.033,-199.721 -161.942,-361.613 -361.683,-361.613l-0,144.671Zm-217.013,216.942c0.017,-119.858 97.171,-216.942 217.013,-216.942l-0,-144.671c-199.738,0 -361.667,161.892 -361.7,361.613l144.687,0Zm-72.346,-72.325l-289.358,0l-0,144.671l289.358,0l-0,-144.671Zm-217.012,72.325c-0.034,-199.721 -161.946,-361.613 -361.684,-361.613l-0,144.671c119.842,0 216.996,97.084 217.013,216.942l144.671,0Zm-361.684,-361.613c-199.741,0 -361.666,161.892 -361.704,361.613l144.688,0c0.021,-119.858 97.171,-216.942 217.016,-216.942l-0,-144.671Zm-289.358,289.288l-289.358,0l-0,144.671l289.358,0l-0,-144.671Zm-578.7,-144.617c119.846,0 217,97.084 217.017,216.942l144.671,0c-0.038,-199.721 -161.946,-361.613 -361.688,-361.613l-0,144.671Zm-217.012,216.942c0.016,-119.858 97.17,-216.942 217.012,-216.942l-0,-144.671c-199.737,0 -361.667,161.892 -361.7,361.613l144.688,0Zm-72.342,-72.325l-289.358,0l-0,144.671l289.358,0l-0,-144.671Zm-578.7,-144.617c119.846,0 216.996,97.084 217.012,216.942l144.671,0c-0.033,-199.721 -161.941,-361.613 -361.683,-361.613l-0,144.671Zm-217.013,216.942c0.017,-119.858 97.171,-216.925 217.013,-216.925l-0,-144.688c-199.738,0 -361.667,161.892 -361.7,361.613l144.687,0Zm-72.345,-72.325l-289.359,0l-0,144.671l289.359,0l-0,-144.671Zm-578.696,-144.6c119.841,0 216.996,97.067 217.012,216.925l144.671,0c-0.033,-199.721 -161.946,-361.613 -361.683,-361.613l-0,144.688Zm-217.017,216.942c0.021,-119.859 97.171,-216.925 217.017,-216.925l-0,-144.688c-199.742,0 -361.667,161.892 -361.704,361.613l144.687,0.004l-0,-0.004Zm-72.342,-72.33l-289.358,0l-0,144.671l289.358,0l-0,-144.671Zm-217.012,72.325c-0.038,-199.72 -161.946,-361.612 -361.688,-361.612l-0,144.671c119.846,0 217,97.083 217.017,216.941l144.671,0Zm-361.688,-361.612c-199.737,0 -361.666,161.892 -361.7,361.612l144.688,0c0.017,-119.858 97.171,-216.925 217.012,-216.925l-0,-144.687Zm-289.354,289.287l-289.221,0l-0,144.671l289.221,0l-0,-144.671Zm-216.896,72.325c-0.016,-199.72 -161.925,-361.683 -361.683,-361.683l-0,144.671c119.846,0 217.017,97.154 217.017,217.012l144.666,0Zm-361.683,-361.683l-0.104,0l-0,144.671l0.104,0l-0,-144.671Zm72.242,72.346l-144.671,0l-0,0.071l144.671,-0.071Zm-0,0l-0,-289.358l-144.671,0l-0,289.358l144.671,0Zm-72.346,-217.017l0.104,0l-0,-144.683l-0.104,0l-0,144.683Zm0.104,-0c199.758,-0 361.683,-161.891 361.683,-361.7l-144.666,-0c-0,119.863 -97.154,217.017 -217.017,217.017l-0,144.683Zm361.683,-361.7c-0,-199.721 -161.925,-361.683 -361.683,-361.683l-0,144.671c119.863,0 217.017,97.221 217.017,217.012l144.666,-0Zm-361.683,-361.683l-0.104,0l-0,144.671l0.104,0l-0,-144.671Zm72.242,72.346l-0,-289.359l-144.671,0l-0,289.359l144.671,0Zm-72.242,-361.667l-0.104,0l-0,144.65l0.104,0l-0,-144.65Zm217.017,-217.017c-0,119.863 -97.154,217.017 -217.017,217.017l-0,144.65c199.758,0 361.683,-161.908 361.683,-361.667l-144.666,0Zm-217.017,-217.012c119.863,0 217.017,97.171 217.017,217.012l144.666,0c-0,-199.754 -161.925,-361.683 -361.683,-361.683l-0,144.671Zm-0.104,0l0.104,0l-0,-144.671l-0.104,0l-0,144.671Zm72.346,-72.346l-0,-289.337l-144.671,0l-0,289.337l144.671,0Zm-72.242,-361.683l-0.104,0l-0,144.671l0.104,0l-0,-144.671Zm217.017,-217.013c-0,119.863 -97.154,217.013 -217.017,217.013l-0,144.671c199.758,0 361.683,-161.925 361.683,-361.684l-144.666,0Zm-217.017,-217.012c119.863,0 217.017,97.166 217.017,217.012l144.666,0c-0,-199.758 -161.925,-361.683 -361.683,-361.683l-0,144.671Zm-0.104,0l0.104,0l-0,-144.671l-0.104,0l-0,144.671Zm72.346,-72.346l-0,-289.342l-144.671,0l-0,289.342l144.671,0Zm-72.242,-361.683l-0.104,0l-0,144.67l0.104,0l-0,-144.67Zm217.017,-217.013c-0,119.858 -97.154,217.013 -217.017,217.013l-0,144.67c199.758,0 361.683,-161.929 361.683,-361.683l-144.666,0Zm-217.017,-217.017c119.863,0 217.017,97.171 217.017,217.017l144.666,0c-0,-199.758 -161.925,-361.687 -361.683,-361.687l-0,144.67Zm-0.104,0l0.104,0l-0,-144.67l-0.104,0l-0,144.67Zm72.346,-72.341l-0,-289.342l-144.671,0l-0,289.342l144.671,0Zm-72.346,-217.017l0.104,0l-0,-144.667l-0.104,0l-0,144.667Zm0.104,0c199.758,0 361.683,-161.925 361.683,-361.683l-144.666,0c-0,119.862 -97.154,217.016 -217.017,217.016l-0,144.667Zm361.683,-361.683c-0,-199.754 -161.925,-361.684 -361.683,-361.684l-0,144.671c119.863,0 217.017,97.171 217.017,217.013l144.666,0Zm-361.683,-361.684l-0.104,0l-0,144.671l0.104,0l-0,-144.671Zm72.242,72.325l-0,-289.337l-144.671,0l-0,289.337l144.671,0Zm-72.242,-361.683l-0.104,0l-0,144.671l0.104,0l-0,-144.671Zm217.017,-217.012c-0,119.862 -97.154,217.012 -217.017,217.012l-0,144.671c199.758,0 361.683,-161.925 361.683,-361.683l-144.666,0Zm-217.017,-217.013c119.863,0 217.017,97.167 217.017,217.013l144.666,0c-0,-199.759 -161.925,-361.684 -361.683,-361.684l-0,144.671Zm-0.104,0l0.104,0l-0,-144.671l-0.104,0l-0,144.671Zm72.346,-72.346l-0,-289.341l-144.671,0l-0,289.341l144.671,0Zm-72.346,-217.012l0.104,0l-0,-144.671l-0.104,0l-0,144.671Zm0.104,0c199.758,0 361.683,-161.929 361.683,-361.684l-144.666,0c-0,119.859 -97.154,217.013 -217.017,217.013l-0,144.671Zm361.683,-361.684c-0,-199.758 -161.925,-361.687 -361.683,-361.687l-0,144.671c119.863,0 217.017,97.171 217.017,217.016l144.666,0Zm-361.683,-361.687l-0.104,0l-0,144.671l0.104,0l-0,-144.671Zm72.242,72.329l-0,-289.342l-144.671,0l-0,289.342l144.671,0Zm-72.346,-217.017l0.104,0l-0,-144.666l-0.104,0l-0,144.666Zm0.104,0c199.758,0 361.683,-161.925 361.683,-361.683l-144.666,0c-0,119.863 -97.154,217.017 -217.017,217.017l-0,144.666Zm361.683,-361.683c-0,-199.754 -161.925,-361.683 -361.683,-361.683l-0,144.671c119.863,0 217.017,97.17 217.017,217.012l144.666,0Zm-361.683,-361.683l-0.104,0l-0,144.671l0.104,0l-0,-144.671Zm72.242,72.325l-0,-289.338l-144.671,0l-0,289.338l144.671,0Zm-72.242,-361.684l-0.104,0l-0,144.671l0.104,0l-0,-144.671Zm217.017,-217.012c-0,119.862 -97.154,217.012 -217.017,217.012l-0,144.671c199.758,0 361.683,-161.925 361.683,-361.683l-144.666,0Zm-217.017,-217.013c119.863,0 217.017,97.167 217.017,217.013l144.666,0c-0,-199.758 -161.925,-361.683 -361.683,-361.683l-0,144.67Zm-0.104,0l0.104,0l-0,-144.67l-0.104,0l-0,144.67Zm72.346,-72.345l-0,-289.342l-144.671,0l-0,289.342l144.671,0Zm-72.329,-216.996c6.808,0 13.595,-0.192 20.333,-0.554l-8.042,-144.463c-4.079,0.225 -8.175,0.346 -12.308,0.346l0.017,144.671Zm20.295,-0.554c190.4,-10.521 341.496,-168.163 341.496,-361.146l-144.671,0c-0,115.762 -90.662,210.379 -204.791,216.683l7.966,144.463Zm341.496,-361.146l-0,-0.038l-144.671,0l-0,0.038l144.671,0Zm-72.329,72.308l289.204,0l-0,-144.671l-289.204,0l-0,144.671Zm216.858,-72.346l-0,0.054l144.688,0l-0,-0.054l-144.688,0Zm-0,0.054c-0,199.755 161.946,361.684 361.7,361.684l-0,-144.671c-119.858,0 -217.012,-97.171 -217.012,-217.013l-144.688,0Zm361.7,361.684c199.759,0 361.688,-161.929 361.688,-361.684l-144.671,0c-0,119.842 -97.171,217.013 -217.017,217.013l-0,144.671Zm361.688,-361.684l-0,-0.054l-144.671,0l-0,0.054l144.671,0Zm-72.346,72.292l289.358,0l-0,-144.671l-289.358,0l-0,144.671Zm361.7,-72.292l-0,-0.054l-144.687,0l-0,0.054l144.687,0Zm217.017,217.013c-119.863,0 -217.017,-97.171 -217.017,-217.013l-144.687,0c-0,199.755 161.945,361.684 361.704,361.684l-0,-144.671Zm217.012,-217.013c-0,119.842 -97.171,217.013 -217.012,217.013l-0,144.671c199.754,0 361.683,-161.929 361.683,-361.684l-144.671,0Zm-0,-0.054l-0,0.054l144.671,0l-0,-0.054l-144.671,0Zm72.325,72.346l289.359,0l-0,-144.671l-289.359,0l-0,144.671Zm361.704,-72.292l-0,-0.054l-144.687,0l-0,0.054l144.687,0Zm217.013,217.013c-119.863,0 -217.013,-97.171 -217.013,-217.013l-144.687,0c-0,199.755 161.942,361.684 361.7,361.684l-0,-144.671Zm217.012,-217.013c-0,119.842 -97.166,217.013 -217.012,217.013l-0,144.671c199.758,0 361.683,-161.929 361.683,-361.684l-144.671,0Zm-0,-0.054l-0,0.054l144.671,0l-0,-0.054l-144.671,0Zm72.33,72.346l289.358,0l-0,-144.671l-289.358,0l-0,144.671Zm361.7,-72.292l-0,-0.054l-144.688,0l-0,0.054l144.688,0Zm217.012,217.013c-119.858,0 -217.012,-97.171 -217.012,-217.013l-144.688,0c-0,199.755 161.946,361.684 361.7,361.684l-0,-144.671Zm217.017,-217.013c-0,119.842 -97.171,217.013 -217.017,217.013l-0,144.671c199.758,0 361.688,-161.929 361.688,-361.684l-144.671,0Zm-0,-0.054l-0,0.054l144.671,0l-0,-0.054l-144.671,0Zm72.325,72.346l289.358,0l-0,-144.671l-289.358,0l-0,144.671Zm217.012,-72.346l-0,0.054l144.688,0l-0,-0.054l-144.688,0Zm-0,0.054c-0,199.755 161.946,361.684 361.704,361.684l-0,-144.671c-119.862,0 -217.016,-97.171 -217.016,-217.013l-144.688,0Zm361.704,361.684c199.755,0 361.684,-161.929 361.684,-361.684l-144.671,0c-0,119.842 -97.171,217.013 -217.013,217.013l-0,144.671Zm361.684,-361.684l-0,-0.054l-144.671,0l-0,0.054l144.671,0Zm-72.346,72.292l289.358,0l-0,-144.671l-289.358,0l-0,144.671Zm361.704,-72.292l-0,-0.054l-144.687,0l-0,0.054l144.687,0Zm217.013,217.013c-119.863,0 -217.013,-97.171 -217.013,-217.013l-144.687,0c-0,199.755 161.941,361.684 361.7,361.684l-0,-144.671Zm217.012,-217.013c-0,119.842 -97.167,217.013 -217.012,217.013l-0,144.671c199.758,0 361.683,-161.929 361.683,-361.684l-144.671,0Zm-0,-0.054l-0,0.054l144.671,0l-0,-0.054l-144.671,0Zm72.329,72.346l289.359,0l-0,-144.671l-289.359,0l-0,144.671Zm217.013,-72.346l-0,0.054l144.704,0l-0,-0.054l-144.704,0Zm-0,0.054c-0,199.755 161.929,361.684 361.721,361.684l-0,-144.671c-119.863,0 -217.017,-97.171 -217.017,-217.013l-144.704,0Zm361.721,361.684c199.72,0 361.7,-161.929 361.7,-361.684l-144.688,0c-0,119.842 -97.221,217.013 -217.012,217.013l-0,144.671Zm361.7,-361.684l-0,-0.054l-144.688,0l-0,0.054l144.688,0Zm-72.346,72.292l289.358,0l-0,-144.671l-289.358,0l-0,144.671Zm217.016,-72.346l-0,0.054l144.671,0l-0,-0.054l-144.671,0Zm-0,0.054c-0,199.755 161.892,361.684 361.684,361.684l-0,-144.671c-119.863,0 -217.013,-97.171 -217.013,-217.013l-144.671,0Zm361.684,361.684c199.721,0 361.7,-161.929 361.7,-361.684l-144.688,0c-0,119.842 -97.15,217.013 -217.012,217.013l-0,144.671Zm361.7,-361.684l-0,-0.054l-144.688,0l-0,0.054l144.688,0Zm-72.342,72.292l289.358,0l-0,-144.671l-289.358,0l-0,144.671Zm361.683,-72.292l0,-0.054l-144.67,0l0,0.054l144.67,0Zm217.013,217.013c-119.858,0 -217.013,-97.171 -217.013,-217.013l-144.67,0c0,199.755 161.891,361.684 361.683,361.684l0,-144.671Zm217.017,-217.013c0,119.842 -97.225,217.013 -217.017,217.013l0,144.671c199.725,0 361.704,-161.929 361.704,-361.684l-144.687,0Zm0,-0.054l0,0.054l144.687,0l0,-0.054l-144.687,0Zm72.341,72.346l289.359,0l0,-144.671l-289.359,0l0,144.671Z" style="fill:#e2e0e7;fill-rule:nonzero;"/></g><path d="M2350.99,2604.17c-0,-139.827 113.35,-253.177 253.177,-253.177l6365.75,0c139.827,0 253.178,113.35 253.178,253.177l-0,6365.75c-0,139.826 -113.351,253.177 -253.178,253.177l-6365.75,0c-139.827,0 -253.178,-113.351 -253.178,-253.177l-0,-6365.75l0.001,0Z" style="fill:#fff;fill-rule:nonzero;stroke:#e2e0e7;stroke-width:72.4px;"/><path d="M8680.57,3182.88c0,-159.698 -129.654,-289.352 -289.352,-289.352l-5208.34,0c-159.698,0 -289.352,129.654 -289.352,289.352l0,5208.34c0,159.698 129.654,289.352 289.352,289.352l5208.34,-0c159.698,-0 289.352,-129.654 289.352,-289.352l0,-5208.34Z" style="fill:#0e0333;"/><path d="M8680.57,3182.88c0,-159.698 -129.654,-289.352 -289.352,-289.352l-5208.34,0c-159.698,0 -289.352,129.654 -289.352,289.352l0,5208.34c0,159.698 129.654,289.352 289.352,289.352l5208.34,-0c159.698,-0 289.352,-129.654 289.352,-289.352l0,-5208.34Zm-150,0l0,5208.34c0,76.91 -62.442,139.352 -139.352,139.352l-5208.34,-0c-76.91,-0 -139.352,-62.442 -139.352,-139.352c0,-0 0,-5208.34 0,-5208.34c0,-76.91 62.442,-139.352 139.352,-139.352c0,0 5208.34,0 5208.34,0c76.91,0 139.352,62.442 139.352,139.352Z" style="fill:#00e2ac;"/><g><path d="M6562.98,6396.51c-22.726,-18.439 -58.749,-48.027 -101.2,-82.333c81.047,-117.069 124.784,-256.007 125.215,-397.517c0.857,-141.939 -41.169,-280.875 -120.928,-399.231l0.428,-0.428l98.629,-79.761c24.444,-16.295 28.303,-33.875 10.721,-57.462c-23.156,-30.015 -48.029,-58.748 -74.615,-85.335c-145.37,-148.37 -338.768,-240.138 -545.887,-259.864l-0,-169.385c0.43,-21.441 -7.291,-42.453 -21.871,-58.749c-14.58,-15.865 -34.733,-26.156 -56.604,-27.87c-11.578,-0.859 -23.155,0.855 -33.875,4.715c-10.721,3.859 -21.013,9.863 -29.16,17.582c-8.576,8.148 -15.439,17.583 -19.727,28.304c-4.716,10.29 -6.862,21.87 -6.862,33.445l0,171.958c-72.041,6.862 -142.795,22.299 -210.549,46.312l0,-215.697c0,-21.441 -7.718,-42.453 -22.3,-58.749c-14.579,-15.865 -34.734,-26.156 -56.604,-27.87c-11.576,-0.859 -23.155,0.855 -33.876,4.715c-10.72,3.859 -20.582,9.863 -29.159,17.582c-8.576,8.148 -15.007,17.583 -19.727,28.304c-4.716,10.29 -6.86,21.87 -6.86,33.445l0,298.459c-127.788,78.476 -233.277,187.823 -307.036,318.183c-73.756,130.363 -113.207,277.019 -114.065,426.677c-3.86,489.282 404.806,889.8 894.946,889.8l654.808,0c12.007,0 23.585,-4.286 32.591,-12.006c9.004,-7.72 15.008,-18.44 17.151,-30.017l0.431,-305.319c0.428,-9.865 -2.145,-19.726 -6.005,-28.733c-4.288,-9.003 -10.291,-17.151 -18.01,-23.155Zm-433.106,-625.22l201.543,-152.23c56.604,87.907 86.622,189.537 86.622,293.739c0,104.632 -30.448,207.122 -87.907,295.458c-91.769,-73.326 -177.962,-141.509 -198.115,-157.805c22.726,-42.882 34.305,-90.909 34.305,-139.795c-0.43,-48.884 -12.864,-96.485 -36.448,-139.367Zm289.023,856.354l-538.596,0c-395.803,0 -726.85,-323.331 -724.707,-718.272c0.429,-102.919 23.158,-204.548 66.896,-298.031c43.74,-93.482 106.775,-176.243 185.679,-242.71l0,163.379c-0.43,21.868 7.719,42.883 22.3,58.748c14.578,16.296 34.304,26.158 56.175,28.302c11.577,0.429 23.155,-0.859 33.875,-4.716c11.15,-3.861 21.013,-9.863 29.16,-18.01c8.578,-7.721 15.437,-17.154 19.727,-27.874c4.716,-10.721 7.289,-21.87 7.289,-33.45l0,-272.728c92.624,-42.023 192.969,-63.894 294.599,-63.464c188.253,-0 346.916,62.178 474.704,180.96l-343.485,269.729c-45.455,-22.3 -95.197,-32.591 -145.37,-30.018c-50.172,2.144 -99.058,17.58 -141.511,43.741c-42.882,26.586 -78.046,63.464 -102.489,107.631c-24.013,43.74 -36.878,93.055 -36.878,143.226c0.43,50.172 13.294,99.487 38.166,143.228c24.443,43.738 60.036,80.616 102.919,106.775c42.881,26.157 91.764,40.739 141.938,42.882c50.172,2.144 99.914,-8.576 144.941,-31.305l-4.289,3.86l418.957,322.044l0,126.073Zm-421.101,-714.414c-0,24.872 -7.718,49.315 -21.441,69.896c-13.723,20.586 -33.448,36.878 -56.603,46.314c-23.156,9.432 -48.458,12.006 -72.901,7.289c-24.871,-4.716 -47.169,-16.725 -64.752,-34.305c-17.581,-18.01 -30.016,-40.308 -34.735,-64.751c-4.716,-24.443 -2.143,-49.742 7.292,-72.9c9.433,-23.155 25.728,-42.453 46.311,-56.603c21.013,-13.722 45.455,-21.013 70.327,-21.013c33.45,0 65.611,13.293 89.195,36.881c24.014,23.583 37.307,55.745 37.307,89.192Z" style="fill:#fff;fill-rule:nonzero;"/></g><g><g><text x="3569.46px" y="7702.75px" style="font-family:'MiriamLibre-Regular', 'Miriam Libre';font-size:583.334px;fill:#fff;">Po</text><text x="4220.45px" y="7702.75px" style="font-family:'MiriamLibre-Regular', 'Miriam Libre';font-size:583.334px;fill:#fff;">s<tspan x="4491.7px 4768.78px 5093.7px 5364.95px 5639.11px 5862.53px " y="7702.75px 7702.75px 7702.75px 7702.75px 7702.75px 7702.75px ">sessio</tspan>n o</text><text x="7015.78px" y="7702.75px" style="font-family:'MiriamLibre-Regular', 'Miriam Libre';font-size:583.334px;fill:#fff;">f A</text><text x="7755.45px" y="7702.75px" style="font-family:'MiriamLibre-Regular', 'Miriam Libre';font-size:583.334px;fill:#fff;">t</text></g><g><text x="4128.86px" y="8286.08px" style="font-family:'MiriamLibre-Regular', 'Miriam Libre';font-size:583.334px;fill:#fff;">L</text><text x="4399.53px" y="8286.08px" style="font-family:'MiriamLibre-Regular', 'Miriam Libre';font-size:583.334px;fill:#fff;">e<tspan x="4718.61px 5042.36px 5313.61px " y="8286.08px 8286.08px 8286.08px ">ast</tspan> 10 G</text><text x="6836.11px" y="8286.08px" style="font-family:'MiriamLibre-Regular', 'Miriam Libre';font-size:583.334px;fill:#fff;">T<tspan x="7135.95px " y="8286.08px ">C</tspan></text></g></g></svg>