<?xml version="1.0" encoding="UTF-8" standalone="no"?><!DOCTYPE svg PUBLIC "-//W3C//DTD SVG 1.1//EN" "http://www.w3.org/Graphics/SVG/1.1/DTD/svg11.dtd"><svg width="100%" height="100%" viewBox="0 0 11584 11584" version="1.1" xmlns="http://www.w3.org/2000/svg" xmlns:xlink="http://www.w3.org/1999/xlink" xml:space="preserve" xmlns:serif="http://www.serif.com/" style="fill-rule:evenodd;clip-rule:evenodd;"><g><path d="M9837.96,1446.75l-0,0.05c-0,159.813 129.546,289.358 289.338,289.358l-0,289.325c-159.792,0.05 -289.271,129.584 -289.271,289.359c-0,159.771 129.479,289.304 289.271,289.354l-0,289.342c-159.792,0.05 -289.271,129.583 -289.271,289.358c-0,159.775 129.479,289.304 289.271,289.358l-0,289.338c-159.792,0.054 -289.271,129.583 -289.271,289.358c-0,159.775 129.479,289.304 289.271,289.359l-0,289.341c-159.792,0.05 -289.271,129.583 -289.271,289.358c-0,159.771 129.479,289.305 289.271,289.355l-0,289.341c-159.792,0.054 -289.271,129.584 -289.271,289.359c-0,159.775 129.479,289.304 289.271,289.358l-0,289.337c-159.792,0.055 -289.271,129.584 -289.271,289.359c-0,159.775 129.479,289.308 289.271,289.358l-0,289.342c-159.792,0.05 -289.271,129.583 -289.271,289.358c-0,159.771 129.479,289.304 289.271,289.354l-0,289.342c-159.792,0.054 -289.271,129.583 -289.271,289.358c-0,159.775 129.479,289.304 289.271,289.321l-0,289.358c-159.792,0.071 -289.271,129.621 -289.271,289.342c-0,159.808 129.479,289.358 289.271,289.358l-0,289.359c-8.679,0 -17.359,0.433 -25.817,1.146c-6.508,0.587 -12.95,1.37 -19.321,2.395c-138.387,21.7 -244.2,141.334 -244.2,285.796l-289.358,0c-0.071,-159.791 -129.55,-289.271 -289.358,-289.271c-159.792,0 -289.342,129.48 -289.342,289.271l-289.358,0c-0.067,-159.791 -129.546,-289.271 -289.359,-289.271c-159.791,0 -289.337,129.48 -289.337,289.271l-289.358,0c-0.071,-159.791 -129.55,-289.271 -289.359,-289.271c-159.791,0 -289.341,129.48 -289.375,289.271l-289.358,0c-0.017,-159.791 -129.546,-289.271 -289.338,-289.271c-159.791,0 -289.325,129.48 -289.358,289.271l-289.358,0c-0.017,-159.791 -129.55,-289.271 -289.342,-289.271c-159.792,0 -289.321,129.48 -289.358,289.271l-289.354,0c-0.021,-159.791 -129.55,-289.271 -289.342,-289.271c-159.792,0 -289.325,129.48 -289.358,289.271l-289.359,0c-0.016,-159.791 -129.546,-289.271 -289.337,-289.271c-159.792,0 -289.325,129.48 -289.359,289.271l-289.358,0c-0.017,-159.791 -129.55,-289.271 -289.342,-289.271c-159.791,0 -289.32,129.48 -289.358,289.271l-289.354,0c-0.021,-159.791 -129.55,-289.271 -289.342,-289.271c-159.791,0 -289.325,129.48 -289.358,289.271l-289.217,0c-0.021,-159.791 -129.566,-289.337 -289.358,-289.337l-0.104,0l-0,-289.359l0.104,0c159.808,0 289.358,-129.479 289.358,-289.358c-0,-159.792 -129.55,-289.342 -289.358,-289.342l-0.104,0l-0,-289.358l0.104,0c159.808,0 289.358,-129.512 289.358,-289.321c-0,-159.808 -129.55,-289.358 -289.358,-289.358l-0.104,0l-0,-289.342l0.104,0c159.808,0 289.358,-129.546 289.358,-289.354c-0,-159.812 -129.55,-289.358 -289.358,-289.358l-0.104,0l-0,-289.342l0.104,0c159.808,0 289.358,-129.55 289.358,-289.358c-0,-159.809 -129.55,-289.359 -289.358,-289.359l-0.104,0l-0,-289.337l0.104,0c159.808,0 289.358,-129.55 289.358,-289.358c-0,-159.809 -129.55,-289.359 -289.358,-289.359l-0.104,0l-0,-289.341l0.104,0c159.808,0 289.358,-129.546 289.358,-289.359c-0,-159.808 -129.55,-289.354 -289.358,-289.354l-0.104,0l-0,-289.341l0.104,0c159.808,0 289.358,-129.55 289.358,-289.359c-0,-159.808 -129.55,-289.358 -289.358,-289.358l-0.104,0l-0,-289.338l0.104,0c159.808,0 289.358,-129.55 289.358,-289.358c-0,-159.808 -129.55,-289.358 -289.358,-289.358l-0.104,0l-0,-289.342l0.104,0c159.808,0 289.358,-129.546 289.358,-289.358c-0,-159.809 -129.55,-289.338 -289.358,-289.338l-0.104,0l-0,-289.341c5.483,-0.017 10.937,-0.155 16.316,-0.467c152.275,-8.404 273.163,-134.533 273.163,-288.908l-0,-0.034l289.2,0l-0,0.05c-0,159.809 129.55,289.359 289.358,289.359c159.809,0 289.342,-129.55 289.342,-289.359l-0,-0.05l289.354,0l-0,0.05c-0,159.809 129.55,289.359 289.358,289.359c159.809,0 289.342,-129.55 289.342,-289.359l-0,-0.05l289.358,0l-0,0.05c-0,159.809 129.546,289.359 289.359,289.359c159.808,0 289.337,-129.55 289.337,-289.359l-0,-0.05l289.359,0l-0,0.05c-0,159.809 129.55,289.359 289.358,289.359c159.808,0 289.342,-129.55 289.342,-289.359l-0,-0.05l289.354,0l-0,0.05c-0,159.809 129.55,289.359 289.358,289.359c159.808,0 289.342,-129.55 289.342,-289.359l-0,-0.05l289.358,0l-0,0.05c-0,159.809 129.546,289.359 289.358,289.359c159.809,0 289.338,-129.55 289.338,-289.359l-0,-0.05l289.358,0l-0,0.05c-0,159.809 129.583,289.359 289.375,289.359c159.809,0 289.359,-129.55 289.359,-289.359l-0.001,-0.05l289.359,0l-0,0.05c-0,159.809 129.546,289.359 289.341,289.359c159.809,0 289.355,-129.55 289.355,-289.359l-0,-0.05l289.358,0l-0,0.05c-0,159.809 129.55,289.359 289.342,289.359c159.808,0 289.358,-129.55 289.358,-289.359l-0,-0.05l289.358,0Z" style="fill:#f3f4f6;"/><path d="M9837.96,1446.75l72.325,0l-0,-72.325l-72.325,0l-0,72.325Zm289.338,289.408l72.346,0l-0,-72.341l-72.346,0l-0,72.341Zm-0,289.325l-0,72.342l72.346,-0.017l-0,-72.325l-72.346,0Zm-0,578.713l72.346,0l-0,-72.325l-72.346,-0.017l-0,72.342Zm-0,289.342l-0,72.345l72.346,-0.02l-0,-72.325l-72.346,-0Zm-0,578.716l72.346,-0l-0,-72.329l-72.346,-0.017l-0,72.346Zm-0,289.338l-0,72.346l72.346,-0.017l-0,-72.329l-72.346,-0Zm-0,578.716l72.346,-0l-0,-72.325l-72.346,-0.02l-0,72.345Zm-0,289.342l-0,72.342l72.346,-0.017l-0,-72.325l-72.346,-0Zm-0,578.713l72.346,-0l-0,-72.325l-72.346,-0.017l-0,72.342Zm-0,289.341l-0,72.342l72.346,-0.017l-0,-72.325l-72.346,-0Zm-0,578.717l72.346,-0l-0,-72.329l-72.346,-0.017l-0,72.346Zm-0,289.337l-0,72.346l72.346,-0.016l-0,-72.329l-72.346,0l-0,-0.001Zm-0,578.716l72.346,0l-0,-72.325l-72.346,-0.021l-0,72.346Zm-0,289.342l-0,72.342l72.346,-0.017l-0,-72.325l-72.346,0Zm-0,578.712l72.346,0l-0,-72.325l-72.346,-0.016l-0,72.341Zm-0,289.342l-0,72.342l72.346,-0.017l-0,-72.325l-72.346,-0Zm-0,578.679l72.346,-0l-0,-72.292l-72.346,-0.016l-0,72.308Zm-0,289.358l-0,72.325l72.346,-0l-0,-72.325l-72.346,-0Zm-0,578.7l72.346,-0l-0,-72.258l-72.346,-0.087l-0,72.345Zm-0,289.355l-0,72.329l72.346,-0l-0,-72.329l-72.346,-0Zm-25.817,1.145l6.354,72.05l-6.354,-72.05Zm-19.321,2.396l11.146,71.479l0.071,-0l-11.217,-71.479Zm-244.2,285.8l-0,72.346l72.254,-0l0.071,-72.346l-72.325,-0Zm-289.358,-0l-72.346,-0l-0,72.346l72.346,-0l-0,-72.346Zm-578.7,-0l-0,72.346l72.258,-0l0.071,-72.346l-72.329,-0Zm-289.358,-0l-72.342,-0l-0,72.346l72.342,-0l-0,-72.346Zm-578.696,-0l-0,72.346l72.325,-0l-0,-72.346l-72.325,-0Zm-289.358,-0l-72.342,-0l-0,72.346l72.342,-0l-0,-72.346Zm-578.734,-0l-0,72.346l72.292,-0l0.071,-72.346l-72.363,-0Zm-289.358,-0l-72.325,-0l-0,72.346l72.325,-0l-0,-72.346Zm-578.696,-0l-0,72.346l72.325,-0l0.017,-72.346l-72.342,-0Zm-289.358,-0l-72.325,-0l-0,72.346l72.325,-0l-0,-72.346Zm-578.696,-0l-0,72.346l72.325,-0l0.017,-72.346l-72.342,-0Zm-289.358,-0l-72.33,-0l-0,72.346l72.33,-0l-0,-72.346Zm-578.7,-0l-0,72.346l72.329,-0l0.016,-72.346l-72.345,-0Zm-289.359,-0l-72.325,-0l-0,72.346l72.325,-0l-0,-72.346Zm-578.696,-0l-0,72.346l72.325,-0l0.017,-72.346l-72.342,-0Zm-289.358,-0l-72.325,-0l-0,72.346l72.325,-0l-0,-72.346Zm-578.696,-0l-0,72.346l72.325,-0l0.017,-72.346l-72.342,-0Zm-289.358,-0l-72.329,-0l0,72.346l72.329,-0l0,-72.346Zm-578.7,-0l0,72.346l72.329,-0l0.017,-72.346l-72.346,-0Zm-289.217,-0l-72.346,-0l0.017,72.346l72.329,-0l0,-72.346Zm-289.462,-289.341l-72.325,0.07l0,72.259l72.325,-0l0,-72.329Zm0,-289.355l0,-72.345l-72.325,-0l0,72.345l72.325,-0Zm0,-578.7l-72.325,-0l0,72.325l72.325,-0l0,-72.325Zm0,-289.358l0,-72.308l-72.325,-0l0,72.308l72.325,-0Zm0,-578.679l-72.325,-0l0,72.342l72.325,-0l0,-72.342Zm0,-289.342l0,-72.341l-72.325,-0l0,72.341l72.325,-0Zm0,-578.712l-72.325,-0l0,72.341l72.325,-0l0,-72.341Zm0,-289.342l0,-72.346l-72.325,-0l0,72.346l72.325,-0Zm0,-578.717l-72.325,-0l0,72.346l72.325,-0l0,-72.346Zm0,-289.337l0,-72.346l-72.325,-0l0,72.346l72.325,-0Zm0,-578.717l-72.325,-0l0,72.342l72.325,-0l0,-72.342Zm0,-289.341l0,-72.342l-72.325,-0l0,72.342l72.325,-0Zm0,-578.713l-72.325,-0l0,72.342l72.325,-0l0,-72.342Zm0,-289.342l0,-72.345l-72.325,-0l0,72.345l72.325,-0Zm0,-578.716l-72.325,-0l0,72.346l72.325,-0l0,-72.346Zm0,-289.338l0,-72.346l-72.325,-0l0,72.346l72.325,-0Zm0,-578.716l-72.325,-0l0,72.341l72.325,-0l0,-72.341Zm0,-289.342l0,-72.342l-72.325,-0l0,72.342l72.325,-0Zm0,-578.696l-72.325,-0l0,72.325l72.325,-0l0,-72.325Zm0,-289.342l0,-72.341l-72.325,-0l0,72.341l72.325,-0Zm16.321,-0.466l-3.98,-72.225l-0.033,-0l4.013,72.225Zm273.158,-288.942l0,-72.329l-72.346,-0l0,72.329l72.346,-0Zm289.2,-0l72.346,-0l0,-72.329l-72.346,-0l0,72.329Zm578.7,-0l0,-72.329l-72.329,-0l0,72.329l72.329,-0Zm289.358,-0l72.342,-0l0,-72.329l-72.342,-0l0,72.329Zm578.696,-0l0,-72.329l-72.325,-0l0,72.329l72.325,-0Zm289.358,-0l72.342,-0l0,-72.329l-72.342,-0l0,72.329Zm578.696,-0l0,-72.329l-72.325,-0l0,72.329l72.325,-0Zm289.359,-0l72.345,-0l0,-72.329l-72.345,-0l0,72.329Zm289.358,289.408l0,-72.341l0,72.341Zm289.342,-289.408l0,-72.329l-72.33,-0l0,72.329l72.33,-0Zm289.358,-0l72.342,-0l0,-72.329l-72.342,-0l0,72.329Zm578.696,-0l0,-72.329l-72.325,-0l0,72.329l72.325,-0Zm289.358,-0l72.342,-0l0,-72.329l-72.342,-0l0,72.329Zm289.358,289.408l0,72.325l0,-72.325Zm289.338,-289.408l0,-72.329l-72.325,-0l0,72.329l72.325,-0Zm289.358,-0l72.363,-0l0,-72.329l-72.363,-0l0,72.329Zm578.734,-0l0,-72.329l-72.342,-0l0,72.329l72.342,-0Zm289.358,-0l72.325,-0l0,-72.329l-72.325,-0l0,72.329Zm578.696,-0l0,-72.329l-72.342,-0l0,72.329l72.342,-0Zm289.358,-0l72.329,-0l0,-72.329l-72.329,-0l0,72.329Zm578.7,-0l0,-72.329l-72.346,-0l0,72.329l72.346,-0Zm217.013,-0l-0.001,0.05l144.671,-0l0,-0.05l-144.671,-0l0.001,-0Zm0.001,0.05c-0.001,199.758 161.891,361.683 361.683,361.683l0,-144.666c-119.858,-0 -217.013,-97.171 -217.013,-217.017l-144.67,-0Zm361.683,361.683l0,-144.666l0,144.666Zm-72.325,-72.325l0,289.325l144.671,-0l0,-289.325l-144.671,-0Zm-144.6,578.68c0,-119.825 97.133,-216.98 216.925,-217.013l0,-144.671c-199.721,0.054 -361.613,161.963 -361.613,361.684l144.688,-0Zm216.942,217.016c-119.792,-0.037 -216.925,-97.187 -216.925,-217.016l-144.688,-0c0,199.725 161.892,361.633 361.612,361.687l0.001,-144.671Zm-72.326,72.342l0,289.342l144.671,-0l0,-289.342l-144.671,-0Zm72.325,217.017c-199.72,0.05 -361.612,161.958 -361.612,361.683l144.671,-0c0,-119.829 97.15,-216.979 216.941,-217.017l-0,-144.666Zm-361.612,361.683c-0,199.721 161.892,361.629 361.612,361.683l-0,-144.671c-119.791,-0.033 -216.925,-97.187 -216.925,-217.012l-144.687,-0Zm289.287,289.358l-0,289.338l144.671,-0l-0,-289.338l-144.671,-0Zm72.325,217.013c-199.72,0.05 -361.612,161.962 -361.612,361.683l144.671,-0c-0,-119.825 97.15,-216.979 216.941,-217.012l-0,-144.671Zm-361.612,361.683c-0,199.721 161.892,361.633 361.612,361.683l-0,-144.67c-119.791,-0.034 -216.941,-97.188 -216.941,-217.013l-144.671,-0Zm289.287,289.358l-0,289.342l144.671,-0l-0,-289.342l-144.671,-0Zm-144.616,578.696c-0,-119.825 97.15,-216.979 216.941,-217.012l-0,-144.671c-199.72,0.054 -361.612,161.962 -361.612,361.683l144.671,-0Zm216.941,217.017c-119.791,-0.038 -216.941,-97.188 -216.941,-217.017l-144.671,-0c-0,199.725 161.892,361.634 361.612,361.688l-0,-144.671Zm-72.325,72.342l-0,289.341l144.671,-0l-0,-289.341l-144.671,-0Zm72.325,217.016c-199.72,0.05 -361.612,161.959 -361.612,361.684l144.671,-0c-0,-119.83 97.15,-216.98 216.941,-217.017l-0,-144.667Zm-361.612,361.684c-0,199.72 161.892,361.629 361.612,361.683l-0,-144.671c-119.791,-0.033 -216.941,-97.187 -216.941,-217.012l-144.671,-0Zm289.287,289.358l-0,289.337l144.671,-0l-0,-289.337l-144.671,-0Zm-144.616,578.696c-0,-119.825 97.15,-216.979 216.941,-217.013l-0,-144.671c-199.72,0.05 -361.612,161.963 -361.612,361.684l144.671,-0Zm216.941,217.012c-119.791,-0.033 -216.941,-97.187 -216.941,-217.012l-144.671,-0c-0,199.721 161.892,361.633 361.612,361.683l-0,-144.671Zm-72.325,72.346l-0,289.342l144.671,-0l-0,-289.342l-144.671,-0Zm-144.616,578.696c-0,-119.825 97.15,-216.979 216.941,-217.013l-0,-144.67c-199.72,0.054 -361.612,161.962 -361.612,361.683l144.671,-0Zm216.941,217.017c-119.791,-0.038 -216.925,-97.188 -216.925,-217.017l-144.687,-0c-0,199.725 161.892,361.633 361.612,361.687l-0,-144.67Zm-72.325,72.341l-0,289.342l144.671,-0l-0,-289.342l-144.671,-0Zm-144.6,578.7c-0,-119.829 97.134,-216.979 216.925,-217.016l-0,-144.667c-199.72,0.05 -361.612,161.958 -361.612,361.683l144.687,-0Zm216.946,217.013c-119.791,-0.034 -216.929,-97.188 -216.929,-217.013l-144.687,-0c-0,199.721 161.891,361.667 361.616,361.667l-0,-144.654Zm-72.329,72.308l-0,289.358l144.671,-0l-0,-289.358l-144.671,-0Zm72.329,217.017c-199.725,0.066 -361.616,162.029 -361.616,361.683l144.67,0c-0,-119.792 97.155,-216.929 216.946,-217.017l-0,-144.666Zm-361.616,361.683c-0,199.738 161.891,361.7 361.616,361.7l-0,-144.687c-119.791,0 -216.929,-97.134 -216.929,-217.013l-144.687,0Zm289.287,289.358l-0,289.355l144.671,0l-0,-289.355l-144.671,0Zm-0,289.355l144.671,0l-144.671,0Zm72.329,-72.342c-10.854,0 -21.633,0.504 -32.258,1.442l12.796,144.095c6.441,-0.57 12.879,-0.866 19.462,-0.866l-0,-144.671Zm-32.258,1.442c-8.108,0.729 -16.129,1.733 -24.167,2.966l22.5,142.954c4.775,-0.729 9.617,-1.391 14.463,-1.825l-12.796,-144.095Zm-24.096,2.966c-173.021,27.138 -305.333,176.65 -305.333,357.275l144.671,0c-0,-108.212 79.358,-198.054 183.02,-214.321l-22.358,-142.954Zm-232.987,284.95l-289.359,0l-0,144.671l289.359,0l-0,-144.671Zm-578.717,-144.6c119.792,0 216.946,97.063 217.017,216.925l144.687,0c-0.087,-199.721 -161.979,-361.612 -361.704,-361.612l-0,144.687Zm-217.013,216.942c-0,-119.858 97.155,-216.925 217.013,-216.925l-0,-144.688c-199.792,0 -361.683,161.892 -361.683,361.613l144.67,0Zm-72.325,-72.325l-289.358,0l-0,144.671l289.358,0l-0,-144.671Zm-217.016,72.325c-0.088,-199.721 -161.979,-361.613 -361.7,-361.613l-0,144.671c119.791,0 216.946,97.084 217.012,216.942l144.688,0Zm-361.7,-361.613c-199.792,0 -361.684,161.892 -361.684,361.613l144.671,0c-0,-119.858 97.15,-216.925 217.013,-216.925l-0,-144.688Zm-289.342,289.288l-289.358,0l-0,144.671l289.358,0l-0,-144.671Zm-217.012,72.325c-0.088,-199.721 -161.98,-361.613 -361.7,-361.613l-0,144.671c119.791,0 216.941,97.084 217.012,216.942l144.688,0Zm-361.7,-361.613c-199.792,0 -361.688,161.892 -361.721,361.613l144.704,0c-0,-119.858 97.154,-216.942 217.017,-216.942l-0,-144.671Zm-289.375,289.288l-289.359,0l-0,144.671l289.359,0l-0,-144.671Zm-578.7,-144.617c119.845,0 216.995,97.084 217.012,216.942l144.671,0c-0.033,-199.721 -161.942,-361.613 -361.683,-361.613l-0,144.671Zm-217.013,216.942c0.017,-119.858 97.171,-216.942 217.013,-216.942l-0,-144.671c-199.738,0 -361.667,161.892 -361.7,361.613l144.687,0Zm-72.346,-72.325l-289.358,0l-0,144.671l289.358,0l-0,-144.671Zm-217.012,72.325c-0.034,-199.721 -161.946,-361.613 -361.684,-361.613l-0,144.671c119.842,0 216.996,97.084 217.013,216.942l144.671,0Zm-361.684,-361.613c-199.741,0 -361.666,161.892 -361.704,361.613l144.688,0c0.021,-119.858 97.171,-216.942 217.016,-216.942l-0,-144.671Zm-289.358,289.288l-289.358,0l-0,144.671l289.358,0l-0,-144.671Zm-578.7,-144.617c119.846,0 217,97.084 217.017,216.942l144.671,0c-0.038,-199.721 -161.946,-361.613 -361.688,-361.613l-0,144.671Zm-217.012,216.942c0.016,-119.858 97.17,-216.942 217.012,-216.942l-0,-144.671c-199.737,0 -361.667,161.892 -361.7,361.613l144.688,0Zm-72.342,-72.325l-289.358,0l-0,144.671l289.358,0l-0,-144.671Zm-578.7,-144.617c119.846,0 216.996,97.084 217.012,216.942l144.671,0c-0.033,-199.721 -161.941,-361.613 -361.683,-361.613l-0,144.671Zm-217.013,216.942c0.017,-119.858 97.171,-216.925 217.013,-216.925l-0,-144.688c-199.738,0 -361.667,161.892 -361.7,361.613l144.687,0Zm-72.345,-72.325l-289.359,0l-0,144.671l289.359,0l-0,-144.671Zm-578.696,-144.6c119.841,0 216.996,97.067 217.012,216.925l144.671,0c-0.033,-199.721 -161.946,-361.613 -361.683,-361.613l-0,144.688Zm-217.017,216.942c0.021,-119.859 97.171,-216.925 217.017,-216.925l-0,-144.688c-199.742,0 -361.667,161.892 -361.704,361.613l144.687,0.004l-0,-0.004Zm-72.342,-72.33l-289.358,0l-0,144.671l289.358,0l-0,-144.671Zm-217.012,72.325c-0.038,-199.72 -161.946,-361.612 -361.688,-361.612l-0,144.671c119.846,0 217,97.083 217.017,216.941l144.671,0Zm-361.688,-361.612c-199.737,0 -361.666,161.892 -361.7,361.612l144.688,0c0.017,-119.858 97.171,-216.925 217.012,-216.925l-0,-144.687Zm-289.354,289.287l-289.221,0l-0,144.671l289.221,0l-0,-144.671Zm-216.896,72.325c-0.016,-199.72 -161.925,-361.683 -361.683,-361.683l-0,144.671c119.846,0 217.017,97.154 217.017,217.012l144.666,0Zm-361.683,-361.683l-0.104,0l-0,144.671l0.104,0l-0,-144.671Zm72.242,72.346l-144.671,0l-0,0.071l144.671,-0.071Zm-0,0l-0,-289.358l-144.671,0l-0,289.358l144.671,0Zm-72.346,-217.017l0.104,0l-0,-144.683l-0.104,0l-0,144.683Zm0.104,-0c199.758,-0 361.683,-161.891 361.683,-361.7l-144.666,-0c-0,119.863 -97.154,217.017 -217.017,217.017l-0,144.683Zm361.683,-361.7c-0,-199.721 -161.925,-361.683 -361.683,-361.683l-0,144.671c119.863,0 217.017,97.221 217.017,217.012l144.666,-0Zm-361.683,-361.683l-0.104,0l-0,144.671l0.104,0l-0,-144.671Zm72.242,72.346l-0,-289.359l-144.671,0l-0,289.359l144.671,0Zm-72.242,-361.667l-0.104,0l-0,144.65l0.104,0l-0,-144.65Zm217.017,-217.017c-0,119.863 -97.154,217.017 -217.017,217.017l-0,144.65c199.758,0 361.683,-161.908 361.683,-361.667l-144.666,0Zm-217.017,-217.012c119.863,0 217.017,97.171 217.017,217.012l144.666,0c-0,-199.754 -161.925,-361.683 -361.683,-361.683l-0,144.671Zm-0.104,0l0.104,0l-0,-144.671l-0.104,0l-0,144.671Zm72.346,-72.346l-0,-289.337l-144.671,0l-0,289.337l144.671,0Zm-72.242,-361.683l-0.104,0l-0,144.671l0.104,0l-0,-144.671Zm217.017,-217.013c-0,119.863 -97.154,217.013 -217.017,217.013l-0,144.671c199.758,0 361.683,-161.925 361.683,-361.684l-144.666,0Zm-217.017,-217.012c119.863,0 217.017,97.166 217.017,217.012l144.666,0c-0,-199.758 -161.925,-361.683 -361.683,-361.683l-0,144.671Zm-0.104,0l0.104,0l-0,-144.671l-0.104,0l-0,144.671Zm72.346,-72.346l-0,-289.342l-144.671,0l-0,289.342l144.671,0Zm-72.242,-361.683l-0.104,0l-0,144.67l0.104,0l-0,-144.67Zm217.017,-217.013c-0,119.858 -97.154,217.013 -217.017,217.013l-0,144.67c199.758,0 361.683,-161.929 361.683,-361.683l-144.666,0Zm-217.017,-217.017c119.863,0 217.017,97.171 217.017,217.017l144.666,0c-0,-199.758 -161.925,-361.687 -361.683,-361.687l-0,144.67Zm-0.104,0l0.104,0l-0,-144.67l-0.104,0l-0,144.67Zm72.346,-72.341l-0,-289.342l-144.671,0l-0,289.342l144.671,0Zm-72.346,-217.017l0.104,0l-0,-144.667l-0.104,0l-0,144.667Zm0.104,0c199.758,0 361.683,-161.925 361.683,-361.683l-144.666,0c-0,119.862 -97.154,217.016 -217.017,217.016l-0,144.667Zm361.683,-361.683c-0,-199.754 -161.925,-361.684 -361.683,-361.684l-0,144.671c119.863,0 217.017,97.171 217.017,217.013l144.666,0Zm-361.683,-361.684l-0.104,0l-0,144.671l0.104,0l-0,-144.671Zm72.242,72.325l-0,-289.337l-144.671,0l-0,289.337l144.671,0Zm-72.242,-361.683l-0.104,0l-0,144.671l0.104,0l-0,-144.671Zm217.017,-217.012c-0,119.862 -97.154,217.012 -217.017,217.012l-0,144.671c199.758,0 361.683,-161.925 361.683,-361.683l-144.666,0Zm-217.017,-217.013c119.863,0 217.017,97.167 217.017,217.013l144.666,0c-0,-199.759 -161.925,-361.684 -361.683,-361.684l-0,144.671Zm-0.104,0l0.104,0l-0,-144.671l-0.104,0l-0,144.671Zm72.346,-72.346l-0,-289.341l-144.671,0l-0,289.341l144.671,0Zm-72.346,-217.012l0.104,0l-0,-144.671l-0.104,0l-0,144.671Zm0.104,0c199.758,0 361.683,-161.929 361.683,-361.684l-144.666,0c-0,119.859 -97.154,217.013 -217.017,217.013l-0,144.671Zm361.683,-361.684c-0,-199.758 -161.925,-361.687 -361.683,-361.687l-0,144.671c119.863,0 217.017,97.171 217.017,217.016l144.666,0Zm-361.683,-361.687l-0.104,0l-0,144.671l0.104,0l-0,-144.671Zm72.242,72.329l-0,-289.342l-144.671,0l-0,289.342l144.671,0Zm-72.346,-217.017l0.104,0l-0,-144.666l-0.104,0l-0,144.666Zm0.104,0c199.758,0 361.683,-161.925 361.683,-361.683l-144.666,0c-0,119.863 -97.154,217.017 -217.017,217.017l-0,144.666Zm361.683,-361.683c-0,-199.754 -161.925,-361.683 -361.683,-361.683l-0,144.671c119.863,0 217.017,97.17 217.017,217.012l144.666,0Zm-361.683,-361.683l-0.104,0l-0,144.671l0.104,0l-0,-144.671Zm72.242,72.325l-0,-289.338l-144.671,0l-0,289.338l144.671,0Zm-72.242,-361.684l-0.104,0l-0,144.671l0.104,0l-0,-144.671Zm217.017,-217.012c-0,119.862 -97.154,217.012 -217.017,217.012l-0,144.671c199.758,0 361.683,-161.925 361.683,-361.683l-144.666,0Zm-217.017,-217.013c119.863,0 217.017,97.167 217.017,217.013l144.666,0c-0,-199.758 -161.925,-361.683 -361.683,-361.683l-0,144.67Zm-0.104,0l0.104,0l-0,-144.67l-0.104,0l-0,144.67Zm72.346,-72.345l-0,-289.342l-144.671,0l-0,289.342l144.671,0Zm-72.329,-216.996c6.808,0 13.595,-0.192 20.333,-0.554l-8.042,-144.463c-4.079,0.225 -8.175,0.346 -12.308,0.346l0.017,144.671Zm20.295,-0.554c190.4,-10.521 341.496,-168.163 341.496,-361.146l-144.671,0c-0,115.762 -90.662,210.379 -204.791,216.683l7.966,144.463Zm341.496,-361.146l-0,-0.038l-144.671,0l-0,0.038l144.671,0Zm-72.329,72.308l289.204,0l-0,-144.671l-289.204,0l-0,144.671Zm216.858,-72.346l-0,0.054l144.688,0l-0,-0.054l-144.688,0Zm-0,0.054c-0,199.755 161.946,361.684 361.7,361.684l-0,-144.671c-119.858,0 -217.012,-97.171 -217.012,-217.013l-144.688,0Zm361.7,361.684c199.759,0 361.688,-161.929 361.688,-361.684l-144.671,0c-0,119.842 -97.171,217.013 -217.017,217.013l-0,144.671Zm361.688,-361.684l-0,-0.054l-144.671,0l-0,0.054l144.671,0Zm-72.346,72.292l289.358,0l-0,-144.671l-289.358,0l-0,144.671Zm361.7,-72.292l-0,-0.054l-144.687,0l-0,0.054l144.687,0Zm217.017,217.013c-119.863,0 -217.017,-97.171 -217.017,-217.013l-144.687,0c-0,199.755 161.945,361.684 361.704,361.684l-0,-144.671Zm217.012,-217.013c-0,119.842 -97.171,217.013 -217.012,217.013l-0,144.671c199.754,0 361.683,-161.929 361.683,-361.684l-144.671,0Zm-0,-0.054l-0,0.054l144.671,0l-0,-0.054l-144.671,0Zm72.325,72.346l289.359,0l-0,-144.671l-289.359,0l-0,144.671Zm361.704,-72.292l-0,-0.054l-144.687,0l-0,0.054l144.687,0Zm217.013,217.013c-119.863,0 -217.013,-97.171 -217.013,-217.013l-144.687,0c-0,199.755 161.942,361.684 361.7,361.684l-0,-144.671Zm217.012,-217.013c-0,119.842 -97.166,217.013 -217.012,217.013l-0,144.671c199.758,0 361.683,-161.929 361.683,-361.684l-144.671,0Zm-0,-0.054l-0,0.054l144.671,0l-0,-0.054l-144.671,0Zm72.33,72.346l289.358,0l-0,-144.671l-289.358,0l-0,144.671Zm361.7,-72.292l-0,-0.054l-144.688,0l-0,0.054l144.688,0Zm217.012,217.013c-119.858,0 -217.012,-97.171 -217.012,-217.013l-144.688,0c-0,199.755 161.946,361.684 361.7,361.684l-0,-144.671Zm217.017,-217.013c-0,119.842 -97.171,217.013 -217.017,217.013l-0,144.671c199.758,0 361.688,-161.929 361.688,-361.684l-144.671,0Zm-0,-0.054l-0,0.054l144.671,0l-0,-0.054l-144.671,0Zm72.325,72.346l289.358,0l-0,-144.671l-289.358,0l-0,144.671Zm217.012,-72.346l-0,0.054l144.688,0l-0,-0.054l-144.688,0Zm-0,0.054c-0,199.755 161.946,361.684 361.704,361.684l-0,-144.671c-119.862,0 -217.016,-97.171 -217.016,-217.013l-144.688,0Zm361.704,361.684c199.755,0 361.684,-161.929 361.684,-361.684l-144.671,0c-0,119.842 -97.171,217.013 -217.013,217.013l-0,144.671Zm361.684,-361.684l-0,-0.054l-144.671,0l-0,0.054l144.671,0Zm-72.346,72.292l289.358,0l-0,-144.671l-289.358,0l-0,144.671Zm361.704,-72.292l-0,-0.054l-144.687,0l-0,0.054l144.687,0Zm217.013,217.013c-119.863,0 -217.013,-97.171 -217.013,-217.013l-144.687,0c-0,199.755 161.941,361.684 361.7,361.684l-0,-144.671Zm217.012,-217.013c-0,119.842 -97.167,217.013 -217.012,217.013l-0,144.671c199.758,0 361.683,-161.929 361.683,-361.684l-144.671,0Zm-0,-0.054l-0,0.054l144.671,0l-0,-0.054l-144.671,0Zm72.329,72.346l289.359,0l-0,-144.671l-289.359,0l-0,144.671Zm217.013,-72.346l-0,0.054l144.704,0l-0,-0.054l-144.704,0Zm-0,0.054c-0,199.755 161.929,361.684 361.721,361.684l-0,-144.671c-119.863,0 -217.017,-97.171 -217.017,-217.013l-144.704,0Zm361.721,361.684c199.72,0 361.7,-161.929 361.7,-361.684l-144.688,0c-0,119.842 -97.221,217.013 -217.012,217.013l-0,144.671Zm361.7,-361.684l-0,-0.054l-144.688,0l-0,0.054l144.688,0Zm-72.346,72.292l289.358,0l-0,-144.671l-289.358,0l-0,144.671Zm217.016,-72.346l-0,0.054l144.671,0l-0,-0.054l-144.671,0Zm-0,0.054c-0,199.755 161.892,361.684 361.684,361.684l-0,-144.671c-119.863,0 -217.013,-97.171 -217.013,-217.013l-144.671,0Zm361.684,361.684c199.721,0 361.7,-161.929 361.7,-361.684l-144.688,0c-0,119.842 -97.15,217.013 -217.012,217.013l-0,144.671Zm361.7,-361.684l-0,-0.054l-144.688,0l-0,0.054l144.688,0Zm-72.342,72.292l289.358,0l-0,-144.671l-289.358,0l-0,144.671Zm361.683,-72.292l0,-0.054l-144.67,0l0,0.054l144.67,0Zm217.013,217.013c-119.858,0 -217.013,-97.171 -217.013,-217.013l-144.67,0c0,199.755 161.891,361.684 361.683,361.684l0,-144.671Zm217.017,-217.013c0,119.842 -97.225,217.013 -217.017,217.013l0,144.671c199.725,0 361.704,-161.929 361.704,-361.684l-144.687,0Zm0,-0.054l0,0.054l144.687,0l0,-0.054l-144.687,0Zm72.341,72.346l289.359,0l0,-144.671l-289.359,0l0,144.671Z" style="fill:#e2e0e7;fill-rule:nonzero;"/></g><path d="M2350.99,2604.17c-0,-139.827 113.35,-253.177 253.177,-253.177l6365.75,0c139.827,0 253.178,113.35 253.178,253.177l-0,6365.75c-0,139.826 -113.351,253.177 -253.178,253.177l-6365.75,0c-139.827,0 -253.178,-113.351 -253.178,-253.177l-0,-6365.75l0.001,0Z" style="fill:#fff;fill-rule:nonzero;stroke:#e2e0e7;stroke-width:72.4px;"/><path d="M8680.57,3182.88c0,-159.698 -129.654,-289.352 -289.352,-289.352l-5208.34,0c-159.698,0 -289.352,129.654 -289.352,289.352l0,5208.34c0,159.698 129.654,289.352 289.352,289.352l5208.34,-0c159.698,-0 289.352,-129.654 289.352,-289.352l0,-5208.34Z" style="fill:#2a09a1;"/><g><path d="M5618.38,4937.69c243.525,-243.525 638.36,-243.525 881.885,-0c243.531,243.531 243.524,638.359 0,881.884l-544.606,544.605c-243.524,243.532 -638.359,243.532 -881.884,0c-243.524,-243.524 -243.524,-638.359 0,-881.884l544.605,-544.605Z" style="fill:#8c65f7;fill-rule:nonzero;"/><path d="M6500.26,4938.17c243.524,243.531 243.524,638.359 0,881.891c-243.532,243.525 -638.36,243.525 -881.885,0l-544.605,-544.605c-243.528,-243.532 -243.529,-638.362 0,-881.888c243.525,-243.526 638.36,-243.526 881.884,0l272.299,272.302l272.307,272.3Z" style="fill:#02e2ac;fill-rule:nonzero;"/><path d="M6351.5,5053.46c175.042,175.042 175.042,459.266 0,634.308c-175.042,175.042 -459.265,175.042 -634.308,0c-175.042,-175.042 -175.042,-459.266 0,-634.308c175.043,-175.042 459.266,-175.042 634.308,0Z" style="fill:#fff;"/></g><g><g><text x="4113.69px" y="7702.75px" style="font-family:'MiriamLibre-Regular', 'Miriam Libre';font-size:583.334px;fill:#fff;">S</text><text x="4425.78px" y="7702.75px" style="font-family:'MiriamLibre-Regular', 'Miriam Libre';font-size:583.334px;fill:#fff;">e<tspan x="4747.78px 4949.03px " y="7702.75px 7702.75px ">lf</tspan> S</text><text x="5651.36px" y="7702.75px" style="font-family:'MiriamLibre-Regular', 'Miriam Libre';font-size:583.334px;fill:#fff;">t<tspan x="5906.86px 6233.53px 6552.61px " y="7702.75px 7702.75px 7702.75px ">aki</tspan>ng</text></g><g><text x="4981.7px" y="8286.08px" style="font-family:'MiriamLibre-Regular', 'Miriam Libre';font-size:583.334px;fill:#fff;">Si</text><text x="5514.86px" y="8286.08px" style="font-family:'MiriamLibre-Regular', 'Miriam Libre';font-size:583.334px;fill:#fff;">l<tspan x="5707.36px 6009.53px 6331.53px " y="8286.08px 8286.08px 8286.08px ">ver</tspan></text></g></g></svg>