<?xml version="1.0" encoding="UTF-8" standalone="no"?><!DOCTYPE svg PUBLIC "-//W3C//DTD SVG 1.1//EN" "http://www.w3.org/Graphics/SVG/1.1/DTD/svg11.dtd"><svg width="100%" height="100%" viewBox="0 0 48267 48267" version="1.1" xmlns="http://www.w3.org/2000/svg" xmlns:xlink="http://www.w3.org/1999/xlink" xml:space="preserve" xmlns:serif="http://www.serif.com/" style="fill-rule:evenodd;clip-rule:evenodd;"><g><path d="M40991.5,6028.12l0,0.208c0,665.888 539.775,1205.66 1205.58,1205.66l0,1205.52c-665.8,0.208 -1205.3,539.933 -1205.3,1205.66c0,665.713 539.496,1205.43 1205.3,1205.64l0,1205.59c-665.8,0.209 -1205.3,539.93 -1205.3,1205.66c0,665.729 539.496,1205.43 1205.3,1205.66l0,1205.58c-665.8,0.225 -1205.3,539.929 -1205.3,1205.66c0,665.73 539.496,1205.43 1205.3,1205.66l0,1205.59c-665.8,0.209 -1205.3,539.93 -1205.3,1205.66c0,665.712 539.496,1205.44 1205.3,1205.65l0,1205.59c-665.8,0.225 -1205.3,539.933 -1205.3,1205.66c0,665.729 539.496,1205.43 1205.3,1205.66l0,1205.57c-665.8,0.229 -1205.3,539.933 -1205.3,1205.66c0,665.729 539.496,1205.45 1205.3,1205.66l0,1205.59c-665.8,0.209 -1205.3,539.929 -1205.3,1205.66c0,665.712 539.496,1205.43 1205.3,1205.64l0,1205.59c-665.8,0.225 -1205.3,539.929 -1205.3,1205.66c0,665.729 539.496,1205.43 1205.3,1205.5l0,1205.66c-665.8,0.296 -1205.3,540.087 -1205.3,1205.59c0,665.867 539.496,1205.66 1205.3,1205.66l0,1205.66c-36.162,0 -72.329,1.804 -107.571,4.775c-27.116,2.446 -53.958,5.709 -80.504,9.979c-576.612,90.417 -1017.5,588.892 -1017.5,1190.82l-1205.66,0c-0.296,-665.796 -539.792,-1205.3 -1205.66,-1205.3c-665.8,0 -1205.59,539.5 -1205.59,1205.3l-1205.66,0c-0.279,-665.796 -539.775,-1205.3 -1205.66,-1205.3c-665.796,0 -1205.57,539.5 -1205.57,1205.3l-1205.66,0c-0.296,-665.796 -539.792,-1205.3 -1205.66,-1205.3c-665.796,0 -1205.59,539.5 -1205.73,1205.3l-1205.66,0c-0.071,-665.796 -539.775,-1205.3 -1205.58,-1205.3c-665.796,0 -1205.52,539.5 -1205.66,1205.3l-1205.66,0c-0.071,-665.796 -539.792,-1205.3 -1205.59,-1205.3c-665.8,0 -1205.5,539.5 -1205.66,1205.3l-1205.64,0c-0.087,-665.796 -539.791,-1205.3 -1205.59,-1205.3c-665.8,0 -1205.52,539.5 -1205.66,1205.3l-1205.66,0c-0.067,-665.796 -539.775,-1205.3 -1205.57,-1205.3c-665.8,0 -1205.52,539.5 -1205.66,1205.3l-1205.66,0c-0.071,-665.796 -539.792,-1205.3 -1205.59,-1205.3c-665.795,0 -1205.5,539.5 -1205.66,1205.3l-1205.64,0c-0.087,-665.796 -539.791,-1205.3 -1205.59,-1205.3c-665.796,0 -1205.52,539.5 -1205.66,1205.3l-1205.07,0c-0.088,-665.796 -539.859,-1205.57 -1205.66,-1205.57l-0.433,0l-0,-1205.66l0.433,-0c665.867,-0 1205.66,-539.496 1205.66,-1205.66c-0,-665.8 -539.792,-1205.59 -1205.66,-1205.59l-0.433,-0l-0,-1205.66l0.433,0c665.867,0 1205.66,-539.633 1205.66,-1205.5c-0,-665.867 -539.792,-1205.66 -1205.66,-1205.66l-0.433,-0l-0,-1205.59l0.433,0c665.867,0 1205.66,-539.775 1205.66,-1205.64c-0,-665.884 -539.792,-1205.66 -1205.66,-1205.66l-0.433,0l-0,-1205.59l0.433,-0c665.867,-0 1205.66,-539.792 1205.66,-1205.66c-0,-665.871 -539.792,-1205.66 -1205.66,-1205.66l-0.433,-0l-0,-1205.57l0.433,-0c665.867,-0 1205.66,-539.792 1205.66,-1205.66c-0,-665.87 -539.792,-1205.66 -1205.66,-1205.66l-0.433,0l-0,-1205.59l0.433,0c665.867,0 1205.66,-539.775 1205.66,-1205.66c-0,-665.867 -539.792,-1205.64 -1205.66,-1205.64l-0.433,0l-0,-1205.59l0.433,-0c665.867,-0 1205.66,-539.792 1205.66,-1205.66c-0,-665.866 -539.792,-1205.66 -1205.66,-1205.66l-0.433,-0l-0,-1205.58l0.433,-0c665.867,-0 1205.66,-539.792 1205.66,-1205.66c-0,-665.867 -539.792,-1205.66 -1205.66,-1205.66l-0.433,0l-0,-1205.59l0.433,-0c665.867,-0 1205.66,-539.775 1205.66,-1205.66c-0,-665.871 -539.792,-1205.58 -1205.66,-1205.58l-0.433,0l-0,-1205.59c22.846,-0.071 45.571,-0.646 67.983,-1.946c634.479,-35.017 1138.18,-560.554 1138.18,-1203.78l0,-0.142l1205,-0l0,0.208c0,665.871 539.792,1205.66 1205.66,1205.66c665.871,-0 1205.59,-539.792 1205.59,-1205.66l0,-0.208l1205.64,-0l0,0.208c0,665.871 539.792,1205.66 1205.66,1205.66c665.871,-0 1205.59,-539.792 1205.59,-1205.66l0,-0.208l1205.66,-0l0,0.208c0,665.871 539.775,1205.66 1205.66,1205.66c665.867,-0 1205.57,-539.792 1205.57,-1205.66l-0,-0.208l1205.66,-0l0,0.208c0,665.871 539.792,1205.66 1205.66,1205.66c665.866,-0 1205.59,-539.792 1205.59,-1205.66l0,-0.208l1205.64,-0l-0,0.208c-0,665.871 539.792,1205.66 1205.66,1205.66c665.867,-0 1205.59,-539.792 1205.59,-1205.66l-0,-0.208l1205.66,-0l0,0.208c0,665.871 539.775,1205.66 1205.66,1205.66c665.871,-0 1205.58,-539.792 1205.58,-1205.66l-0,-0.208l1205.66,-0l-0,0.208c-0,665.871 539.929,1205.66 1205.73,1205.66c665.871,-0 1205.66,-539.792 1205.66,-1205.66l-0.004,-0.208l1205.66,-0l0,0.208c0,665.871 539.775,1205.66 1205.59,1205.66c665.87,-0 1205.64,-539.792 1205.64,-1205.66l0,-0.208l1205.66,-0l-0,0.208c-0,665.871 539.791,1205.66 1205.59,1205.66c665.867,-0 1205.66,-539.792 1205.66,-1205.66l-0,-0.208l1205.66,-0Z" style="fill:#f3f4f6;"/><path d="M40991.5,6028.12l301.354,0l0,-301.354l-301.354,-0l0,301.354Zm1205.58,1205.87l301.442,-0l-0,-301.421l-301.442,-0l0,301.421Zm0,1205.52l0,301.424l301.442,-0.07l-0,-301.355l-301.442,0Zm0,2411.3l301.442,-0l-0,-301.355l-301.442,-0.07l0,301.425Zm0,1205.59l0,301.438l301.442,-0.084l-0,-301.354l-301.442,0Zm0,2411.32l301.442,-0l-0,-301.371l-301.442,-0.071l0,301.442Zm0,1205.58l0,301.442l301.442,-0.071l-0,-301.371l-301.442,-0Zm0,2411.32l301.442,-0l-0,-301.355l-301.442,-0.083l0,301.438Zm0,1205.59l0,301.425l301.442,-0.071l-0,-301.354l-301.442,0Zm0,2411.3l301.442,0l-0,-301.354l-301.442,-0.071l0,301.425Zm0,1205.59l0,301.425l301.442,-0.071l-0,-301.354l-301.442,0Zm0,2411.32l301.442,-0l-0,-301.371l-301.442,-0.071l0,301.442Zm0,1205.57l0,301.441l301.442,-0.066l-0,-301.371l-301.442,-0l0,-0.004Zm0,2411.32l301.442,0l-0,-301.354l-301.442,-0.087l0,301.441Zm0,1205.59l0,301.425l301.442,-0.071l-0,-301.354l-301.442,0Zm0,2411.3l301.442,0l-0,-301.354l-301.442,-0.067l0,301.421Zm0,1205.59l0,301.425l301.442,-0.071l-0,-301.354l-301.442,-0Zm0,2411.16l301.442,0l-0,-301.216l-301.442,-0.067l0,301.283Zm0,1205.66l0,301.354l301.442,-0l-0,-301.354l-301.442,-0Zm0,2411.25l301.442,-0l-0,-301.075l-301.442,-0.363l0,301.438Zm0,1205.64l0,301.371l301.442,0l-0,-301.371l-301.442,0Zm-107.571,4.771l26.475,300.209l-26.475,-300.209Zm-80.504,9.984l46.442,297.829l0.296,-0l-46.738,-297.829Zm-1017.5,1190.83l0,301.442l301.058,-0.001l0.296,-301.441l-301.354,-0Zm-1205.66,-0l-301.442,-0l0,301.441l301.442,0l-0,-301.441Zm-2411.25,-0l-0,301.441l301.075,0l0.296,-301.441l-301.371,-0Zm-1205.66,-0l-301.425,-0l0,301.441l301.425,0l0,-301.441Zm-2411.23,-0l0,301.441l301.354,0l0,-301.441l-301.354,-0Zm-1205.66,-0l-301.425,-0l-0,301.441l301.425,0l-0,-301.441Zm-2411.39,-0l-0,301.441l301.217,0l0.295,-301.441l-301.512,-0Zm-1205.66,-0l-301.355,-0l0,301.441l301.355,0l-0,-301.441Zm-2411.23,-0l0,301.441l301.354,0l0.071,-301.441l-301.425,-0Zm-1205.66,-0l-301.354,-0l-0,301.441l301.354,0l-0,-301.441Zm-2411.23,-0l-0,301.441l301.354,0l0.071,-301.441l-301.425,-0Zm-1205.66,-0l-301.375,-0l0,301.441l301.375,0l0,-301.441Zm-2411.25,-0l0,301.441l301.371,0l0.067,-301.441l-301.438,-0Zm-1205.66,-0l-301.354,-0l-0,301.441l301.354,0l-0,-301.441Zm-2411.23,-0l0,301.441l301.355,0l0.07,-301.441l-301.425,-0Zm-1205.66,-0l-301.354,-0l-0,301.441l301.354,0l0,-301.441Zm-2411.23,-0l-0,301.441l301.354,0l0.071,-301.441l-301.425,-0Zm-1205.66,-0l-301.37,-0l-0,301.441l301.37,0l0,-301.441Zm-2411.25,-0l0,301.441l301.371,0l0.071,-301.441l-301.442,-0Zm-1205.07,-0l-301.442,-0l0.071,301.441l301.371,0l-0,-301.441Zm-1206.09,-1205.59l-301.354,0.292l-0,301.079l301.354,0l-0,-301.371Zm-0,-1205.64l-0,-301.438l-301.354,0l-0,301.438l301.354,-0.001Zm-0,-2411.25l-301.354,0l-0,301.355l301.354,-0l-0,-301.355Zm-0,-1205.66l-0,-301.283l-301.354,-0l-0,301.283l301.354,0Zm-0,-2411.16l-301.354,-0l-0,301.425l301.354,-0l-0,-301.425Zm-0,-1205.59l-0,-301.421l-301.354,0l-0,301.421l301.354,0Zm-0,-2411.3l-301.354,-0l-0,301.421l301.354,-0l-0,-301.421Zm-0,-1205.59l-0,-301.441l-301.354,-0l-0,301.441l301.354,0Zm-0,-2411.32l-301.354,0l-0,301.442l301.354,0l-0,-301.442Zm-0,-1205.57l-0,-301.442l-301.354,0l-0,301.442l301.354,-0Zm-0,-2411.32l-301.354,-0l-0,301.425l301.354,-0l-0,-301.425Zm-0,-1205.59l-0,-301.425l-301.354,0l-0,301.425l301.354,0Zm-0,-2411.3l-301.354,0l-0,301.425l301.354,0l-0,-301.425Zm-0,-1205.59l-0,-301.438l-301.354,0l-0,301.438l301.354,-0Zm-0,-2411.32l-301.354,-0l-0,301.442l301.354,-0l-0,-301.442Zm-0,-1205.58l-0,-301.442l-301.354,0l-0,301.442l301.354,-0Zm-0,-2411.32l-301.354,0l-0,301.421l301.354,0l-0,-301.421Zm-0,-1205.59l-0,-301.425l-301.354,-0.001l-0,301.426l301.354,-0Zm-0,-2411.23l-301.354,0l-0,301.354l301.354,0l-0,-301.354Zm-0,-1205.59l-0,-301.421l-301.354,-0l-0,301.421l301.354,-0Zm68.004,-1.942l-16.583,-300.938l-0.138,0l16.721,300.938Zm1138.16,-1203.92l0,-301.371l-301.441,0l-0,301.371l301.441,-0Zm1205,-0l301.442,-0l0,-301.371l-301.442,0l0,301.371Zm2411.25,-0l0,-301.371l-301.37,0l-0,301.371l301.37,-0Zm1205.66,-0l301.425,-0l-0,-301.371l-301.425,0l-0,301.371Zm2411.23,-0l0,-301.371l-301.354,0l-0,301.371l301.354,-0Zm1205.66,-0l301.425,-0l0,-301.371l-301.425,0l0,301.371Zm2411.23,-0l-0,-301.371l-301.354,0l-0,301.371l301.354,-0Zm1205.66,-0l301.438,-0l-0,-301.371l-301.438,0l0,301.371Zm1205.66,1205.87l-0,-301.421l-0,301.421Zm1205.59,-1205.87l0,-301.371l-301.375,0l0,301.371l301.375,-0Zm1205.66,-0l301.425,-0l-0,-301.371l-301.425,0l-0,301.371Zm2411.23,-0l-0,-301.371l-301.354,0l-0,301.371l301.354,-0Zm1205.66,-0l301.425,-0l0,-301.371l-301.425,0l0,301.371Zm1205.66,1205.87l-0,301.354l-0,-301.354Zm1205.58,-1205.87l-0,-301.371l-301.355,0l0,301.371l301.355,-0Zm1205.66,-0l301.512,-0l0,-301.371l-301.512,0l-0,301.371Zm2411.39,-0l-0,-301.371l-301.425,0l-0,301.371l301.425,-0Zm1205.66,-0l301.354,-0l0,-301.371l-301.354,0l0,301.371Zm2411.23,-0l0,-301.371l-301.425,0l0,301.371l301.425,-0Zm1205.66,-0l301.37,-0l0,-301.371l-301.37,0l-0,301.371Zm2411.25,-0l-0,-301.371l-301.442,0l0,301.371l301.442,-0Zm904.221,-0l-0.005,0.208l602.796,0l0,-0.208l-602.796,-0l0.005,-0Zm0.004,0.208c-0.004,832.325 674.546,1507.01 1507.01,1507.01l0,-602.775c-499.408,-0 -904.221,-404.879 -904.221,-904.238l-602.791,0Zm1507.01,1507.01l0,-602.775l0,602.775Zm-301.354,-301.354l-0,1205.52l602.796,0l-0,-1205.52l-602.796,-0Zm-602.5,2411.17c-0,-499.271 404.721,-904.083 903.854,-904.221l0,-602.795c-832.171,0.225 -1506.72,674.845 -1506.72,1507.02l602.867,0Zm903.925,904.234c-499.133,-0.155 -903.854,-404.946 -903.854,-904.234l-602.867,0c0,832.188 674.55,1506.8 1506.72,1507.03l0.004,-602.795Zm-301.358,301.425l-0,1205.59l602.795,0l0,-1205.59l-602.795,-0Zm301.354,904.237c-832.167,0.208 -1506.72,674.825 -1506.72,1507.01l602.796,-0c0,-499.288 404.792,-904.08 903.921,-904.238l-0,-602.775Zm-1506.72,1507.01c0,832.17 674.55,1506.79 1506.72,1507.01l-0,-602.796c-499.129,-0.137 -903.854,-404.946 -903.854,-904.216l-602.863,-0Zm1205.36,1205.66l-0,1205.58l602.795,-0l0,-1205.58l-602.795,-0Zm301.354,904.221c-832.167,0.208 -1506.72,674.841 -1506.72,1507.01l602.796,0c0,-499.271 404.792,-904.079 903.921,-904.216l-0,-602.796Zm-1506.72,1507.01c0,832.171 674.55,1506.8 1506.72,1507.01l-0,-602.792c-499.129,-0.142 -903.921,-404.95 -903.921,-904.221l-602.796,0Zm1205.36,1205.66l-0,1205.59l602.796,0l-0.001,-1205.59l-602.795,-0Zm-602.567,2411.23c0,-499.271 404.792,-904.079 903.921,-904.217l-0,-602.796c-832.167,0.225 -1506.72,674.842 -1506.72,1507.01l602.796,-0Zm903.921,904.237c-499.129,-0.158 -903.921,-404.95 -903.921,-904.237l-602.796,-0c0,832.187 674.55,1506.81 1506.72,1507.03l-0,-602.796Zm-301.354,301.425l-0,1205.59l602.795,-0l0,-1205.59l-602.795,0Zm301.354,904.234c-832.167,0.208 -1506.72,674.829 -1506.72,1507.02l602.796,0c0,-499.291 404.792,-904.083 903.921,-904.237l-0,-602.779Zm-1506.72,1507.02c0,832.167 674.55,1506.79 1506.72,1507.01l-0,-602.796c-499.129,-0.137 -903.921,-404.946 -903.921,-904.217l-602.796,0Zm1205.36,1205.66l-0,1205.57l602.796,-0l-0.001,-1205.57l-602.795,-0Zm-602.567,2411.23c0,-499.271 404.792,-904.079 903.921,-904.221l-0,-602.796c-832.167,0.209 -1506.72,674.846 -1506.72,1507.02l602.796,0Zm903.921,904.217c-499.129,-0.138 -903.921,-404.946 -903.921,-904.217l-602.796,0c0,832.171 674.55,1506.8 1506.72,1507.01l-0,-602.796Zm-301.354,301.441l-0,1205.59l602.795,0l0,-1205.59l-602.795,0Zm-602.567,2411.23c0,-499.271 404.792,-904.079 903.921,-904.221l-0,-602.792c-832.167,0.225 -1506.72,674.842 -1506.72,1507.01l602.796,-0Zm903.921,904.237c-499.129,-0.158 -903.854,-404.95 -903.854,-904.237l-602.863,-0c0,832.187 674.55,1506.8 1506.72,1507.03l-0,-602.792Zm-301.354,301.421l-0,1205.59l602.795,-0l0,-1205.59l-602.795,0Zm-602.5,2411.25c-0,-499.287 404.725,-904.079 903.854,-904.233l-0,-602.779c-832.167,0.208 -1506.72,674.825 -1506.72,1507.01l602.863,0Zm903.941,904.221c-499.129,-0.142 -903.871,-404.95 -903.871,-904.221l-602.862,0c-0,832.171 674.546,1506.95 1506.73,1506.95l0,-602.725Zm-301.371,301.283l0,1205.66l602.796,-0l0,-1205.66l-602.796,0Zm301.371,904.238c-832.187,0.275 -1506.73,675.121 -1506.73,1507.01l602.792,0c-0,-499.133 404.812,-903.871 903.941,-904.237l0,-602.775Zm-1506.73,1507.01c-0,832.242 674.546,1507.08 1506.73,1507.08l0,-602.863c-499.129,0 -903.871,-404.725 -903.871,-904.221l-602.862,0Zm1205.36,1205.66l0,1205.64l602.796,0l0,-1205.64l-602.796,-0Zm0,1205.64l602.796,0l-602.796,0Zm301.371,-301.425c-45.225,0 -90.137,2.1 -134.408,6.009l53.317,600.396c26.837,-2.375 53.662,-3.609 81.091,-3.609l0,-602.796Zm-134.408,6.009c-33.783,3.037 -67.204,7.221 -100.696,12.358l93.75,595.642c19.896,-3.038 40.071,-5.796 60.263,-7.604l-53.317,-600.396Zm-100.4,12.358c-720.921,113.075 -1272.22,736.042 -1272.22,1488.65l602.796,-0c-0,-450.883 330.658,-825.225 762.583,-893.004l-93.158,-595.642Zm-970.779,1187.29l-1205.66,-0l0,602.796l1205.66,-0l-0,-602.796Zm-2411.32,-602.5c499.133,-0 903.942,404.429 904.238,903.854l602.862,-0c-0.362,-832.171 -674.912,-1506.72 -1507.1,-1506.72l0,602.863Zm-904.221,903.925c0,-499.409 404.813,-903.854 904.221,-903.854l0,-602.867c-832.467,-0 -1507.01,674.55 -1507.01,1506.72l602.792,-0Zm-301.354,-301.354l-1205.66,-0l-0,602.795l1205.66,0l-0,-602.795Zm-904.233,301.354c-0.367,-832.171 -674.913,-1506.72 -1507.08,-1506.72l0,602.796c499.129,-0 903.942,404.516 904.217,903.925l602.867,-0Zm-1507.08,-1506.72c-832.466,-0 -1507.02,674.55 -1507.02,1506.72l602.796,-0c-0.001,-499.409 404.791,-903.854 904.22,-903.854l0,-602.867Zm-1205.59,1205.37l-1205.66,-0l0,602.795l1205.66,0l-0,-602.795Zm-904.217,301.354c-0.367,-832.171 -674.917,-1506.72 -1507.08,-1506.72l-0,602.796c499.129,-0 903.92,404.516 904.216,903.925l602.867,-0Zm-1507.08,-1506.72c-832.467,-0 -1507.03,674.55 -1507.17,1506.72l602.933,-0c0,-499.409 404.808,-903.925 904.238,-903.925l-0,-602.796Zm-1205.73,1205.37l-1205.66,-0l-0,602.795l1205.66,0l0,-602.795Zm-2411.25,-602.571c499.355,-0 904.146,404.516 904.217,903.925l602.796,-0c-0.138,-832.171 -674.758,-1506.72 -1507.01,-1506.72l0,602.796Zm-904.22,903.925c0.07,-499.409 404.879,-903.925 904.22,-903.925l0,-602.796c-832.241,-0 -1506.94,674.55 -1507.08,1506.72l602.863,-0Zm-301.442,-301.354l-1205.66,-0l-0,602.795l1205.66,0l-0,-602.795Zm-904.217,301.354c-0.141,-832.171 -674.775,-1506.72 -1507.02,-1506.72l-0,602.796c499.341,-0 904.15,404.516 904.22,903.925l602.796,-0Zm-1507.02,-1506.72c-832.255,-0 -1506.94,674.55 -1507.1,1506.72l602.866,-0c0.088,-499.409 404.879,-903.925 904.234,-903.925l-0,-602.796Zm-1205.66,1205.37l-1205.66,-0l-0,602.795l1205.66,0l0,-602.795Zm-2411.25,-602.571c499.359,-0 904.167,404.516 904.238,903.925l602.796,-0c-0.159,-832.171 -674.775,-1506.72 -1507.03,-1506.72l0,602.796Zm-904.216,903.925c0.066,-499.409 404.875,-903.925 904.216,-903.925l0,-602.796c-832.237,-0 -1506.95,674.55 -1507.08,1506.72l602.867,-0Zm-301.425,-301.354l-1205.66,-0l0,602.795l1205.66,0l-0,-602.795Zm-2411.25,-602.571c499.358,-0 904.15,404.516 904.216,903.925l602.796,-0c-0.137,-832.171 -674.754,-1506.72 -1507.01,-1506.72l-0,602.796Zm-904.221,903.925c0.071,-499.409 404.879,-903.854 904.221,-903.854l-0,-602.867c-832.242,-0 -1506.95,674.55 -1507.08,1506.72l602.863,-0Zm-301.438,-301.354l-1205.66,-0l-0,602.795l1205.66,0l0,-602.795Zm-2411.23,-602.5c499.337,-0 904.15,404.445 904.217,903.854l602.795,-0c-0.137,-832.171 -674.775,-1506.72 -1507.01,-1506.72l-0,602.867Zm-904.238,903.925c0.088,-499.413 404.88,-903.855 904.238,-903.855l-0,-602.866c-832.258,-0 -1506.95,674.55 -1507.1,1506.72l602.862,0.016l0,-0.016Zm-301.425,-301.375l-1205.66,-0l0,602.795l1205.66,0l0,-602.795Zm-904.216,301.354c-0.159,-832.167 -674.775,-1506.72 -1507.03,-1506.72l0,602.796c499.359,-0 904.167,404.512 904.238,903.921l602.796,-0Zm-1507.03,-1506.72c-832.237,0 -1506.94,674.55 -1507.08,1506.72l602.867,-0c0.071,-499.409 404.879,-903.854 904.216,-903.854l0,-602.863Zm-1205.64,1205.36l-1205.09,-0l0,602.795l1205.09,0l-0,-602.795Zm-903.734,301.354c-0.066,-832.167 -674.687,-1507.01 -1507.01,-1507.01l-0,602.796c499.358,0 904.237,404.808 904.237,904.217l602.775,-0Zm-1507.01,-1507.01l-0.433,0l-0,602.796l0.433,0l-0,-602.796Zm301.008,301.442l-602.796,-0l0,0.296l602.796,-0.296Zm0,-0l0,-1205.66l-602.796,-0l0,1205.66l602.796,-0Zm-301.441,-904.238l0.433,0l-0,-602.845l-0.433,-0l-0,602.845Zm0.433,0c832.325,0 1507.01,-674.545 1507.01,-1507.08l-602.775,0c0,499.429 -404.808,904.238 -904.237,904.238l-0,602.845Zm1507.01,-1507.08c0,-832.171 -674.687,-1507.01 -1507.01,-1507.01l-0,602.795c499.429,0 904.237,405.088 904.237,904.217l602.775,0Zm-1507.01,-1507.01l-0.433,-0l-0,602.795l0.433,0l-0,-602.795Zm301.008,301.441l0,-1205.66l-602.796,-0l0,1205.66l602.796,0Zm-301.008,-1506.95l-0.433,0l-0,602.709l0.433,-0l-0,-602.709Zm904.237,-904.237c0,499.429 -404.808,904.237 -904.237,904.237l-0,602.709c832.325,-0 1507.01,-674.617 1507.01,-1506.95l-602.775,-0Zm-904.237,-904.217c499.429,0 904.237,404.879 904.237,904.217l602.775,-0c0,-832.308 -674.687,-1507.01 -1507.01,-1507.01l-0,602.796Zm-0.433,0l0.433,0l-0,-602.796l-0.433,0l-0,602.796Zm301.441,-301.441l0,-1205.57l-602.796,-0l0,1205.57l602.796,-0Zm-301.008,-1507.01l-0.433,0l-0,602.796l0.433,-0l-0,-602.796Zm904.237,-904.221c0,499.429 -404.808,904.221 -904.237,904.221l-0,602.796c832.325,-0 1507.01,-674.688 1507.01,-1507.02l-602.775,0Zm-904.237,-904.216c499.429,-0 904.237,404.858 904.237,904.216l602.775,0c0,-832.325 -674.687,-1507.01 -1507.01,-1507.01l-0,602.796Zm-0.433,-0l0.433,-0l-0,-602.796l-0.433,-0l-0,602.796Zm301.441,-301.442l0,-1205.59l-602.796,0l0,1205.59l602.796,-0Zm-301.008,-1507.01l-0.433,0l-0,602.792l0.433,0l-0,-602.792Zm904.237,-904.22c0,499.408 -404.808,904.22 -904.237,904.22l-0,602.792c832.325,0 1507.01,-674.704 1507.01,-1507.01l-602.775,-0Zm-904.237,-904.238c499.429,0 904.237,404.879 904.237,904.238l602.775,-0c0,-832.325 -674.687,-1507.03 -1507.01,-1507.03l-0,602.792Zm-0.433,0l0.433,0l-0,-602.792l-0.433,0l-0,602.792Zm301.441,-301.421l0,-1205.59l-602.796,-0l0,1205.59l602.796,0Zm-301.441,-904.237l0.433,-0l-0,-602.779l-0.433,-0l-0,602.779Zm0.433,-0c832.325,-0 1507.01,-674.688 1507.01,-1507.01l-602.775,0c0,499.425 -404.808,904.234 -904.237,904.234l-0,602.779Zm1507.01,-1507.01c0,-832.308 -674.687,-1507.02 -1507.01,-1507.02l-0,602.795c499.429,0 904.237,404.88 904.237,904.221l602.775,0Zm-1507.01,-1507.02l-0.433,-0l-0,602.795l0.433,0l-0,-602.795Zm301.008,301.354l0,-1205.57l-602.796,-0l0,1205.57l602.796,-0Zm-301.008,-1507.01l-0.433,0l-0,602.796l0.433,0l-0,-602.796Zm904.237,-904.216c0,499.425 -404.808,904.216 -904.237,904.216l-0,602.796c832.325,0 1507.01,-674.687 1507.01,-1507.01l-602.775,-0Zm-904.237,-904.221c499.429,-0 904.237,404.862 904.237,904.221l602.775,-0c0,-832.33 -674.687,-1507.02 -1507.01,-1507.02l-0,602.796Zm-0.433,-0l0.433,-0l-0,-602.796l-0.433,-0l-0,602.796Zm301.441,-301.442l0,-1205.59l-602.796,-0l0,1205.59l602.796,0Zm-301.441,-904.217l0.433,0l-0,-602.795l-0.433,-0l-0,602.795Zm0.433,0c832.325,0 1507.01,-674.704 1507.01,-1507.02l-602.775,-0c0,499.412 -404.808,904.221 -904.237,904.221l-0,602.795Zm1507.01,-1507.02c0,-832.325 -674.687,-1507.03 -1507.01,-1507.03l-0,602.795c499.429,0 904.237,404.88 904.237,904.234l602.775,-0Zm-1507.01,-1507.03l-0.433,-0l-0,602.795l0.433,0l-0,-602.795Zm301.008,301.37l0,-1205.59l-602.796,-0l0,1205.59l602.796,0Zm-301.441,-904.237l0.433,-0l-0,-602.775l-0.433,-0l-0,602.775Zm0.433,-0c832.325,-0 1507.01,-674.688 1507.01,-1507.01l-602.775,0c0,499.43 -404.808,904.238 -904.237,904.238l-0,602.775Zm1507.01,-1507.01c0,-832.308 -674.687,-1507.01 -1507.01,-1507.01l-0,602.796c499.429,-0 904.237,404.875 904.237,904.216l602.775,0Zm-1507.01,-1507.01l-0.433,-0l-0,602.796l0.433,-0l-0,-602.796Zm301.008,301.354l0,-1205.58l-602.796,0l0,1205.58l602.796,0Zm-301.008,-1507.02l-0.433,0l-0,602.796l0.433,0l-0,-602.796Zm904.237,-904.216c0,499.425 -404.808,904.216 -904.237,904.216l-0,602.796c832.325,0 1507.01,-674.687 1507.01,-1507.01l-602.775,-0Zm-904.237,-904.221c499.429,-0 904.237,404.862 904.237,904.221l602.775,-0c0,-832.325 -674.687,-1507.01 -1507.01,-1507.01l-0,602.792Zm-0.433,-0l0.433,-0l-0,-602.792l-0.433,0l-0,602.792Zm301.441,-301.438l0,-1205.59l-602.796,-0l0,1205.59l602.796,0Zm-301.371,-904.15c28.367,0 56.646,-0.8 84.721,-2.308l-33.508,-601.929c-16.996,0.937 -34.063,1.442 -51.283,1.442l0.07,602.795Zm84.563,-2.308c793.333,-43.837 1422.9,-700.679 1422.9,-1504.78l-602.796,0c0,482.342 -377.758,876.579 -853.296,902.846l33.192,601.929Zm1422.9,-1504.78l-0,-0.158l-602.796,-0l0,0.158l602.796,0Zm-301.371,301.283l1205.02,0l-0,-602.795l-1205.02,-0l0,602.795Zm903.575,-301.441l0,0.225l602.867,-0l-0,-0.225l-602.867,-0Zm0,0.225c0,832.312 674.775,1507.02 1507.08,1507.02l0,-602.795c-499.408,-0 -904.216,-404.88 -904.216,-904.221l-602.867,-0Zm1507.08,1507.02c832.33,0 1507.03,-674.704 1507.03,-1507.02l-602.796,-0c-0,499.341 -404.879,904.221 -904.238,904.221l0,602.795Zm1507.03,-1507.02l-0,-0.225l-602.796,-0l-0,0.225l602.796,-0Zm-301.442,301.216l1205.66,0l0,-602.795l-1205.66,-0l0,602.795Zm1507.08,-301.216l0,-0.225l-602.862,-0l-0,0.225l602.862,-0Zm904.238,904.221c-499.429,-0 -904.238,-404.88 -904.238,-904.221l-602.862,-0c-0,832.312 674.771,1507.02 1507.1,1507.02l-0,-602.795Zm904.217,-904.221c-0,499.341 -404.88,904.221 -904.217,904.221l-0,602.795c832.308,0 1507.01,-674.704 1507.01,-1507.02l-602.795,-0Zm-0,-0.225l-0,0.225l602.795,-0l0,-0.225l-602.795,-0Zm301.354,301.441l1205.66,0l0,-602.795l-1205.66,-0l-0,602.795Zm1507.1,-301.216l-0,-0.225l-602.863,-0l0,0.225l602.863,-0Zm904.221,904.221c-499.43,-0 -904.221,-404.88 -904.221,-904.221l-602.863,-0c0,832.312 674.759,1507.02 1507.08,1507.02l-0,-602.795Zm904.216,-904.221c0,499.341 -404.858,904.221 -904.216,904.221l-0,602.795c832.325,0 1507.01,-674.704 1507.01,-1507.02l-602.796,-0Zm0,-0.225l0,0.225l602.796,-0l0,-0.225l-602.796,-0Zm301.375,301.441l1205.66,0l-0,-602.795l-1205.66,-0l0,602.795Zm1507.08,-301.216l-0,-0.225l-602.867,-0l-0,0.225l602.867,-0Zm904.216,904.221c-499.408,-0 -904.216,-404.88 -904.216,-904.221l-602.867,-0c-0,832.312 674.775,1507.02 1507.08,1507.02l0,-602.795Zm904.238,-904.221c-0,499.341 -404.879,904.221 -904.238,904.221l0,602.795c832.325,0 1507.03,-674.704 1507.03,-1507.02l-602.796,-0Zm-0,-0.225l-0,0.225l602.796,-0l-0,-0.225l-602.796,-0Zm301.354,301.441l1205.66,0l0,-602.795l-1205.66,-0l-0,602.795Zm904.217,-301.441l-0,0.225l602.866,-0l0,-0.225l-602.866,-0Zm-0,0.225c-0,832.312 674.775,1507.02 1507.1,1507.02l-0,-602.795c-499.425,-0 -904.234,-404.88 -904.234,-904.221l-602.866,-0Zm1507.1,1507.02c832.312,0 1507.02,-674.704 1507.02,-1507.02l-602.796,-0c0,499.341 -404.879,904.221 -904.22,904.221l-0,602.795Zm1507.02,-1507.02l0,-0.225l-602.796,-0l0,0.225l602.796,-0Zm-301.441,301.216l1205.66,0l-0,-602.795l-1205.66,-0l-0,602.795Zm1507.1,-301.216l-0,-0.225l-602.863,-0l0,0.225l602.863,-0Zm904.22,904.221c-499.429,-0 -904.22,-404.88 -904.22,-904.221l-602.863,-0c0,832.312 674.754,1507.02 1507.08,1507.02l0,-602.795Zm904.217,-904.221c0,499.341 -404.862,904.221 -904.217,904.221l0,602.795c832.325,0 1507.01,-674.704 1507.01,-1507.02l-602.796,-0Zm0,-0.225l0,0.225l602.796,-0l-0,-0.225l-602.796,-0Zm301.371,301.441l1205.66,0l0,-602.795l-1205.66,-0l-0,602.795Zm904.221,-301.441l-0,0.225l602.933,-0l0,-0.225l-602.933,-0Zm-0,0.225c-0,832.312 674.704,1507.02 1507.17,1507.02l-0,-602.795c-499.43,-0 -904.238,-404.88 -904.238,-904.221l-602.933,-0Zm1507.17,1507.02c832.166,0 1507.08,-674.704 1507.08,-1507.02l-602.867,-0c0,499.341 -405.087,904.221 -904.216,904.221l-0,602.795Zm1507.08,-1507.02l-0,-0.225l-602.867,-0l0,0.225l602.867,-0Zm-301.442,301.216l1205.66,0l-0,-602.795l-1205.66,-0l0,602.795Zm904.234,-301.441l-0,0.225l602.795,-0l0,-0.225l-602.795,-0Zm-0,0.225c-0,832.312 674.55,1507.02 1507.02,1507.02l0,-602.795c-499.429,-0 -904.221,-404.88 -904.221,-904.221l-602.795,-0Zm1507.02,1507.02c832.171,0 1507.08,-674.704 1507.08,-1507.02l-602.867,-0c-0,499.341 -404.792,904.221 -904.217,904.221l0,602.795Zm1507.08,-1507.02l-0,-0.225l-602.867,-0l-0,0.225l602.867,-0Zm-301.425,301.216l1205.66,0l-0,-602.795l-1205.66,-0l-0,602.795Zm1507.01,-301.216l0,-0.225l-602.792,-0l0,0.225l602.792,-0Zm904.221,904.221c-499.408,-0 -904.221,-404.88 -904.221,-904.221l-602.792,-0c0,832.312 674.546,1507.02 1507.01,1507.02l-0,-602.795Zm904.237,-904.221c0,499.341 -405.104,904.221 -904.237,904.221l-0,602.795c832.187,0 1507.1,-674.704 1507.1,-1507.02l-602.863,-0Zm0,-0.225l0,0.225l602.863,-0l-0,-0.225l-602.863,-0Zm301.421,301.441l1205.66,0l-0,-602.795l-1205.66,-0l0,602.795Z" style="fill:#e2e0e7;fill-rule:nonzero;"/></g><path d="M9795.79,10850.7c-0,-582.604 472.291,-1054.9 1054.9,-1054.9l26524,0.001c582.604,-0.001 1054.91,472.291 1054.91,1054.89l0,26524c0,582.604 -472.308,1054.91 -1054.91,1054.91l-26524,0c-582.605,0 -1054.92,-472.308 -1054.92,-1054.91l-0,-26444.8l0.021,-79.167Z" style="fill:#fff;fill-rule:nonzero;stroke:#e2e0e7;stroke-width:301.75px;"/><rect x="12056.4" y="12056.4" width="12733.4" height="12615" style="fill:#ea4335;"/><rect x="24112.7" y="12056.4" width="12075.6" height="12615" style="fill:#fbbc04;"/><rect x="24008.4" y="24133.2" width="12179.9" height="12076.9" style="fill:#4285f4;"/><rect x="12056.4" y="24133.2" width="12056.2" height="12076.9" style="fill:#34a853;"/><g><path d="M28766.9,23238.4c-0,-329.977 -26.747,-661.752 -83.834,-986.387l-4578.84,-0l-0,1869.33l2622.08,0c-108.81,602.893 -458.426,1136.22 -970.346,1475.13l0,1212.94l1564.31,0c918.622,-845.491 1446.61,-2094.09 1446.61,-3571.02l0.017,0Z" style="fill:#fff;fill-rule:nonzero;"/><path d="M24104.7,27981.4c1309.26,0 2413.39,-429.88 3217.84,-1171.9l-1564.33,-1212.94c-435.219,296.092 -997.093,463.766 -1651.71,463.766c-1266.46,-0 -2340.26,-854.4 -2725.54,-2003.12l-1614.27,0l-0,1250.4c824.083,1639.23 2502.57,2673.8 4338,2673.8l0.017,0Z" style="fill:#fff;fill-rule:nonzero;"/><path d="M21378.8,24057.2c-203.346,-602.917 -203.346,-1255.76 0,-1858.65l0,-1250.4l-1612.48,-0c-688.519,1371.68 -688.519,2987.74 0,4359.44l1612.48,-1250.37l0,-0.014Z" style="fill:#fff;fill-rule:nonzero;"/><path d="M24104.7,20193.6c692.092,-10.702 1360.98,249.721 1862.2,727.765l1385.95,-1385.96c-877.577,-824.079 -2042.34,-1277.15 -3248.15,-1262.88c-1835.45,0 -3513.92,1034.56 -4338,2675.58l1612.49,1250.4c383.498,-1150.49 1459.09,-2004.91 2725.53,-2004.91l-0.017,0Z" style="fill:#fff;fill-rule:nonzero;"/></g><text x="20101.8px" y="32493.3px" style="font-family:'MiriamLibre-Regular', 'Miriam Libre';font-size:2397.42px;fill:#fff;">G<tspan x="21605px 22969.1px 24309.3px " y="32493.3px 32493.3px 32493.3px ">oog</tspan>le</text></svg>