<?xml version="1.0" encoding="UTF-8" standalone="no"?><!DOCTYPE svg PUBLIC "-//W3C//DTD SVG 1.1//EN" "http://www.w3.org/Graphics/SVG/1.1/DTD/svg11.dtd"><svg width="100%" height="100%" viewBox="0 0 1573 1534" version="1.1" xmlns="http://www.w3.org/2000/svg" xmlns:xlink="http://www.w3.org/1999/xlink" xml:space="preserve" xmlns:serif="http://www.serif.com/" style="fill-rule:evenodd;clip-rule:evenodd;"><g><g><path d="M1437.53,69.139l-0,0.007c-0,25.69 20.827,46.516 46.516,46.516l-0,46.514c-25.689,0.008 -46.505,20.831 -46.505,46.517c0,25.685 20.816,46.508 46.505,46.516l-0,46.516c-25.689,0.009 -46.505,20.832 -46.505,46.517c0,25.685 20.816,46.508 46.505,46.516l-0,46.517c-25.689,0.008 -46.505,20.831 -46.505,46.516c0,25.685 20.816,46.508 46.505,46.516l-0,46.517c-25.689,0.008 -46.505,20.831 -46.505,46.516c0,25.685 20.816,46.508 46.505,46.517l-0,46.516c-25.689,0.008 -46.505,20.831 -46.505,46.516c0,25.686 20.816,46.509 46.505,46.517l-0,46.516c-25.689,0.008 -46.505,20.831 -46.505,46.517c0,25.685 20.816,46.508 46.505,46.516l-0,46.516c-25.689,0.008 -46.505,20.832 -46.505,46.517c0,25.685 20.816,46.508 46.505,46.516l-0,46.517c-25.689,0.008 -46.505,20.831 -46.505,46.516c0,25.685 20.816,46.508 46.505,46.512l-0,46.516c-25.689,0.012 -46.505,20.839 -46.505,46.516c0,25.689 20.816,46.517 46.505,46.517l-0,46.516c-1.396,0 -2.791,0.07 -4.152,0.186c-1.046,0.093 -2.081,0.221 -3.105,0.384c-22.246,3.489 -39.259,22.723 -39.259,45.947l-46.517,-0c-0.011,-25.689 -20.828,-46.505 -46.516,-46.505c-25.689,-0 -46.517,20.816 -46.517,46.505l-46.516,-0c-0.012,-25.689 -20.828,-46.505 -46.516,-46.505c-25.689,-0 -46.517,20.816 -46.517,46.505l-46.516,-0c-0.012,-25.689 -20.828,-46.505 -46.517,-46.505c-25.688,-0 -46.516,20.816 -46.521,46.505l-46.516,-0c-0.003,-25.689 -20.828,-46.505 -46.516,-46.505c-25.688,-0 -46.512,20.816 -46.517,46.505l-46.516,-0c-0.004,-25.689 -20.828,-46.505 -46.517,-46.505c-25.687,-0 -46.511,20.816 -46.516,46.505l-46.516,-0c-0.004,-25.689 -20.828,-46.505 -46.517,-46.505c-25.687,-0 -46.511,20.816 -46.516,46.505l-46.517,-0c-0.003,-25.689 -20.827,-46.505 -46.516,-46.505c-25.687,-0 -46.512,20.816 -46.516,46.505l-46.517,-0c-0.003,-25.689 -20.827,-46.505 -46.516,-46.505c-25.688,-0 -46.512,20.816 -46.517,46.505l-46.516,-0c-0.003,-25.689 -20.828,-46.505 -46.516,-46.505c-25.688,-0 -46.512,20.816 -46.517,46.505l-46.495,-0c-0.002,-25.689 -20.828,-46.517 -46.517,-46.517l-0.016,0l0,-46.516l0.016,-0c25.691,-0 46.517,-20.816 46.517,-46.517c-0,-25.688 -20.826,-46.516 -46.517,-46.516l-0.016,0l0,-46.516l0.016,-0c25.691,-0 46.517,-20.821 46.517,-46.512c-0,-25.69 -20.826,-46.516 -46.517,-46.516l-0.016,-0l0,-46.517l0.016,0c25.691,0 46.517,-20.825 46.517,-46.516c-0,-25.69 -20.826,-46.517 -46.517,-46.517l-0.016,0l0,-46.516l0.016,-0c25.691,-0 46.517,-20.825 46.517,-46.516c-0,-25.69 -20.826,-46.517 -46.517,-46.517l-0.016,0l0,-46.516l0.016,-0c25.691,-0 46.517,-20.826 46.517,-46.517c-0,-25.689 -20.826,-46.516 -46.517,-46.516l-0.016,-0l0,-46.516l0.016,-0c25.691,-0 46.517,-20.826 46.517,-46.517c-0,-25.69 -20.826,-46.516 -46.517,-46.516l-0.016,-0l0,-46.517l0.016,0c25.691,0 46.517,-20.825 46.517,-46.516c-0,-25.69 -20.826,-46.516 -46.517,-46.516l-0.016,-0l0,-46.517l0.016,0c25.691,0 46.517,-20.825 46.517,-46.516c-0,-25.69 -20.826,-46.517 -46.517,-46.517l-0.016,0l0,-46.516l0.016,0c25.691,0 46.517,-20.825 46.517,-46.516c-0,-25.69 -20.826,-46.516 -46.517,-46.516l-0.016,-0l0,-46.515c0.881,0 1.756,-0.024 2.624,-0.073c24.479,-1.351 43.911,-21.628 43.911,-46.444l0,-0.006l46.493,-0l0,0.007c0,25.69 20.827,46.516 46.517,46.516c25.691,0 46.516,-20.826 46.516,-46.516l0,-0.007l46.516,-0l0,0.007c0,25.69 20.827,46.516 46.517,46.516c25.691,0 46.516,-20.826 46.516,-46.516l0,-0.007l46.517,-0l-0,0.007c-0,25.69 20.826,46.516 46.516,46.516c25.691,0 46.516,-20.826 46.516,-46.516l0,-0.007l46.517,-0l-0,0.007c-0,25.69 20.826,46.516 46.516,46.516c25.691,0 46.517,-20.826 46.517,-46.516l-0,-0.007l46.516,-0l0,0.007c0,25.69 20.827,46.516 46.516,46.516c25.691,0 46.517,-20.826 46.517,-46.516l-0,-0.007l46.516,-0l0,0.007c0,25.69 20.827,46.516 46.517,46.516c25.691,0 46.516,-20.826 46.516,-46.516l0,-0.007l46.516,-0l0,0.007c0,25.69 20.833,46.516 46.521,46.516c25.689,0 46.517,-20.826 46.517,-46.516l-0,-0.007l46.516,-0l0,0.007c0,25.69 20.828,46.516 46.517,46.516c25.688,0 46.516,-20.826 46.516,-46.516l0,-0.007l46.516,-0l0,0.007c0,25.69 20.828,46.516 46.517,46.516c25.688,0 46.516,-20.826 46.516,-46.516l0,-0.007l46.517,-0Z" style="fill:#f3f4f6;"/><path d="M1437.53,69.139l11.629,-0l-0,-11.629l-11.629,-0l-0,11.629Zm46.516,46.523l11.629,0l0,-11.629l-11.629,0l-0,11.629Zm-0,46.514l-0,11.629l11.629,-0.003l0,-11.626l-11.629,0Zm-0,93.033l11.629,0l0,-11.626l-11.629,-0.003l-0,11.629Zm-0,46.516l-0,11.63l11.629,-0.004l0,-11.626l-11.629,0Zm-0,93.033l11.629,0l0,-11.625l-11.629,-0.004l-0,11.629Zm-0,46.517l-0,11.629l11.629,-0.004l0,-11.625l-11.629,-0Zm-0,93.032l11.629,0l0,-11.625l-11.629,-0.004l-0,11.629Zm-0,46.517l-0,11.629l11.629,-0.004l0,-11.625l-11.629,-0Zm-0,93.033l11.629,-0l0,-11.626l-11.629,-0.004l-0,11.63Zm-0,46.516l-0,11.629l11.629,-0.003l0,-11.626l-11.629,-0Zm-0,93.033l11.629,-0l0,-11.626l-11.629,-0.003l-0,11.629Zm-0,46.516l-0,11.629l11.629,-0.003l0,-11.626l-11.629,0Zm-0,93.033l11.629,-0l0,-11.626l-11.629,-0.003l-0,11.629Zm-0,46.516l-0,11.629l11.629,-0.003l0,-11.626l-11.629,0Zm-0,93.033l11.629,0l0,-11.625l-11.629,-0.004l-0,11.629Zm-0,46.517l-0,11.629l11.629,-0.004l0,-11.625l-11.629,-0Zm-0,93.028l11.629,-0l0,-11.621l-11.629,-0.004l-0,11.625Zm-0,46.516l-0,11.629l11.629,0l0,-11.629l-11.629,0Zm-0,93.033l11.629,-0l0,-11.618l-11.629,-0.011l-0,11.629Zm-0,46.516l-0,11.629l11.629,0l0,-11.629l-11.629,0Zm-4.152,0.186l1.024,11.583l-1.024,-11.583Zm-3.105,0.384l1.791,11.49l0.012,-0l-1.803,-11.49Zm-39.259,45.947l-0,11.629l11.617,-0l0.012,-11.629l-11.629,-0Zm-46.517,-0l-11.629,-0l0,11.629l11.629,-0l0,-11.629Zm-93.033,-0l0,11.629l11.618,-0l0.012,-11.629l-11.63,-0Zm-46.516,-0l-11.629,-0l-0,11.629l11.629,-0l0,-11.629Zm-93.033,-0l0,11.629l11.629,-0l0,-11.629l-11.629,-0Zm-46.516,-0l-11.629,-0l-0,11.629l11.629,-0l-0,-11.629Zm-93.038,-0l0,11.629l11.623,-0l0.011,-11.629l-11.634,-0Zm-46.516,-0l-11.629,-0l0.002,11.629l11.627,-0l0,-11.629Zm-93.033,-0l0,11.629l11.628,-0l0.001,-11.629l-11.629,-0Zm-46.516,-0l-11.629,-0l0.002,11.629l11.627,-0l-0,-11.629Zm-93.033,-0l0,11.629l11.628,-0l0.001,-11.629l-11.629,-0Zm-46.516,-0l-11.629,-0l0.002,11.629l11.627,-0l-0,-11.629Zm-93.033,-0l-0,11.629l11.628,-0l0.001,-11.629l-11.629,-0Zm-46.517,-0l-11.629,-0l0.003,11.629l11.626,-0l0,-11.629Zm-93.032,-0l-0,11.629l11.628,-0l0.001,-11.629l-11.629,-0Zm-46.517,-0l-11.629,-0l0.003,11.629l11.626,-0l0,-11.629Zm-93.033,-0l0,11.629l11.628,-0l0.002,-11.629l-11.63,-0Zm-46.516,-0l-11.629,-0l0.002,11.629l11.627,-0l0,-11.629Zm-93.033,-0l0,11.629l11.628,-0l0.001,-11.629l-11.629,-0Zm-46.495,-0l-11.629,-0l0.002,11.629l11.627,-0l-0,-11.629Zm-46.533,-46.517l-11.629,0.012l0.001,11.617l11.628,0l0,-11.629Zm0,-46.516l0,-11.629l-11.629,-0l0,11.629l11.629,-0Zm0,-93.033l-11.629,0l0,11.629l11.629,0l0,-11.629Zm0,-46.516l0,-11.625l-11.629,0l0,11.625l11.629,-0Zm0,-93.028l-11.629,-0l0,11.629l11.629,-0l0,-11.629Zm0,-46.517l0,-11.629l-11.629,0l0,11.629l11.629,0Zm0,-93.033l-11.629,0l0,11.629l11.629,0l0,-11.629Zm0,-46.516l0,-11.629l-11.629,-0l0,11.629l11.629,-0Zm0,-93.033l-11.629,0l0,11.629l11.629,0l0,-11.629Zm0,-46.516l0,-11.629l-11.629,-0l0,11.629l11.629,-0Zm0,-93.033l-11.629,-0l0,11.629l11.629,0l0,-11.629Zm0,-46.516l0,-11.63l-11.629,0l0,11.63l11.629,-0Zm0,-93.033l-11.629,-0l0,11.629l11.629,-0l0,-11.629Zm0,-46.517l0,-11.629l-11.629,0l0,11.629l11.629,0Zm0,-93.032l-11.629,-0l0,11.629l11.629,-0l0,-11.629Zm0,-46.517l0,-11.629l-11.629,0l0,11.629l11.629,0Zm0,-93.033l-11.629,0l0,11.63l11.629,-0l0,-11.63Zm0,-46.516l0,-11.629l-11.629,-0l0,11.629l11.629,0Zm0,-93.032l-11.629,-0l0,11.629l11.629,-0l0,-11.629Zm0,-46.515l-0.001,-11.629l-11.628,0.001l0,11.628l11.629,0Zm2.624,-0.073l-0.641,-11.611l-0.006,0l0.647,11.611Zm43.911,-46.45l0,-11.629l-11.629,-0l0,11.629l11.629,-0Zm46.493,-0l11.629,-0l0,-11.629l-11.629,-0l0,11.629Zm93.033,-0l0,-11.629l-11.629,-0l0,11.629l11.629,-0Zm46.516,-0l11.63,-0l-0,-11.629l-11.63,-0l0,11.629Zm93.033,-0l0,-11.629l-11.629,-0l0,11.629l11.629,-0Zm46.517,-0l11.629,-0l-0,-11.629l-11.629,-0l-0,11.629Zm93.032,-0l0,-11.629l-11.629,-0l0,11.629l11.629,-0Zm46.517,-0l11.629,-0l-0,-11.629l-11.629,-0l-0,11.629Zm46.516,46.523l0,-11.629l0,11.629Zm46.517,-46.523l-0,-11.629l-11.629,-0l-0,11.629l11.629,-0Zm46.516,-0l11.629,-0l0,-11.629l-11.629,-0l0,11.629Zm93.033,-0l-0,-11.629l-11.629,-0l-0,11.629l11.629,-0Zm46.516,-0l11.629,-0l0,-11.629l-11.629,-0l0,11.629Zm46.517,46.523l-0,11.629l-0,-11.629Zm46.516,-46.523l0,-11.629l-11.629,-0l-0,11.629l11.629,-0Zm46.516,-0l11.634,-0l0,-11.629l-11.634,-0l0,11.629Zm93.038,-0l-0,-11.629l-11.629,-0l-0,11.629l11.629,-0Zm46.516,-0l11.629,-0l0,-11.629l-11.629,-0l0,11.629Zm93.033,-0l0,-11.629l-11.629,-0l-0,11.629l11.629,-0Zm46.516,-0l11.63,-0l-0,-11.629l-11.63,-0l0,11.629Zm93.033,-0l0,-11.629l-11.629,-0l0,11.629l11.629,-0Zm34.887,-0l0,0.007l23.259,-0l-0,-0.007l-23.259,-0Zm0,0.007c0,32.113 26.026,58.145 58.146,58.145l-0,-23.258c-19.269,0 -34.887,-15.62 -34.887,-34.887l-23.259,-0Zm58.146,58.145l-0,-23.258l-0,23.258Zm-11.629,-11.629l-0,46.514l23.258,0l0,-46.514l-23.258,0Zm-23.247,93.031c0,-19.264 15.618,-34.882 34.876,-34.888l-0,-23.258c-32.108,0.01 -58.134,26.039 -58.134,58.146l23.258,-0Zm34.876,34.887c-19.258,-0.006 -34.876,-15.624 -34.876,-34.887l-23.258,-0c0,32.106 26.026,58.135 58.134,58.145l-0,-23.258Zm-11.629,11.629l-0,46.516l23.258,0l0,-46.516l-23.258,0Zm11.629,34.887c-32.108,0.011 -58.134,26.039 -58.134,58.146l23.258,-0c0,-19.264 15.618,-34.882 34.876,-34.887l-0,-23.259Zm-58.134,58.146c0,32.107 26.026,58.135 58.134,58.145l-0,-23.258c-19.258,-0.006 -34.876,-15.624 -34.876,-34.887l-23.258,-0Zm46.505,46.516l-0,46.517l23.258,-0l0,-46.517l-23.258,0Zm11.629,34.888c-32.108,0.01 -58.134,26.038 -58.134,58.145l23.258,0c0,-19.264 15.618,-34.881 34.876,-34.887l-0,-23.258Zm-58.134,58.145c0,32.107 26.026,58.135 58.134,58.146l-0,-23.259c-19.258,-0.006 -34.876,-15.623 -34.876,-34.887l-23.258,0Zm46.505,46.516l-0,46.517l23.258,-0l0,-46.517l-23.258,0Zm-23.247,93.033c0,-19.263 15.618,-34.881 34.876,-34.887l-0,-23.258c-32.108,0.01 -58.134,26.038 -58.134,58.145l23.258,0Zm34.876,34.887c-19.258,-0.005 -34.876,-15.623 -34.876,-34.887l-23.258,0c0,32.107 26.026,58.135 58.134,58.146l-0,-23.259Zm-11.629,11.63l-0,46.516l23.258,-0l0,-46.516l-23.258,-0Zm11.629,34.887c-32.108,0.01 -58.134,26.039 -58.134,58.145l23.258,0c0,-19.263 15.618,-34.881 34.876,-34.887l-0,-23.258Zm-58.134,58.145c0,32.107 26.026,58.135 58.134,58.146l-0,-23.258c-19.258,-0.006 -34.876,-15.624 -34.876,-34.888l-23.258,0Zm46.505,46.517l-0,46.516l23.258,0l0,-46.516l-23.258,-0Zm-23.247,93.033c0,-19.264 15.618,-34.882 34.876,-34.888l-0,-23.258c-32.108,0.011 -58.134,26.039 -58.134,58.146l23.258,-0Zm34.876,34.887c-19.258,-0.006 -34.876,-15.624 -34.876,-34.887l-23.258,-0c0,32.106 26.026,58.135 58.134,58.145l-0,-23.258Zm-11.629,11.629l-0,46.516l23.258,0l0,-46.516l-23.258,-0Zm-23.247,93.033c0,-19.264 15.618,-34.882 34.876,-34.888l-0,-23.258c-32.108,0.011 -58.134,26.039 -58.134,58.146l23.258,-0Zm34.876,34.887c-19.258,-0.006 -34.876,-15.624 -34.876,-34.887l-23.258,-0c0,32.107 26.026,58.135 58.134,58.145l-0,-23.258Zm-11.629,11.629l-0,46.517l23.258,-0l0,-46.517l-23.258,0Zm-23.247,93.033c0,-19.264 15.618,-34.882 34.876,-34.887l-0,-23.259c-32.108,0.011 -58.134,26.039 -58.134,58.146l23.258,-0Zm34.876,34.887c-19.258,-0.006 -34.876,-15.623 -34.876,-34.887l-23.258,-0c0,32.107 26.026,58.141 58.134,58.141l-0,-23.254Zm-11.629,11.625l-0,46.516l23.258,0l0,-46.516l-23.258,-0Zm11.629,34.887c-32.108,0.012 -58.134,26.049 -58.134,58.145l23.258,0c0,-19.257 15.618,-34.875 34.876,-34.887l-0,-23.258Zm-58.134,58.145c0,32.108 26.026,58.146 58.134,58.146l-0,-23.258c-19.258,-0 -34.876,-15.618 -34.876,-34.888l-23.258,0Zm46.505,46.517l-0,46.516l23.258,0l0,-46.516l-23.258,-0Zm-0,46.516l23.258,0l-23.258,0Zm11.629,-11.629c-1.744,0 -3.477,0.082 -5.187,0.233l2.059,23.165c1.035,-0.093 2.07,-0.14 3.128,-0.14l-0,-23.258Zm-5.187,0.233c-1.302,0.116 -2.593,0.279 -3.884,0.477l3.617,22.979c0.767,-0.117 1.547,-0.221 2.326,-0.291l-2.059,-23.165Zm-3.872,0.477c-27.817,4.36 -49.087,28.398 -49.087,57.436l23.259,-0c-0,-17.398 12.757,-31.841 29.421,-34.457l-3.593,-22.979Zm-37.457,45.807l-46.517,-0l0,23.258l46.517,-0l-0,-23.258Zm-93.033,-23.247c19.258,-0 34.875,15.606 34.887,34.876l23.258,-0c-0.011,-32.108 -26.037,-58.134 -58.145,-58.134l-0,23.258Zm-34.887,34.876c-0,-19.27 15.617,-34.876 34.887,-34.876l-0,-23.258c-32.12,-0 -58.146,26.026 -58.146,58.134l23.259,-0Zm-11.63,-11.629l-46.516,-0l0,23.258l46.516,-0l0,-23.258Zm-34.887,11.629c-0.012,-32.108 -26.037,-58.134 -58.145,-58.134l-0,23.258c19.257,-0 34.875,15.606 34.887,34.876l23.258,-0Zm-58.145,-58.134c-32.12,-0 -58.146,26.026 -58.146,58.134l23.258,-0c0,-19.27 15.618,-34.876 34.888,-34.876l-0,-23.258Zm-46.517,46.505l-46.516,-0l-0,23.258l46.516,-0l0,-23.258Zm-34.887,11.629c-0.012,-32.108 -26.038,-58.134 -58.146,-58.134l0,23.258c19.258,-0 34.876,15.606 34.888,34.876l23.258,-0Zm-58.146,-58.134c-32.119,-0 -58.144,26.026 -58.15,58.134l23.263,-0c0,-19.27 15.618,-34.876 34.887,-34.876l0,-23.258Zm-46.521,46.505l-46.516,-0l0,23.258l46.516,-0l0,-23.258Zm-93.032,-23.247c19.266,-0 34.885,15.606 34.887,34.876l23.258,-0c-0.005,-32.108 -26.035,-58.134 -58.145,-58.134l-0,23.258Zm-34.888,34.876c0.004,-19.27 15.622,-34.876 34.888,-34.876l-0,-23.258c-32.109,-0 -58.14,26.026 -58.146,58.134l23.258,-0Zm-11.629,-11.629l-46.516,-0l-0,23.258l46.516,-0l0,-23.258Zm-34.887,11.629c-0.005,-32.108 -26.035,-58.134 -58.146,-58.134l0,23.258c19.266,-0 34.885,15.606 34.888,34.876l23.258,-0Zm-58.146,-58.134c-32.109,-0 -58.14,26.026 -58.145,58.134l23.258,-0c0.004,-19.27 15.622,-34.876 34.887,-34.876l0,-23.258Zm-46.516,46.505l-46.516,-0l-0,23.258l46.516,-0l0,-23.258Zm-93.033,-23.247c19.266,-0 34.885,15.606 34.888,34.876l23.258,-0c-0.005,-32.108 -26.035,-58.134 -58.146,-58.134l0,23.258Zm-34.887,34.876c0.003,-19.27 15.621,-34.876 34.887,-34.876l0,-23.258c-32.109,-0 -58.141,26.026 -58.145,58.134l23.258,-0Zm-11.629,-11.629l-46.517,-0l0,23.258l46.517,-0l-0,-23.258Zm-93.033,-23.247c19.266,-0 34.885,15.606 34.887,34.876l23.259,-0c-0.005,-32.108 -26.036,-58.134 -58.146,-58.134l0,23.258Zm-34.887,34.876c0.003,-19.27 15.621,-34.876 34.887,-34.876l0,-23.258c-32.109,-0 -58.14,26.026 -58.145,58.134l23.258,-0Zm-11.629,-11.629l-46.517,-0l0,23.258l46.517,-0l-0,-23.258Zm-93.033,-23.247c19.266,-0 34.885,15.606 34.887,34.876l23.258,-0c-0.004,-32.108 -26.035,-58.134 -58.145,-58.134l-0,23.258Zm-34.887,34.876c0.003,-19.27 15.621,-34.876 34.887,-34.876l-0,-23.258c-32.109,-0 -58.14,26.026 -58.146,58.134l23.259,-0Zm-11.63,-11.629l-46.516,-0l0,23.258l46.516,-0l0,-23.258Zm-34.887,11.629c-0.004,-32.108 -26.035,-58.134 -58.145,-58.134l-0,23.258c19.266,-0 34.885,15.606 34.887,34.876l23.258,-0Zm-58.145,-58.134c-32.109,-0 -58.14,26.026 -58.146,58.134l23.258,-0c0.004,-19.27 15.622,-34.876 34.888,-34.876l-0,-23.258Zm-46.517,46.505l-46.495,-0l-0,23.258l46.495,-0l0,-23.258Zm-34.866,11.629c-0.004,-32.108 -26.034,-58.146 -58.146,-58.146l0,23.258c19.268,0 34.887,15.618 34.888,34.888l23.258,-0Zm-58.146,-58.146l-0.016,0l0,23.258l0.016,0l0,-23.258Zm11.613,11.629l-23.258,0l0,0.012l23.258,-0.012Zm0,0l0,-46.516l-23.258,-0l0,46.516l23.258,0Zm-11.629,-34.887l0.016,-0l0,-23.258l-0.016,-0l0,23.258Zm0.016,-0c32.114,-0 58.146,-26.026 58.146,-58.146l-23.258,0c-0,19.27 -15.619,34.888 -34.888,34.888l0,23.258Zm58.146,-58.146c-0,-32.107 -26.032,-58.145 -58.146,-58.145l0,23.258c19.269,0 34.888,15.63 34.888,34.887l23.258,0Zm-58.146,-58.145l-0.016,-0l0,23.258l0.016,0l0,-23.258Zm11.613,11.629l0,-46.516l-23.258,-0l0,46.516l23.258,0Zm-11.613,-58.141l-0.016,0l0,23.254l0.016,-0l0,-23.254Zm34.888,-34.887c-0,19.268 -15.619,34.887 -34.888,34.887l0,23.254c32.114,-0 58.146,-26.027 58.146,-58.141l-23.258,-0Zm-34.888,-34.887c19.269,-0 34.888,15.62 34.888,34.887l23.258,-0c-0,-32.113 -26.032,-58.146 -58.146,-58.146l0,23.259Zm-0.016,-0l0.016,-0l0,-23.259l-0.016,0l0,23.259Zm11.629,-11.629l0,-46.517l-23.258,0l0,46.517l23.258,-0Zm-11.613,-58.146l-0.016,0l0,23.258l0.016,0l0,-23.258Zm34.888,-34.887c-0,19.268 -15.619,34.887 -34.888,34.887l0,23.258c32.114,0 58.146,-26.032 58.146,-58.145l-23.258,-0Zm-34.888,-34.888c19.269,0 34.888,15.621 34.888,34.888l23.258,-0c-0,-32.113 -26.032,-58.146 -58.146,-58.146l0,23.258Zm-0.016,0l0.016,0l0,-23.258l-0.016,0l0,23.258Zm11.629,-11.629l0,-46.516l-23.258,-0l0,46.516l23.258,0Zm-11.613,-58.145l-0.016,-0l0,23.258l0.016,0l0,-23.258Zm34.888,-34.887c-0,19.268 -15.619,34.887 -34.888,34.887l0,23.258c32.114,0 58.146,-26.032 58.146,-58.145l-23.258,-0Zm-34.888,-34.888c19.269,0 34.888,15.62 34.888,34.888l23.258,-0c-0,-32.113 -26.032,-58.146 -58.146,-58.146l0,23.258Zm-0.016,0l0.016,0l0,-23.258l-0.016,0l0,23.258Zm11.629,-11.629l0,-46.516l-23.258,-0l0,46.516l23.258,0Zm-11.629,-34.887l0.016,-0l0,-23.258l-0.016,-0l0,23.258Zm0.016,-0c32.114,-0 58.146,-26.032 58.146,-58.146l-23.258,0c-0,19.269 -15.619,34.888 -34.888,34.888l0,23.258Zm58.146,-58.146c-0,-32.112 -26.032,-58.145 -58.146,-58.145l0,23.258c19.269,0 34.888,15.62 34.888,34.887l23.258,0Zm-58.146,-58.145l-0.016,-0l0,23.258l0.016,0l0,-23.258Zm11.613,11.629l0,-46.516l-23.258,-0l0,46.516l23.258,-0Zm-11.613,-58.146l-0.016,0l0,23.259l0.016,-0l0,-23.259Zm34.888,-34.887c-0,19.268 -15.619,34.887 -34.888,34.887l0,23.259c32.114,-0 58.146,-26.032 58.146,-58.146l-23.258,0Zm-34.888,-34.887c19.269,-0 34.888,15.62 34.888,34.887l23.258,0c-0,-32.112 -26.032,-58.145 -58.146,-58.145l0,23.258Zm-0.016,-0l0.016,-0l0,-23.258l-0.016,-0l0,23.258Zm11.629,-11.629l0,-46.517l-23.258,0l0,46.517l23.258,-0Zm-11.629,-34.887l0.016,-0l0,-23.259l-0.016,0l0,23.259Zm0.016,-0c32.114,-0 58.146,-26.032 58.146,-58.146l-23.258,0c-0,19.268 -15.619,34.887 -34.888,34.887l0,23.259Zm58.146,-58.146c-0,-32.113 -26.032,-58.145 -58.146,-58.145l0,23.258c19.269,-0 34.888,15.62 34.888,34.887l23.258,0Zm-58.146,-58.145l-0.016,-0l0,23.258l0.016,-0l0,-23.258Zm11.613,11.629l0,-46.517l-23.258,0l0,46.517l23.258,-0Zm-11.629,-34.888l0.016,0l0,-23.258l-0.016,0l0,23.258Zm0.016,0c32.114,0 58.146,-26.031 58.146,-58.145l-23.258,-0c-0,19.268 -15.619,34.887 -34.888,34.887l0,23.258Zm58.146,-58.145c-0,-32.113 -26.032,-58.146 -58.146,-58.146l0,23.259c19.269,-0 34.888,15.62 34.888,34.887l23.258,-0Zm-58.146,-58.146l-0.016,0l0,23.259l0.016,-0l0,-23.259Zm11.613,11.629l0,-46.516l-23.258,0l0,46.516l23.258,0Zm-11.613,-58.145l-0.016,-0l0,23.258l0.016,0l0,-23.258Zm34.888,-34.887c-0,19.268 -15.619,34.887 -34.888,34.887l0,23.258c32.114,0 58.146,-26.032 58.146,-58.145l-23.258,-0Zm-34.888,-34.887c19.269,-0 34.888,15.62 34.888,34.887l23.258,-0c-0,-32.113 -26.032,-58.145 -58.146,-58.145l0,23.258Zm-0.016,-0l0.016,-0l0,-23.258l-0.016,-0l0,23.258Zm11.629,-11.629l0,-46.515l-23.258,0l0,46.515l23.258,-0Zm-11.628,-34.886c1.096,0 2.187,-0.03 3.269,-0.091l-1.293,-23.222c-0.653,0.036 -1.313,0.055 -1.978,0.055l0.002,23.258Zm3.265,-0.09c30.607,-1.69 54.898,-27.032 54.898,-58.056l-23.258,-0c0,18.608 -14.575,33.82 -32.923,34.833l1.283,23.223Zm54.898,-58.056l0,-0.006l-23.258,-0l0,0.006l23.258,-0Zm-11.629,11.623l46.493,-0l0,-23.258l-46.493,-0l0,23.258Zm34.864,-11.629l0,0.007l23.258,-0l0,-0.007l-23.258,-0Zm0,0.007c0,32.113 26.033,58.145 58.146,58.145l-0,-23.258c-19.267,0 -34.888,-15.62 -34.888,-34.887l-23.258,-0Zm58.146,58.145c32.113,0 58.145,-26.032 58.145,-58.145l-23.258,-0c0,19.267 -15.619,34.887 -34.887,34.887l-0,23.258Zm58.145,-58.145l0,-0.007l-23.258,-0l0,0.007l23.258,-0Zm-11.629,11.622l46.516,-0l0,-23.258l-46.516,-0l0,23.258Zm58.146,-11.622l-0,-0.007l-23.259,-0l0,0.007l23.259,-0Zm34.887,34.887c-19.267,0 -34.887,-15.62 -34.887,-34.887l-23.259,-0c0,32.113 26.033,58.145 58.146,58.145l-0,-23.258Zm34.887,-34.887c0,19.267 -15.619,34.887 -34.887,34.887l-0,23.258c32.114,0 58.145,-26.032 58.145,-58.145l-23.258,-0Zm0,-0.007l0,0.007l23.258,-0l0,-0.007l-23.258,-0Zm11.629,11.629l46.517,-0l-0,-23.258l-46.517,-0l0,23.258Zm58.146,-11.622l-0,-0.007l-23.258,-0l-0,0.007l23.258,-0Zm34.887,34.887c-19.267,0 -34.887,-15.62 -34.887,-34.887l-23.258,-0c-0,32.113 26.032,58.145 58.145,58.145l0,-23.258Zm34.887,-34.887c0,19.267 -15.619,34.887 -34.887,34.887l0,23.258c32.114,0 58.146,-26.032 58.146,-58.145l-23.259,-0Zm0,-0.007l0,0.007l23.259,-0l-0,-0.007l-23.259,-0Zm11.629,11.629l46.517,-0l-0,-23.258l-46.517,-0l0,23.258Zm58.146,-11.622l-0,-0.007l-23.258,-0l-0,0.007l23.258,-0Zm34.887,34.887c-19.267,0 -34.887,-15.62 -34.887,-34.887l-23.258,-0c-0,32.113 26.033,58.145 58.145,58.145l0,-23.258Zm34.888,-34.887c-0,19.267 -15.619,34.887 -34.888,34.887l0,23.258c32.114,0 58.146,-26.032 58.146,-58.145l-23.258,-0Zm-0,-0.007l-0,0.007l23.258,-0l-0,-0.007l-23.258,-0Zm11.629,11.629l46.516,-0l0,-23.258l-46.516,-0l-0,23.258Zm34.887,-11.629l-0,0.007l23.258,-0l0,-0.007l-23.258,-0Zm-0,0.007c-0,32.113 26.033,58.145 58.145,58.145l0,-23.258c-19.267,0 -34.887,-15.62 -34.887,-34.887l-23.258,-0Zm58.145,58.145c32.114,0 58.146,-26.032 58.146,-58.145l-23.258,-0c-0,19.267 -15.619,34.887 -34.888,34.887l0,23.258Zm58.146,-58.145l-0,-0.007l-23.258,-0l-0,0.007l23.258,-0Zm-11.629,11.622l46.516,-0l0,-23.258l-46.516,-0l-0,23.258Zm58.145,-11.622l0,-0.007l-23.258,-0l0,0.007l23.258,-0Zm34.888,34.887c-19.267,0 -34.888,-15.62 -34.888,-34.887l-23.258,-0c0,32.113 26.033,58.145 58.146,58.145l-0,-23.258Zm34.887,-34.887c-0,19.267 -15.619,34.887 -34.887,34.887l-0,23.258c32.113,0 58.145,-26.032 58.145,-58.145l-23.258,-0Zm-0,-0.007l-0,0.007l23.258,-0l0,-0.007l-23.258,-0Zm11.629,11.629l46.516,-0l0,-23.258l-46.516,-0l0,23.258Zm34.887,-11.629l0,0.007l23.263,-0l0,-0.007l-23.263,-0Zm0,0.007c0,32.113 26.031,58.145 58.15,58.145l0,-23.258c-19.269,0 -34.887,-15.62 -34.887,-34.887l-23.263,-0Zm58.15,58.145c32.108,0 58.146,-26.032 58.146,-58.145l-23.258,-0c-0,19.267 -15.63,34.887 -34.888,34.887l0,23.258Zm58.146,-58.145l-0,-0.007l-23.258,-0l-0,0.007l23.258,-0Zm-11.629,11.622l46.516,-0l0,-23.258l-46.516,-0l-0,23.258Zm34.887,-11.629l0,0.007l23.258,-0l0,-0.007l-23.258,-0Zm0,0.007c0,32.113 26.026,58.145 58.146,58.145l-0,-23.258c-19.27,0 -34.888,-15.62 -34.888,-34.887l-23.258,-0Zm58.146,58.145c32.108,0 58.145,-26.032 58.145,-58.145l-23.258,-0c-0,19.267 -15.618,34.887 -34.887,34.887l-0,23.258Zm58.145,-58.145l0,-0.007l-23.258,-0l-0,0.007l23.258,-0Zm-11.629,11.622l46.516,-0l0,-23.258l-46.516,-0l0,23.258Zm58.146,-11.622l-0,-0.007l-23.259,-0l0,0.007l23.259,-0Zm34.887,34.887c-19.27,0 -34.887,-15.62 -34.887,-34.887l-23.259,-0c0,32.113 26.026,58.145 58.146,58.145l-0,-23.258Zm34.887,-34.887c0,19.267 -15.629,34.887 -34.887,34.887l-0,23.258c32.108,0 58.145,-26.032 58.145,-58.145l-23.258,-0Zm0,-0.007l0,0.007l23.258,-0l0,-0.007l-23.258,-0Zm11.629,11.629l46.517,-0l-0,-23.258l-46.517,-0l0,23.258Z" style="fill:#e2e0e7;fill-rule:nonzero;"/></g><path d="M233.92,255.204c-0,-22.479 18.223,-40.701 40.702,-40.701l1023.36,-0c22.479,-0 40.702,18.222 40.702,40.701l0,1023.36c0,22.479 -18.223,40.702 -40.702,40.702l-1023.36,-0c-22.479,-0 -40.702,-18.223 -40.702,-40.702l-0,-1023.36Z" style="fill:#fff;fill-rule:nonzero;stroke:#e2e0e7;stroke-width:11.63px;"/><path d="M329.691,310.996l0.722,912.5l912.5,-0.722l-0.722,-912.5l-912.5,0.722Z" style="fill:url(#_Linear1);"/></g><g><path d="M786.302,497.736c-152.39,-0 -275.963,123.546 -275.963,275.964c-0,121.923 79.071,225.366 188.72,261.856c13.792,2.554 18.855,-5.987 18.855,-13.275c0,-6.576 -0.255,-28.32 -0.374,-51.379c-76.774,16.693 -92.974,-32.56 -92.974,-32.56c-12.553,-31.893 -30.641,-40.379 -30.641,-40.379c-25.038,-17.128 1.888,-16.776 1.888,-16.776c27.711,1.946 42.303,28.442 42.303,28.442c24.613,42.185 64.558,29.988 80.306,22.936c2.481,-17.831 9.628,-30.01 17.52,-36.901c-61.295,-6.974 -125.73,-30.641 -125.73,-136.382c0,-30.125 10.781,-54.747 28.434,-74.073c-2.865,-6.951 -12.311,-35.019 2.678,-73.031c-0,0 23.174,-7.412 75.905,28.292c22.013,-6.114 45.621,-9.18 69.073,-9.29c23.453,0.11 47.079,3.176 69.133,9.29c52.672,-35.704 75.813,-28.292 75.813,-28.292c15.021,38.012 5.575,66.08 2.71,73.031c17.695,19.326 28.397,43.948 28.397,74.073c0,105.997 -64.558,129.331 -126.009,136.163c9.899,8.564 18.718,25.358 18.718,51.104c0,36.924 -0.315,66.642 -0.315,75.732c0,7.348 4.963,15.948 18.951,13.243c109.594,-36.531 188.566,-139.938 188.566,-261.824c-0,-152.418 -123.555,-275.964 -275.964,-275.964" style="fill:#fff;"/><path d="M617.459,898.63c-0.602,1.361 -2.736,1.768 -4.68,0.836c-1.984,-0.895 -3.092,-2.744 -2.45,-4.105c0.588,-1.392 2.722,-1.781 4.702,-0.85c1.98,0.891 3.11,2.758 2.428,4.119" style="fill:#fff;fill-rule:nonzero;"/><path d="M628.518,910.965c-1.302,1.208 -3.852,0.647 -5.574,-1.261c-1.79,-1.903 -2.12,-4.453 -0.8,-5.674c1.342,-1.207 3.811,-0.642 5.597,1.262c1.79,1.925 2.138,4.448 0.777,5.673" style="fill:#fff;fill-rule:nonzero;"/><path d="M639.282,926.687c-1.672,1.167 -4.412,0.077 -6.103,-2.351c-1.673,-2.432 -1.673,-5.343 0.041,-6.51c1.691,-1.166 4.39,-0.113 6.103,2.292c1.668,2.469 1.668,5.38 -0.041,6.569" style="fill:#fff;fill-rule:nonzero;"/><path d="M654.029,941.88c-1.497,1.65 -4.684,1.207 -7.017,-1.049c-2.387,-2.197 -3.052,-5.321 -1.555,-6.972c1.519,-1.654 4.724,-1.189 7.075,1.045c2.369,2.197 3.088,5.344 1.497,6.976" style="fill:#fff;fill-rule:nonzero;"/><path d="M674.373,950.701c-0.664,2.138 -3.729,3.106 -6.822,2.197c-3.088,-0.936 -5.109,-3.436 -4.485,-5.597c0.642,-2.152 3.726,-3.165 6.841,-2.193c3.083,0.932 5.108,3.418 4.466,5.593" style="fill:#fff;fill-rule:nonzero;"/><path d="M696.718,952.335c0.077,2.251 -2.545,4.118 -5.791,4.159c-3.265,0.072 -5.909,-1.75 -5.945,-3.965c-0,-2.274 2.567,-4.119 5.827,-4.177c3.246,-0.064 5.909,1.749 5.909,3.983" style="fill:#fff;fill-rule:nonzero;"/><path d="M717.509,948.798c0.388,2.193 -1.868,4.449 -5.091,5.05c-3.169,0.583 -6.104,-0.778 -6.506,-2.952c-0.393,-2.252 1.899,-4.508 5.068,-5.091c3.228,-0.561 6.117,0.759 6.529,2.993" style="fill:#fff;fill-rule:nonzero;"/></g><defs><linearGradient id="_Linear1" x1="0" y1="0" x2="1" y2="0" gradientUnits="userSpaceOnUse" gradientTransform="matrix(-0.722127,-912.5,912.5,-0.722127,786.663,1223.13)"><stop offset="0" style="stop-color:#ff0;stop-opacity:1"/><stop offset="1" style="stop-color:#ff8c9b;stop-opacity:1"/></linearGradient></defs></svg>