<?xml version="1.0" encoding="UTF-8" standalone="no"?><!DOCTYPE svg PUBLIC "-//W3C//DTD SVG 1.1//EN" "http://www.w3.org/Graphics/SVG/1.1/DTD/svg11.dtd"><svg width="100%" height="100%" viewBox="0 0 667 667" version="1.1" xmlns="http://www.w3.org/2000/svg" xmlns:xlink="http://www.w3.org/1999/xlink" xml:space="preserve" xmlns:serif="http://www.serif.com/" style="fill-rule:evenodd;clip-rule:evenodd;"><g><path d="M566.667,83.333l-0,0.003c-0,9.205 7.462,16.667 16.666,16.667l0,16.665c-9.204,0.003 -16.662,7.464 -16.662,16.667c-0,9.203 7.458,16.664 16.662,16.667l0,16.666c-9.204,0.003 -16.662,7.464 -16.662,16.667c-0,9.203 7.458,16.664 16.662,16.667l0,16.666c-9.204,0.003 -16.662,7.464 -16.662,16.667c-0,9.203 7.458,16.664 16.662,16.667l0,16.666c-9.204,0.003 -16.662,7.464 -16.662,16.667c-0,9.203 7.458,16.664 16.662,16.667l0,16.666c-9.204,0.003 -16.662,7.464 -16.662,16.667c-0,9.203 7.458,16.664 16.662,16.667l0,16.666c-9.204,0.003 -16.662,7.464 -16.662,16.667c-0,9.203 7.458,16.664 16.662,16.667l0,16.666c-9.204,0.003 -16.662,7.464 -16.662,16.667c-0,9.203 7.458,16.664 16.662,16.667l0,16.666c-9.204,0.003 -16.662,7.464 -16.662,16.667c-0,9.203 7.458,16.664 16.662,16.665l0,16.667c-9.204,0.004 -16.662,7.466 -16.662,16.666c-0,9.204 7.458,16.667 16.662,16.667l0,16.667c-0.5,-0 -1,0.025 -1.487,0.066c-0.375,0.034 -0.746,0.079 -1.113,0.138c-7.971,1.25 -14.066,8.141 -14.066,16.462l-16.667,0c-0.004,-9.204 -7.462,-16.662 -16.667,-16.662c-9.204,-0 -16.666,7.458 -16.666,16.662l-16.667,0c-0.004,-9.204 -7.462,-16.662 -16.667,-16.662c-9.204,-0 -16.666,7.458 -16.666,16.662l-16.667,0c-0.004,-9.204 -7.462,-16.662 -16.667,-16.662c-9.204,-0 -16.666,7.458 -16.668,16.662l-16.667,0c-0.001,-9.204 -7.462,-16.662 -16.666,-16.662c-9.204,-0 -16.665,7.458 -16.667,16.662l-16.667,0c-0.001,-9.204 -7.462,-16.662 -16.666,-16.662c-9.204,-0 -16.665,7.458 -16.667,16.662l-16.667,0c-0.001,-9.204 -7.462,-16.662 -16.666,-16.662c-9.204,-0 -16.665,7.458 -16.667,16.662l-16.667,0c-0.001,-9.204 -7.462,-16.662 -16.666,-16.662c-9.204,-0 -16.665,7.458 -16.667,16.662l-16.667,0c-0.001,-9.204 -7.462,-16.662 -16.666,-16.662c-9.204,-0 -16.665,7.458 -16.667,16.662l-16.667,0c-0.001,-9.204 -7.462,-16.662 -16.666,-16.662c-9.204,-0 -16.665,7.458 -16.667,16.662l-16.659,0c-0.001,-9.204 -7.463,-16.666 -16.667,-16.666l-0.006,-0l0,-16.667l0.006,-0c9.205,-0 16.667,-7.458 16.667,-16.667c-0,-9.204 -7.462,-16.666 -16.667,-16.666l-0.006,-0l0,-16.667l0.006,0c9.205,0 16.667,-7.46 16.667,-16.665c-0,-9.205 -7.462,-16.667 -16.667,-16.667l-0.006,0l0,-16.666l0.006,-0c9.205,-0 16.667,-7.462 16.667,-16.667c-0,-9.205 -7.462,-16.667 -16.667,-16.667l-0.006,0l0,-16.666l0.006,-0c9.205,-0 16.667,-7.462 16.667,-16.667c-0,-9.205 -7.462,-16.667 -16.667,-16.667l-0.006,0l0,-16.666l0.006,-0c9.205,-0 16.667,-7.462 16.667,-16.667c-0,-9.205 -7.462,-16.667 -16.667,-16.667l-0.006,0l0,-16.666l0.006,-0c9.205,-0 16.667,-7.462 16.667,-16.667c-0,-9.205 -7.462,-16.667 -16.667,-16.667l-0.006,0l0,-16.666l0.006,-0c9.205,-0 16.667,-7.462 16.667,-16.667c-0,-9.205 -7.462,-16.667 -16.667,-16.667l-0.006,0l0,-16.666l0.006,-0c9.205,-0 16.667,-7.462 16.667,-16.667c-0,-9.205 -7.462,-16.667 -16.667,-16.667l-0.006,0l0,-16.666l0.006,-0c9.205,-0 16.667,-7.462 16.667,-16.667c-0,-9.205 -7.462,-16.666 -16.667,-16.666l-0.006,-0l0,-16.666c0.316,-0.001 0.63,-0.009 0.94,-0.027c8.771,-0.484 15.734,-7.749 15.734,-16.641l-0,-0.002l16.658,0l0,0.003c0,9.205 7.462,16.667 16.667,16.667c9.205,-0 16.666,-7.462 16.666,-16.667l0,-0.003l16.667,0l0,0.003c0,9.205 7.462,16.667 16.667,16.667c9.205,-0 16.666,-7.462 16.666,-16.667l0,-0.003l16.667,0l0,0.003c0,9.205 7.462,16.667 16.667,16.667c9.205,-0 16.666,-7.462 16.666,-16.667l0,-0.003l16.667,0l0,0.003c0,9.205 7.462,16.667 16.667,16.667c9.205,-0 16.666,-7.462 16.666,-16.667l0,-0.003l16.667,0l0,0.003c0,9.205 7.462,16.667 16.667,16.667c9.205,-0 16.666,-7.462 16.666,-16.667l0,-0.003l16.667,0l0,0.003c0,9.205 7.462,16.667 16.667,16.667c9.205,-0 16.666,-7.462 16.666,-16.667l0,-0.003l16.667,0l0,0.003c0,9.205 7.464,16.667 16.668,16.667c9.205,-0 16.667,-7.462 16.667,-16.667l0,-0.003l16.667,0l-0,0.003c-0,9.205 7.462,16.667 16.666,16.667c9.205,-0 16.667,-7.462 16.667,-16.667l0,-0.003l16.667,0l-0,0.003c-0,9.205 7.462,16.667 16.666,16.667c9.205,-0 16.667,-7.462 16.667,-16.667l0,-0.003l16.667,0Z" style="fill:#f3f4f6;"/><path d="M566.667,83.333l4.166,0l0,-4.166l-4.166,-0l-0,4.166Zm16.666,16.67l4.167,-0l-0,-4.167l-4.167,-0l0,4.167Zm0,16.665l0,4.167l4.167,-0.001l-0,-4.166l-4.167,0Zm0,33.334l4.167,-0l-0,-4.166l-4.167,-0.001l0,4.167Zm0,16.666l0,4.167l4.167,-0.001l-0,-4.166l-4.167,0Zm0,33.334l4.167,-0l-0,-4.166l-4.167,-0.001l0,4.167Zm0,16.666l0,4.167l4.167,-0.001l-0,-4.166l-4.167,0Zm0,33.334l4.167,-0l-0,-4.166l-4.167,-0.001l0,4.167Zm0,16.666l0,4.167l4.167,-0.001l-0,-4.166l-4.167,0Zm0,33.334l4.167,-0l-0,-4.166l-4.167,-0.001l0,4.167Zm0,16.666l0,4.167l4.167,-0.001l-0,-4.166l-4.167,0Zm0,33.334l4.167,-0l-0,-4.166l-4.167,-0.001l0,4.167Zm0,16.666l0,4.167l4.167,-0.001l-0,-4.166l-4.167,0Zm0,33.334l4.167,-0l-0,-4.166l-4.167,-0.001l0,4.167Zm0,16.666l0,4.167l4.167,-0.001l-0,-4.166l-4.167,0Zm0,33.334l4.167,-0l-0,-4.166l-4.167,-0.001l0,4.167Zm0,16.666l0,4.167l4.167,-0.001l-0,-4.166l-4.167,0Zm0,33.332l4.167,0l-0,-4.164l-4.167,-0.001l0,4.165Zm0,16.667l0,4.166l4.167,0l-0,-4.166l-4.167,-0Zm0,33.333l4.167,0l-0,-4.162l-4.167,-0.005l0,4.167Zm0,16.667l0,4.166l4.167,0l-0,-4.166l-4.167,-0Zm-1.487,0.066l0.366,4.15l-0.366,-4.15Zm-1.113,0.138l0.642,4.116l0.004,0l-0.646,-4.116Zm-14.066,16.462l-0,4.167l4.162,-0l0.004,-4.167l-4.166,0Zm-16.667,0l-4.167,0l0,4.167l4.167,-0l-0,-4.167Zm-33.333,0l-0,4.167l4.162,-0l0.004,-4.167l-4.166,0Zm-16.667,0l-4.167,0l0,4.167l4.167,-0l-0,-4.167Zm-33.333,0l-0,4.167l4.166,-0l0,-4.167l-4.166,0Zm-16.667,0l-4.167,0l0,4.167l4.167,-0l-0,-4.167Zm-33.335,0l-0,4.167l4.164,-0l0.004,-4.167l-4.168,0Zm-16.667,0l-4.166,0l0,4.167l4.166,-0l0,-4.167Zm-33.333,0l-0,4.167l4.166,-0l0.001,-4.167l-4.167,0Zm-16.667,0l-4.166,0l0,4.167l4.166,-0l0,-4.167Zm-33.333,0l-0,4.167l4.166,-0l0.001,-4.167l-4.167,0Zm-16.667,0l-4.166,0l0,4.167l4.166,-0l0,-4.167Zm-33.333,0l-0,4.167l4.166,-0l0.001,-4.167l-4.167,0Zm-16.667,0l-4.166,0l0,4.167l4.166,-0l0,-4.167Zm-33.333,0l-0,4.167l4.166,-0l0.001,-4.167l-4.167,0Zm-16.667,0l-4.166,0l0,4.167l4.166,-0l0,-4.167Zm-33.333,0l-0,4.167l4.166,-0l0.001,-4.167l-4.167,0Zm-16.667,0l-4.166,0l0,4.167l4.166,-0l0,-4.167Zm-33.333,0l-0,4.167l4.166,-0l0.001,-4.167l-4.167,0Zm-16.659,0l-4.167,0l0.001,4.167l4.166,-0l-0,-4.167Zm-16.673,-16.666l-4.166,0.004l0,4.162l4.166,0l0,-4.166Zm0,-16.667l0,-4.167l-4.166,0l-0,4.167l4.166,0Zm0,-33.333l-4.166,-0l-0,4.166l4.166,0l0,-4.166Zm0,-16.667l0,-4.165l-4.166,0l-0,4.165l4.166,0Zm0,-33.332l-4.166,0l-0,4.167l4.166,0l0,-4.167Zm0,-16.666l0,-4.167l-4.166,0l-0,4.167l4.166,-0Zm0,-33.334l-4.166,0l-0,4.167l4.166,0l0,-4.167Zm0,-16.666l0,-4.167l-4.166,0l-0,4.167l4.166,-0Zm0,-33.334l-4.166,0l-0,4.167l4.166,0l0,-4.167Zm0,-16.666l0,-4.167l-4.166,0l-0,4.167l4.166,-0Zm0,-33.334l-4.166,0l-0,4.167l4.166,0l0,-4.167Zm0,-16.666l0,-4.167l-4.166,0l-0,4.167l4.166,-0Zm0,-33.334l-4.166,0l-0,4.167l4.166,0l0,-4.167Zm0,-16.666l0,-4.167l-4.166,0l-0,4.167l4.166,-0Zm0,-33.334l-4.166,0l-0,4.167l4.166,0l0,-4.167Zm0,-16.666l0,-4.167l-4.166,0l-0,4.167l4.166,-0Zm0,-33.334l-4.166,0l-0,4.167l4.166,0l0,-4.167Zm0,-16.666l0,-4.167l-4.166,0l-0,4.167l4.166,-0Zm0,-33.333l-4.166,-0l-0,4.166l4.166,0l0,-4.166Zm0,-16.666l-0,-4.167l-4.166,0l-0,4.167l4.166,-0Zm0.94,-0.027l-0.229,-4.16l-0.002,0l0.231,4.16Zm15.734,-16.643l-0,-4.166l-4.167,-0l-0,4.166l4.167,0Zm16.658,0l4.167,0l-0,-4.166l-4.167,-0l-0,4.166Zm33.333,0l0,-4.166l-4.166,-0l-0,4.166l4.166,0Zm16.667,0l4.167,0l-0,-4.166l-4.167,-0l-0,4.166Zm33.333,0l0,-4.166l-4.166,-0l-0,4.166l4.166,0Zm16.667,0l4.167,0l-0,-4.166l-4.167,-0l-0,4.166Zm33.333,0l0,-4.166l-4.166,-0l-0,4.166l4.166,0Zm16.667,0l4.167,0l-0,-4.166l-4.167,-0l-0,4.166Zm16.667,16.67l-0,-4.167l-0,4.167Zm16.666,-16.67l0,-4.166l-4.166,-0l-0,4.166l4.166,0Zm16.667,0l4.167,0l-0,-4.166l-4.167,-0l-0,4.166Zm33.333,0l0,-4.166l-4.166,-0l-0,4.166l4.166,0Zm16.667,0l4.167,0l-0,-4.166l-4.167,-0l-0,4.166Zm16.667,16.67l-0,4.166l-0,-4.166Zm16.666,-16.67l0,-4.166l-4.166,-0l-0,4.166l4.166,0Zm16.667,0l4.168,0l0,-4.166l-4.168,-0l-0,4.166Zm33.335,0l-0,-4.166l-4.167,-0l0,4.166l4.167,0Zm16.667,0l4.166,0l0,-4.166l-4.166,-0l-0,4.166Zm33.333,0l-0,-4.166l-4.167,-0l0,4.166l4.167,0Zm16.667,0l4.166,0l0,-4.166l-4.166,-0l-0,4.166Zm33.333,0l-0,-4.166l-4.167,-0l0,4.166l4.167,0Zm12.5,0l-0,0.003l8.333,-0l0,-0.003l-8.333,0Zm-0,0.003c-0,11.506 9.325,20.833 20.833,20.833l0,-8.333c-6.904,-0 -12.5,-5.597 -12.5,-12.5l-8.333,-0Zm20.833,20.833l0,-8.333l0,8.333Zm-4.166,-4.166l-0,16.665l8.333,0l0,-16.665l-8.333,-0Zm-8.329,33.332c-0,-6.902 5.595,-12.498 12.495,-12.5l0,-8.333c-11.504,0.003 -20.829,9.329 -20.829,20.833l8.333,0Zm12.496,12.5c-6.9,-0.002 -12.495,-5.598 -12.495,-12.5l-8.334,0c0,11.504 9.325,20.83 20.829,20.833l0,-8.333Zm-4.166,4.167l-0,16.666l8.333,0l0,-16.666l-8.333,-0Zm4.166,12.5c-11.504,0.003 -20.829,9.329 -20.829,20.833l8.333,0c0,-6.902 5.596,-12.498 12.496,-12.5l0,-8.333Zm-20.829,20.833c0,11.504 9.325,20.83 20.829,20.833l0,-8.333c-6.9,-0.002 -12.495,-5.598 -12.495,-12.5l-8.334,0Zm16.663,16.667l-0,16.666l8.333,0l-0,-16.666l-8.333,-0Zm4.166,12.5c-11.504,0.003 -20.829,9.329 -20.829,20.833l8.333,0c0,-6.902 5.596,-12.498 12.496,-12.5l0,-8.333Zm-20.829,20.833c0,11.504 9.325,20.83 20.829,20.833l0,-8.333c-6.9,-0.002 -12.496,-5.598 -12.496,-12.5l-8.333,0Zm16.663,16.667l-0,16.666l8.333,0l-0,-16.666l-8.333,-0Zm-8.33,33.333c0,-6.902 5.596,-12.498 12.496,-12.5l0,-8.333c-11.504,0.003 -20.829,9.329 -20.829,20.833l8.333,0Zm12.496,12.5c-6.9,-0.002 -12.496,-5.598 -12.496,-12.5l-8.333,0c0,11.504 9.325,20.83 20.829,20.833l0,-8.333Zm-4.166,4.167l-0,16.666l8.333,0l-0,-16.666l-8.333,-0Zm4.166,12.5c-11.504,0.003 -20.829,9.329 -20.829,20.833l8.333,0c0,-6.902 5.596,-12.498 12.496,-12.5l0,-8.333Zm-20.829,20.833c0,11.504 9.325,20.83 20.829,20.833l0,-8.333c-6.9,-0.002 -12.496,-5.598 -12.496,-12.5l-8.333,0Zm16.663,16.667l-0,16.666l8.333,0l-0,-16.666l-8.333,-0Zm-8.33,33.333c0,-6.902 5.596,-12.498 12.496,-12.5l0,-8.333c-11.504,0.003 -20.829,9.329 -20.829,20.833l8.333,0Zm12.496,12.5c-6.9,-0.002 -12.496,-5.598 -12.496,-12.5l-8.333,0c0,11.504 9.325,20.83 20.829,20.833l0,-8.333Zm-4.166,4.167l-0,16.666l8.333,0l-0,-16.666l-8.333,-0Zm-8.33,33.333c0,-6.902 5.596,-12.498 12.496,-12.5l0,-8.333c-11.504,0.003 -20.829,9.329 -20.829,20.833l8.333,0Zm12.496,12.5c-6.9,-0.002 -12.495,-5.598 -12.495,-12.5l-8.334,0c0,11.504 9.325,20.83 20.829,20.833l0,-8.333Zm-4.166,4.167l-0,16.666l8.333,0l0,-16.666l-8.333,-0Zm-8.329,33.333c-0,-6.902 5.595,-12.498 12.495,-12.5l0,-8.333c-11.504,0.003 -20.829,9.329 -20.829,20.833l8.333,0Zm12.496,12.5c-6.9,-0.002 -12.495,-5.598 -12.495,-12.5l-8.334,0c0,11.504 9.325,20.832 20.829,20.832l0,-8.332Zm-4.166,4.165l-0,16.667l8.333,-0l0,-16.667l-8.333,0Zm4.166,12.5c-11.504,0.004 -20.829,9.333 -20.829,20.833l8.333,0c0,-6.9 5.596,-12.495 12.496,-12.5l0,-8.333Zm-20.829,20.833c0,11.505 9.325,20.834 20.829,20.834l0,-8.334c-6.9,0 -12.495,-5.595 -12.495,-12.5l-8.334,0Zm16.663,16.667l-0,16.667l8.333,-0l-0,-16.667l-8.333,0Zm-0,16.667l8.333,-0l-8.333,-0Zm4.166,-4.167c-0.625,0 -1.246,0.029 -1.858,0.083l0.737,8.3c0.371,-0.033 0.742,-0.05 1.121,-0.05l0,-8.333Zm-1.858,0.083c-0.467,0.042 -0.929,0.1 -1.392,0.171l1.296,8.234c0.275,-0.042 0.554,-0.08 0.833,-0.105l-0.737,-8.3Zm-1.388,0.171c-9.966,1.563 -17.587,10.175 -17.587,20.579l8.333,0c0,-6.233 4.571,-11.408 10.542,-12.346l-1.288,-8.233Zm-13.42,16.413l-16.667,-0l-0,8.333l16.667,-0l-0,-8.333Zm-33.334,-8.33c6.9,0 12.496,5.592 12.5,12.496l8.334,0c-0.005,-11.504 -9.33,-20.829 -20.834,-20.829l0,8.333Zm-12.5,12.496c0,-6.904 5.596,-12.495 12.5,-12.495l0,-8.334c-11.508,0 -20.833,9.325 -20.833,20.829l8.333,0Zm-4.166,-4.166l-16.667,-0l-0,8.333l16.667,0l-0,-8.333Zm-12.5,4.166c-0.005,-11.504 -9.33,-20.829 -20.834,-20.829l0,8.333c6.9,0 12.496,5.592 12.5,12.496l8.334,0Zm-20.834,-20.829c-11.508,0 -20.833,9.325 -20.833,20.829l8.333,0c0,-6.904 5.596,-12.495 12.5,-12.495l0,-8.334Zm-16.666,16.663l-16.667,-0l-0,8.333l16.667,-0l-0,-8.333Zm-12.5,4.166c-0.005,-11.504 -9.33,-20.829 -20.834,-20.829l0,8.333c6.9,0 12.496,5.592 12.5,12.496l8.334,0Zm-20.834,-20.829c-11.508,0 -20.833,9.325 -20.835,20.829l8.335,0c0,-6.904 5.596,-12.496 12.5,-12.496l0,-8.333Zm-16.668,16.663l-16.667,-0l0,8.333l16.667,-0l-0,-8.333Zm-33.333,-8.33c6.903,0 12.499,5.592 12.5,12.496l8.333,0c-0.002,-11.504 -9.328,-20.829 -20.833,-20.829l-0,8.333Zm-12.5,12.496c0.001,-6.904 5.597,-12.496 12.5,-12.496l-0,-8.333c-11.505,0 -20.832,9.325 -20.834,20.829l8.334,0Zm-4.167,-4.166l-16.667,-0l0,8.333l16.667,-0l-0,-8.333Zm-12.5,4.166c-0.002,-11.504 -9.328,-20.829 -20.833,-20.829l-0,8.333c6.903,0 12.499,5.592 12.5,12.496l8.333,0Zm-20.833,-20.829c-11.505,0 -20.832,9.325 -20.834,20.829l8.334,0c0.001,-6.904 5.597,-12.496 12.5,-12.496l-0,-8.333Zm-16.667,16.663l-16.667,-0l0,8.333l16.667,-0l-0,-8.333Zm-33.333,-8.33c6.903,0 12.499,5.592 12.5,12.496l8.333,0c-0.002,-11.504 -9.328,-20.829 -20.833,-20.829l-0,8.333Zm-12.5,12.496c0.001,-6.904 5.597,-12.496 12.5,-12.496l-0,-8.333c-11.505,0 -20.832,9.325 -20.834,20.829l8.334,0Zm-4.167,-4.166l-16.667,-0l0,8.333l16.667,-0l-0,-8.333Zm-33.333,-8.33c6.903,0 12.499,5.592 12.5,12.496l8.333,0c-0.002,-11.504 -9.328,-20.829 -20.833,-20.829l-0,8.333Zm-12.5,12.496c0.001,-6.904 5.597,-12.495 12.5,-12.495l-0,-8.334c-11.505,0 -20.832,9.325 -20.834,20.829l8.334,0Zm-4.167,-4.166l-16.667,-0l0,8.333l16.667,0l-0,-8.333Zm-33.333,-8.329c6.903,-0 12.499,5.591 12.5,12.495l8.333,0c-0.002,-11.504 -9.328,-20.829 -20.833,-20.829l-0,8.333Zm-12.5,12.496c0.001,-6.904 5.597,-12.495 12.5,-12.495l-0,-8.334c-11.505,0 -20.832,9.325 -20.834,20.829l8.334,0Zm-4.167,-4.166l-16.667,-0l0,8.333l16.667,0l-0,-8.333Zm-12.5,4.166c-0.002,-11.504 -9.328,-20.829 -20.833,-20.829l-0,8.333c6.903,0 12.499,5.592 12.5,12.496l8.333,0Zm-20.833,-20.829c-11.505,0 -20.832,9.325 -20.834,20.829l8.334,0c0.001,-6.904 5.597,-12.495 12.5,-12.495l-0,-8.334Zm-16.667,16.663l-16.659,-0l-0,8.333l16.659,-0l-0,-8.333Zm-12.493,4.166c-0.001,-11.504 -9.327,-20.833 -20.833,-20.833l0,8.333c6.903,0 12.5,5.596 12.5,12.5l8.333,0Zm-20.833,-20.833l-0.006,-0l0,8.333l0.006,0l0,-8.333Zm4.161,4.167l-8.333,-0l-0,0.004l8.333,-0.004Zm-0,-0l-0,-16.667l-8.333,-0l-0,16.667l8.333,-0Zm-4.167,-12.5l0.006,-0l0,-8.334l-0.006,0l0,8.334Zm0.006,-0c11.506,-0 20.833,-9.325 20.833,-20.834l-8.333,0c0,6.904 -5.596,12.5 -12.5,12.5l0,8.334Zm20.833,-20.834c0,-11.504 -9.327,-20.833 -20.833,-20.833l0,8.333c6.904,0 12.5,5.6 12.5,12.5l8.333,0Zm-20.833,-20.833l-0.006,-0l0,8.333l0.006,0l0,-8.333Zm4.161,4.167l-0,-16.667l-8.333,-0l-0,16.667l8.333,-0Zm-4.161,-20.832l-0.006,-0l0,8.332l0.006,-0l0,-8.332Zm12.5,-12.5c0,6.904 -5.596,12.5 -12.5,12.5l0,8.332c11.506,-0 20.833,-9.326 20.833,-20.832l-8.333,-0Zm-12.5,-12.5c6.904,-0 12.5,5.597 12.5,12.5l8.333,-0c0,-11.506 -9.327,-20.833 -20.833,-20.833l0,8.333Zm-0.006,-0l0.006,-0l0,-8.333l-0.006,-0l0,8.333Zm4.167,-4.167l-0,-16.666l-8.333,-0l-0,16.666l8.333,0Zm-4.161,-20.833l-0.006,-0l0,8.333l0.006,0l0,-8.333Zm12.5,-12.5c0,6.904 -5.596,12.5 -12.5,12.5l0,8.333c11.506,0 20.833,-9.327 20.833,-20.833l-8.333,-0Zm-12.5,-12.5c6.904,-0 12.5,5.597 12.5,12.5l8.333,-0c0,-11.506 -9.327,-20.833 -20.833,-20.833l0,8.333Zm-0.006,-0l0.006,-0l0,-8.333l-0.006,-0l0,8.333Zm4.167,-4.167l-0,-16.666l-8.333,-0l-0,16.666l8.333,0Zm-4.161,-20.833l-0.006,-0l0,8.333l0.006,0l0,-8.333Zm12.5,-12.5c0,6.904 -5.596,12.5 -12.5,12.5l0,8.333c11.506,0 20.833,-9.327 20.833,-20.833l-8.333,-0Zm-12.5,-12.5c6.904,-0 12.5,5.597 12.5,12.5l8.333,-0c0,-11.506 -9.327,-20.833 -20.833,-20.833l0,8.333Zm-0.006,-0l0.006,-0l0,-8.333l-0.006,-0l0,8.333Zm4.167,-4.167l-0,-16.666l-8.333,-0l-0,16.666l8.333,0Zm-4.167,-12.5l0.006,0l0,-8.333l-0.006,-0l0,8.333Zm0.006,0c11.506,0 20.833,-9.327 20.833,-20.833l-8.333,-0c0,6.904 -5.596,12.5 -12.5,12.5l0,8.333Zm20.833,-20.833c0,-11.506 -9.327,-20.833 -20.833,-20.833l0,8.333c6.904,-0 12.5,5.597 12.5,12.5l8.333,-0Zm-20.833,-20.833l-0.006,-0l0,8.333l0.006,-0l0,-8.333Zm4.161,4.166l-0,-16.666l-8.333,-0l-0,16.666l8.333,0Zm-4.161,-20.833l-0.006,-0l0,8.333l0.006,0l0,-8.333Zm12.5,-12.5c0,6.904 -5.596,12.5 -12.5,12.5l0,8.333c11.506,0 20.833,-9.327 20.833,-20.833l-8.333,-0Zm-12.5,-12.5c6.904,-0 12.5,5.597 12.5,12.5l8.333,-0c0,-11.506 -9.327,-20.833 -20.833,-20.833l0,8.333Zm-0.006,-0l0.006,-0l0,-8.333l-0.006,-0l0,8.333Zm4.167,-4.167l-0,-16.666l-8.333,-0l-0,16.666l8.333,0Zm-4.167,-12.5l0.006,0l0,-8.333l-0.006,-0l0,8.333Zm0.006,0c11.506,0 20.833,-9.327 20.833,-20.833l-8.333,-0c0,6.904 -5.596,12.5 -12.5,12.5l0,8.333Zm20.833,-20.833c0,-11.506 -9.327,-20.833 -20.833,-20.833l0,8.333c6.904,-0 12.5,5.597 12.5,12.5l8.333,-0Zm-20.833,-20.833l-0.006,-0l0,8.333l0.006,-0l0,-8.333Zm4.161,4.166l-0,-16.666l-8.333,-0l-0,16.666l8.333,0Zm-4.167,-12.5l0.006,0l0,-8.333l-0.006,-0l0,8.333Zm0.006,0c11.506,0 20.833,-9.327 20.833,-20.833l-8.333,-0c0,6.904 -5.596,12.5 -12.5,12.5l0,8.333Zm20.833,-20.833c0,-11.506 -9.327,-20.833 -20.833,-20.833l0,8.333c6.904,-0 12.5,5.597 12.5,12.5l8.333,-0Zm-20.833,-20.833l-0.006,-0l0,8.333l0.006,-0l0,-8.333Zm4.161,4.166l-0,-16.666l-8.333,-0l-0,16.666l8.333,0Zm-4.161,-20.833l-0.006,-0l0,8.333l0.006,0l0,-8.333Zm12.5,-12.5c0,6.904 -5.596,12.5 -12.5,12.5l0,8.333c11.506,0 20.833,-9.327 20.833,-20.833l-8.333,-0Zm-12.5,-12.5c6.904,0 12.5,5.597 12.5,12.5l8.333,-0c0,-11.506 -9.327,-20.833 -20.833,-20.833l0,8.333Zm-0.006,0l0.006,0l0,-8.333l-0.006,-0l0,8.333Zm4.167,-4.167l-0,-16.666l-8.333,0l-0,16.666l8.333,0Zm-4.166,-12.499c0.392,0 0.783,-0.011 1.171,-0.032l-0.463,-8.321c-0.235,0.013 -0.471,0.02 -0.709,0.02l0.001,8.333Zm1.169,-0.032c10.967,-0.606 19.67,-9.686 19.67,-20.802l-8.333,0c-0,6.668 -5.222,12.118 -11.796,12.481l0.459,8.321Zm19.67,-20.802l0,-0.002l-8.333,0l-0,0.002l8.333,0Zm-4.166,4.165l16.658,-0l-0,-8.333l-16.658,-0l-0,8.333Zm12.491,-4.167l0,0.003l8.334,-0l-0,-0.003l-8.334,0Zm0,0.003c0,11.506 9.328,20.833 20.834,20.833l-0,-8.333c-6.904,-0 -12.5,-5.597 -12.5,-12.5l-8.334,-0Zm20.834,20.833c11.506,0 20.833,-9.327 20.833,-20.833l-8.333,-0c-0,6.903 -5.597,12.5 -12.5,12.5l-0,8.333Zm20.833,-20.833l-0,-0.003l-8.333,0l-0,0.003l8.333,-0Zm-4.167,4.164l16.667,-0l-0,-8.333l-16.667,-0l0,8.333Zm20.834,-4.164l-0,-0.003l-8.334,0l0,0.003l8.334,-0Zm12.5,12.5c-6.904,-0 -12.5,-5.597 -12.5,-12.5l-8.334,-0c0,11.506 9.328,20.833 20.834,20.833l-0,-8.333Zm12.5,-12.5c-0,6.903 -5.597,12.5 -12.5,12.5l-0,8.333c11.506,0 20.833,-9.327 20.833,-20.833l-8.333,-0Zm-0,-0.003l-0,0.003l8.333,-0l-0,-0.003l-8.333,0Zm4.166,4.167l16.667,-0l-0,-8.333l-16.667,-0l0,8.333Zm20.834,-4.164l-0,-0.003l-8.334,0l0,0.003l8.334,-0Zm12.5,12.5c-6.904,-0 -12.5,-5.597 -12.5,-12.5l-8.334,-0c0,11.506 9.328,20.833 20.834,20.833l-0,-8.333Zm12.5,-12.5c-0,6.903 -5.597,12.5 -12.5,12.5l-0,8.333c11.506,0 20.833,-9.327 20.833,-20.833l-8.333,-0Zm-0,-0.003l-0,0.003l8.333,-0l-0,-0.003l-8.333,0Zm4.166,4.167l16.667,-0l-0,-8.333l-16.667,-0l0,8.333Zm20.834,-4.164l-0,-0.003l-8.334,0l0,0.003l8.334,-0Zm12.5,12.5c-6.904,-0 -12.5,-5.597 -12.5,-12.5l-8.334,-0c0,11.506 9.328,20.833 20.834,20.833l-0,-8.333Zm12.5,-12.5c-0,6.903 -5.597,12.5 -12.5,12.5l-0,8.333c11.506,0 20.833,-9.327 20.833,-20.833l-8.333,-0Zm-0,-0.003l-0,0.003l8.333,-0l-0,-0.003l-8.333,0Zm4.166,4.167l16.667,-0l-0,-8.333l-16.667,-0l0,8.333Zm12.5,-4.167l0,0.003l8.334,-0l-0,-0.003l-8.334,0Zm0,0.003c0,11.506 9.328,20.833 20.834,20.833l-0,-8.333c-6.904,-0 -12.5,-5.597 -12.5,-12.5l-8.334,-0Zm20.834,20.833c11.506,0 20.833,-9.327 20.833,-20.833l-8.333,-0c-0,6.903 -5.597,12.5 -12.5,12.5l-0,8.333Zm20.833,-20.833l-0,-0.003l-8.333,0l-0,0.003l8.333,-0Zm-4.167,4.164l16.667,-0l-0,-8.333l-16.667,-0l0,8.333Zm20.834,-4.164l-0,-0.003l-8.334,0l0,0.003l8.334,-0Zm12.5,12.5c-6.904,-0 -12.5,-5.597 -12.5,-12.5l-8.334,-0c0,11.506 9.328,20.833 20.834,20.833l-0,-8.333Zm12.5,-12.5c-0,6.903 -5.597,12.5 -12.5,12.5l-0,8.333c11.506,0 20.833,-9.327 20.833,-20.833l-8.333,-0Zm-0,-0.003l-0,0.003l8.333,-0l-0,-0.003l-8.333,0Zm4.166,4.167l16.667,-0l-0,-8.333l-16.667,-0l0,8.333Zm12.5,-4.167l0,0.003l8.335,-0l0,-0.003l-8.335,0Zm0,0.003c0,11.506 9.327,20.833 20.835,20.833l0,-8.333c-6.904,-0 -12.5,-5.597 -12.5,-12.5l-8.335,-0Zm20.835,20.833c11.504,0 20.834,-9.327 20.834,-20.833l-8.334,-0c0,6.903 -5.6,12.5 -12.5,12.5l0,8.333Zm20.834,-20.833l-0,-0.003l-8.334,0l0,0.003l8.334,-0Zm-4.167,4.164l16.667,-0l-0,-8.333l-16.667,-0l-0,8.333Zm12.5,-4.167l-0,0.003l8.333,-0l0,-0.003l-8.333,0Zm-0,0.003c-0,11.506 9.325,20.833 20.833,20.833l0,-8.333c-6.904,-0 -12.5,-5.597 -12.5,-12.5l-8.333,-0Zm20.833,20.833c11.504,0 20.834,-9.327 20.834,-20.833l-8.334,-0c0,6.903 -5.596,12.5 -12.5,12.5l0,8.333Zm20.834,-20.833l-0,-0.003l-8.334,0l0,0.003l8.334,-0Zm-4.167,4.164l16.667,-0l-0,-8.333l-16.667,-0l-0,8.333Zm20.833,-4.164l0,-0.003l-8.333,0l-0,0.003l8.333,-0Zm12.5,12.5c-6.904,-0 -12.5,-5.597 -12.5,-12.5l-8.333,-0c-0,11.506 9.325,20.833 20.833,20.833l0,-8.333Zm12.5,-12.5c0,6.903 -5.6,12.5 -12.5,12.5l0,8.333c11.504,0 20.834,-9.327 20.834,-20.833l-8.334,-0Zm0,-0.003l0,0.003l8.334,-0l-0,-0.003l-8.334,0Zm4.167,4.167l16.667,-0l-0,-8.333l-16.667,-0l-0,8.333Z" style="fill:#e2e0e7;fill-rule:nonzero;"/></g><path d="M135.417,150c-0,-8.054 6.529,-14.583 14.583,-14.583l366.667,-0c8.054,-0 14.583,6.529 14.583,14.583l0,366.667c0,8.054 -6.529,14.583 -14.583,14.583l-366.667,0c-8.054,0 -14.583,-6.529 -14.583,-14.583l-0,-366.667Z" style="fill:#fff;fill-rule:nonzero;stroke:#e2e0e7;stroke-width:4.17px;"/><rect x="166.665" y="166.666" width="333.335" height="333.333" style="fill:url(#_Linear1);fill-rule:nonzero;"/><text x="177.45px" y="221.492px" style="font-family:'Arial-BoldMT', 'Arial', sans-serif;font-weight:700;font-size:41.667px;fill:#fff;">Snapshot V<tspan x="403.544px 428.996px " y="221.492px 221.492px ">ot</tspan>es</text><g><path d="M327.127,351.357l-7.93,0c-15.841,0 -31.683,-0.024 -47.525,0.032c-2.893,0.008 -4.644,-1.99 -4.947,-3.9c-0.312,-1.991 0.671,-3.461 2.078,-4.676c5.155,-4.492 10.327,-8.952 15.498,-13.42c9.911,-8.56 19.822,-17.105 29.733,-25.665c7.49,-6.474 14.955,-12.973 22.452,-19.439c10.199,-8.808 20.414,-17.6 30.637,-26.376c1.303,-1.119 2.622,-2.254 4.052,-3.189c1.503,-0.984 3.741,-0.6 5.076,0.639c1.438,1.335 1.974,3.285 1.151,4.964c-2.094,4.268 -4.261,8.504 -6.427,12.74c-7.617,14.851 -15.242,29.694 -22.867,44.536c-0.888,1.727 -1.783,3.453 -2.67,5.188c-0.112,0.216 -0.175,0.463 -0.335,0.879l55.262,-0c2.702,-0 4.388,1.175 5.052,3.645c0.519,1.926 -0.376,3.437 -1.727,4.683c-1.502,1.383 -3.069,2.694 -4.62,4.029c-7.809,6.738 -15.626,13.468 -23.427,20.214c-9.447,8.161 -18.895,16.329 -28.335,24.49c-9.711,8.392 -19.422,16.785 -29.141,25.169c-5.196,4.485 -10.399,8.968 -15.602,13.445c-1.2,1.03 -2.534,1.662 -4.205,1.446c-2.789,-0.36 -4.748,-3.565 -3.517,-6.114c1.871,-3.885 3.869,-7.705 5.835,-11.542c8.712,-16.969 17.432,-33.938 26.145,-50.907c0.112,-0.216 0.176,-0.455 0.327,-0.863l-0.023,-0.008Z" style="fill:#fff;fill-rule:nonzero;"/></g><defs><linearGradient id="_Linear1" x1="0" y1="0" x2="1" y2="0" gradientUnits="userSpaceOnUse" gradientTransform="matrix(2.04108e-14,333.333,-333.333,2.04108e-14,333.332,166.666)"><stop offset="0" style="stop-color:#ffac32;stop-opacity:1"/><stop offset="1" style="stop-color:#fd5;stop-opacity:1"/></linearGradient></defs></svg>